<?xml version="1.0" encoding="UTF-8" standalone="no"?>
<svg

   width="24"
   viewBox="0 0 24 24"
   height="24"
   fill="#000000">

  <defs
     id="defs10" />
  <path
     d="m 7.76,16.201334 c 1.17,1.170001 2.7,1.760001 4.24,1.760001 l 0,-6 -6.015417,0 c 0.0065,1.528146 0.605658,3.075218 1.775417,4.239999 z M 12,4.0000004 c 4.42,0 8,3.58 8,7.9999996 0,4.42 -3.58,8 -8,8 C 7.58,20 4,16.42 4,12 4,7.5800004 7.58,4.0000004 12,4.0000004 Z M 12,22 c 5.52,0 10,-4.48 10,-10 0,-5.5199996 -4.48,-9.9999996 -10,-9.9999996 -5.52,0 -10,4.48 -10,9.9999996 0,5.52 4.48,10 10,10 z"
     id="path4159" />
</svg>
