<?xml version="1.0" encoding="UTF-8" standalone="no"?>
<svg
   
   width="24"
   viewBox="0 0 24 24"
   height="24"
   fill="#000000">
  
  <defs
     id="defs10" />
  <path
     d="M 7.76,7.798666 C 8.93,6.6286654 10.46,6.0386654 12,6.0386654 l 0,5.9999996 -6.015417,0 C 5.991083,10.510519 6.590241,8.9634471 7.76,7.798666 Z M 12,20 c 4.42,0 8,-3.58 8,-8 0,-4.4199996 -3.58,-7.9999996 -8,-7.9999996 -4.42,0 -8,3.58 -8,7.9999996 0,4.42 3.58,8 8,8 z M 12,2.0000004 c 5.52,0 10,4.48 10,9.9999996 0,5.52 -4.48,10 -10,10 C 6.48,22 2,17.52 2,12 2,6.4800004 6.48,2.0000004 12,2.0000004 Z"
     id="path4159" />
</svg>
