<?xml version="1.0" encoding="UTF-8" standalone="no"?>
<svg

   width="24"
   viewBox="0 0 24 24"
   height="24"
   fill="#000000">
  
  <defs
     id="defs10" />
  <path
     d="M 16.24,7.7986664 C 15.07,6.6286654 13.54,6.0386654 12,6.0386654 l 0,5.9999996 6.015417,0 C 18.008917,10.510519 17.409759,8.9634474 16.24,7.7986664 Z M 12,20 C 7.58,20 4,16.42 4,12 4,7.5800004 7.58,4.0000004 12,4.0000004 c 4.42,0 8,3.58 8,7.9999996 0,4.42 -3.58,8 -8,8 z M 12,2.0000004 c -5.52,0 -10,4.48 -10,9.9999996 0,5.52 4.48,10 10,10 5.52,0 10,-4.48 10,-10 C 22,6.4800004 17.52,2.0000004 12,2.0000004 Z"
     id="path4159" />
</svg>
