<?xml version="1.0" encoding="UTF-8" standalone="no"?>
<svg
   xmlns:dc="http://purl.org/dc/elements/1.1/"
   xmlns:cc="http://creativecommons.org/ns#"
   xmlns:rdf="http://www.w3.org/1999/02/22-rdf-syntax-ns#"
   xmlns:svg="http://www.w3.org/2000/svg"
   xmlns="http://www.w3.org/2000/svg"
   version="1.1"
   id="svg4193"
   viewBox="0 0 354.33072 354.3307"
   height="100mm"
   width="100mm">
  <defs
     id="defs4195" />
  <metadata
     id="metadata4198">
    <rdf:RDF>
      <cc:Work
         rdf:about="">
        <dc:format>image/svg+xml</dc:format>
        <dc:type
           rdf:resource="http://purl.org/dc/dcmitype/StillImage" />
        <dc:title></dc:title>
      </cc:Work>
    </rdf:RDF>
  </metadata>
  <rect
     style="fill:#551b8c;fill-opacity:1;fill-rule:evenodd;stroke:none;stroke-width:1;stroke-miterlimit:4;stroke-dasharray:none;stroke-opacity:1"
     id="rect4260-5-7-2"
     width="343.13724"
     height="343.13724"
     x="5.5967355"
     y="5.5967202"
     rx="25.735292"
     ry="25.735292" />
  <path
     d="m 177.16536,302.16534 c 59.16666,0 107.14285,-47.97619 107.14285,-107.14286 -59.16666,0 -107.14285,47.97619 -107.14285,107.14286 z M 100.97488,162.28439 c 0,16.42858 13.33333,29.7619 29.7619,29.7619 6.30953,0 12.02381,-1.90476 16.90477,-5.23809 l -0.2381,2.2619 c 0,16.42857 13.33333,29.76191 29.76191,29.76191 16.42856,0 29.7619,-13.33334 29.7619,-29.76191 l -0.23809,-2.2619 c 4.7619,3.33333 10.59523,5.23809 16.90475,5.23809 16.42858,0 29.7619,-13.33332 29.7619,-29.7619 0,-11.90477 -7.0238,-22.02381 -17.0238,-26.78572 10,-4.7619 17.0238,-14.88095 17.0238,-26.78571 0,-16.428571 -13.33332,-29.761901 -29.7619,-29.761901 -6.30952,0 -12.0238,1.90475 -16.90475,5.23809 l 0.23809,-2.2619 c 0,-16.428577 -13.33334,-29.76191 -29.7619,-29.76191 -16.42858,0 -29.76191,13.333333 -29.76191,29.76191 l 0.2381,2.2619 c -4.76191,-3.33334 -10.59524,-5.23809 -16.90477,-5.23809 -16.42857,0 -29.7619,13.33333 -29.7619,29.761901 0,11.90476 7.02381,22.02381 17.02381,26.78571 -10,4.76191 -17.02381,14.88095 -17.02381,26.78572 z m 76.19048,-56.54763 c 16.42856,0 29.7619,13.33334 29.7619,29.76191 0,16.42857 -13.33334,29.76191 -29.7619,29.76191 -16.42858,0 -29.76191,-13.33334 -29.76191,-29.76191 0,-16.42857 13.33333,-29.76191 29.76191,-29.76191 z M 70.022499,195.02248 c 0,59.16667 47.976191,107.14286 107.142861,107.14286 0,-59.16667 -47.97619,-107.14286 -107.142861,-107.14286 z"
     id="path6"
     style="fill:#c4b4cf;fill-opacity:1" />
</svg>
