<?xml version="1.0" encoding="UTF-8" standalone="no"?>
<svg
   xmlns:dc="http://purl.org/dc/elements/1.1/"
   xmlns:cc="http://creativecommons.org/ns#"
   xmlns:rdf="http://www.w3.org/1999/02/22-rdf-syntax-ns#"
   xmlns:svg="http://www.w3.org/2000/svg"
   xmlns="http://www.w3.org/2000/svg"
   xmlns:xlink="http://www.w3.org/1999/xlink"
   xmlns:sodipodi="http://sodipodi.sourceforge.net/DTD/sodipodi-0.dtd"
   xmlns:inkscape="http://www.inkscape.org/namespaces/inkscape"
   version="1.1"
   id="svg2"
   viewBox="0 0 32 32"
   height="32"
   width="32"
   inkscape:version="0.91 r13725"
   sodipodi:docname="HOOhoo_32.svg">
  <sodipodi:namedview
     pagecolor="#ffffff"
     bordercolor="#666666"
     borderopacity="1"
     objecttolerance="10"
     gridtolerance="10"
     guidetolerance="10"
     inkscape:pageopacity="0"
     inkscape:pageshadow="2"
     inkscape:window-width="1440"
     inkscape:window-height="849"
     id="namedview22"
     showgrid="false"
     units="px"
     inkscape:zoom="5.6568543"
     inkscape:cx="-21.952097"
     inkscape:cy="26.40348"
     inkscape:window-x="0"
     inkscape:window-y="0"
     inkscape:window-maximized="1"
     inkscape:current-layer="svg2"
     showguides="true"
     inkscape:guide-bbox="true"
     inkscape:snap-bbox="true"
     inkscape:bbox-nodes="true"
     inkscape:snap-bbox-edge-midpoints="true"
     inkscape:snap-bbox-midpoints="true"
     inkscape:snap-intersection-paths="true"
     inkscape:snap-smooth-nodes="true"
     inkscape:object-nodes="true"
     inkscape:object-paths="true"
     inkscape:snap-midpoints="true" />
  <defs
     id="defs4">
    <linearGradient
       id="linearGradient4299-4">
      <stop
         id="stop4317"
         offset="0"
         style="stop-color:#ffcd07;stop-opacity:0;" />
      <stop
         id="stop4319"
         offset="1"
         style="stop-color:#ffcd07;stop-opacity:1;" />
    </linearGradient>
    <radialGradient
       spreadMethod="reflect"
       gradientUnits="userSpaceOnUse"
       gradientTransform="matrix(-0.0011451,0.06682832,-0.05968332,-0.00102268,77.568767,43.589909)"
       r="35.354767"
       fy="1038.3916"
       fx="-375.28308"
       cy="1038.3916"
       cx="-375.28308"
       id="radialGradient4305"
       xlink:href="#linearGradient4299-4" />
  </defs>
  <metadata
     id="metadata7">
    <rdf:RDF>
      <cc:Work
         rdf:about="">
        <dc:format>image/svg+xml</dc:format>
        <dc:type
           rdf:resource="http://purl.org/dc/dcmitype/StillImage" />
        <dc:title></dc:title>
      </cc:Work>
    </rdf:RDF>
  </metadata>
  <path
     style="color:#000000;clip-rule:nonzero;display:inline;overflow:visible;visibility:visible;opacity:1;isolation:auto;mix-blend-mode:normal;color-interpolation:sRGB;color-interpolation-filters:linearRGB;solid-color:#000000;solid-opacity:1;fill:#784421;fill-opacity:1;fill-rule:nonzero;stroke:none;stroke-width:1px;stroke-linecap:butt;stroke-linejoin:miter;stroke-miterlimit:4;stroke-dasharray:none;stroke-dashoffset:0;stroke-opacity:1;color-rendering:auto;image-rendering:auto;shape-rendering:auto;text-rendering:auto;enable-background:accumulate"
     d="m 6.6753392,11.464235 c -0.1677808,0.0022 -0.1004789,-0.520793 -0.5085305,-1.278834 0,0 -10e-8,-1e-6 -10e-8,-1e-6 C 6.0388659,9.9479995 5.850001,9.681959 5.5920895,9.501663 5.4073697,9.3686468 5.176426,9.2690107 4.9208209,9.2257433 4.6988223,9.1874312 4.4559088,9.1929151 4.2070035,9.2427849 3.9875766,9.2880442 3.7672347,9.3680296 3.568834,9.4874076 3.4029027,9.5906978 3.2515108,9.7111141 3.1609558,9.8501604 3.0929854,9.960876 3.0427017,10.077071 3.0588301,10.157347 c -0.00805,0.08359 0.064978,0.199423 0.158413,0.3213 0.5454227,0.646169 1.1967115,1.171559 1.9812895,1.833783 0.032924,0.02269 0.088443,0.07777 0.1621617,0.169057 0,0 2.8e-6,4e-6 2.8e-6,4e-6 0.070518,-0.01046 0.1179802,0.174222 0.1279097,0.55385 0,0 -1.8e-5,3.4e-5 -1.8e-5,3.4e-5 -0.1942066,0.376339 -0.362155,0.545811 -0.4917825,0.509293 0,0 -1.19e-5,-3e-6 -1.19e-5,-3e-6 -0.1379347,0.02725 -0.2237953,0.03395 -0.2554891,0.02557 -0.140018,-0.0072 -0.2470423,-0.02413 -0.321319,-0.03897 -0.1189348,-0.02066 -0.2300261,-0.04275 -0.3362116,-0.06329 10e-8,0 -1.1e-6,0 -1.1e-6,0 -0.246246,-0.04677 -0.4803417,-0.09217 -0.6956303,-0.11131 -0.207368,0.0041 -0.3229138,-0.03066 -0.3016656,-0.004 -0.1790849,0.07142 -0.3606354,0.211791 -0.5596933,0.380962 -0.2214871,0.196273 -0.4218205,0.421606 -0.5910535,0.669665 -0.1616244,0.243472 -0.2944435,0.491122 -0.353674,0.735892 -0.016272,0.0742 -0.028891,0.147708 -0.035823,0.217971 -0.013067,0.132453 -0.0058,0.252064 0.034057,0.344082 -0.00635,-0.03575 -0.040596,-0.06503 -0.1102939,-0.118282 0,0 0,0 0,0 -0.057574,-0.01378 -0.059736,-0.02815 -0.012127,-0.01599 0.1592912,0.01004 0.379991,-0.09046 0.6528956,-0.19729 0.2881247,-0.125562 0.5752606,-0.283243 0.8625785,-0.450088 0,0 10e-7,-2e-6 10e-7,-2e-6 0.2295707,-0.133625 0.3645097,-0.224661 0.6253323,-0.375628 0.092125,-0.05552 0.2090719,-0.116733 0.3540279,-0.173572 0.061646,-0.0432 0.2181544,-0.07389 0.464879,-0.06966 0.2445771,0.02617 0.4494107,0.17197 0.5993691,0.43014 0,0 7e-7,4e-6 7e-7,4e-6 0.079891,0.241253 0.095678,0.400061 0.065702,0.469283 -1.4e-6,-3e-6 -8e-7,2e-6 -8e-7,2e-6 -0.038685,0.26191 -0.1073494,0.452913 -0.1623802,0.580439 -0.07658,0.202985 -0.1639574,0.414657 -0.2312809,0.589418 -0.151786,0.430002 -0.2940106,0.767907 -0.2811971,1.062183 0.00988,0.105366 0.00897,0.181345 0.029626,0.193005 -0.011829,0.02498 0.064451,0.05599 0.1575486,0.09782 -0.1314875,-0.01674 -0.213674,-0.0143 -0.2539148,0.01459 -0.041846,0.0236 -0.055537,0.02887 -0.04002,0.02369 0.043437,-0.02491 0.09756,-0.09578 0.1734243,-0.187596 0.2105297,-0.269442 0.3939254,-0.593097 0.5685229,-0.907177 0.1992043,-0.361173 0.3785616,-0.717165 0.5398754,-1.057268 0.067567,-0.14261 0.1302739,-0.278268 0.1885269,-0.412592 0.037317,-0.08285 0.06866,-0.143519 0.086631,-0.194505 0.3554244,-2.215176 0.6525287,-3.555692 0.8173208,-3.537934 0.1649646,0.01778 0.1689794,1.393886 0.038146,3.692791 -0.029846,0.135397 -0.065911,0.251817 -0.09818,0.355098 -0.049611,0.154209 -0.1033954,0.307127 -0.1605862,0.462337 -0.1366684,0.371321 -0.2951242,0.761524 -0.4791026,1.161561 -0.1548296,0.340367 -0.3412276,0.720789 -0.5911947,1.091933 -0.07749,0.12147 -0.1886958,0.265805 -0.351614,0.412685 -0.054203,0.0528 -0.1431736,0.111497 -0.2700042,0.168556 -0.103796,0.0539 -0.2570241,0.0686 -0.4550362,0.03482 C 4.0180355,18.787782 3.7146752,18.61885 3.4674159,18.311413 3.2782316,18.0266 3.1937544,17.72929 3.1943417,17.462473 c -0.00911,-0.582937 0.1407229,-1.089707 0.3049388,-1.526285 0.066948,-0.193214 0.1512179,-0.418641 0.2105223,-0.592104 0.045573,-0.151502 0.087099,-0.245615 0.080558,-0.282603 0,0 4e-7,3e-6 4e-7,3e-6 -0.020817,-0.01646 -9.81e-4,0.05155 0.042746,0.214222 8e-7,3e-6 1.2e-6,6e-6 1.2e-6,6e-6 0.122226,0.197908 0.2644572,0.304188 0.4428804,0.323138 0.1387099,-0.0076 0.1871399,-0.0019 0.1469157,-0.0058 -0.031807,0.01113 -0.081271,0.04228 -0.1533492,0.08398 -0.3086458,0.187671 -0.2673382,0.17543 -0.6138313,0.386448 0,0 -1.1e-6,2e-6 -1.1e-6,2e-6 -0.3064632,0.187368 -0.6366854,0.373765 -0.9944691,0.537075 -0.2953497,0.147314 -0.6798718,0.290109 -1.1541319,0.323222 -0.1866252,0.01982 -0.4231743,-0.02091 -0.68816085,-0.1469 -3.8e-7,0 -2.92e-6,-10e-7 -2.92e-6,-10e-7 -0.26513593,-0.159825 -0.44293929,-0.378194 -0.52336251,-0.625255 -0.099675,-0.305986 -0.132933,-0.61348 -0.11092212,-0.906672 0.0116818,-0.155606 0.0388669,-0.30629 0.0793716,-0.449676 0.12006855,-0.44236 0.31995576,-0.831074 0.55417769,-1.162045 C 1.0559989,13.290652 1.3345849,12.98394 1.6428992,12.718784 1.899911,12.490745 2.2085126,12.278189 2.5770549,12.12279 c 0.4143941,-0.135662 0.7434766,-0.125363 0.9523263,-0.07657 0.2970493,0.03609 0.5706534,0.09437 0.8183987,0.150169 0,0 1.1e-6,0 1.1e-6,0 0.1106889,0.02449 0.2124373,0.04792 0.3091281,0.06757 0.078577,0.01374 0.1237673,0.02602 0.1380087,0.02521 0.013138,-0.0065 -0.027114,0.0011 -0.1217289,0.01701 0,0 -9.8e-6,-4e-6 -9.8e-6,-4e-6 -0.1054158,-0.04284 -0.2468557,0.113411 -0.4359067,0.465301 0,0 -1.74e-5,3.2e-5 -1.74e-5,3.2e-5 0.016406,0.348901 0.043526,0.503853 0.095447,0.468155 0,0 1.4e-6,10e-7 1.4e-6,10e-7 0.036496,0.04083 0.045192,0.05368 0.0309,0.03541 C 3.6070005,12.600673 2.9163686,11.977611 2.3185862,11.200132 2.0896369,10.920443 1.9513655,10.550604 1.9505501,10.141141 1.9734856,9.7597318 2.1172351,9.4381305 2.3193999,9.1995216 2.5502511,8.922903 2.8238092,8.7284947 3.0959669,8.5987103 3.4177243,8.4413185 3.7507669,8.3526011 4.0717587,8.3187687 4.437287,8.2786881 4.792889,8.3115341 5.1174641,8.4040051 5.4977107,8.512865 5.819525,8.708028 6.0673253,8.9427962 c 0.3395605,0.327889 0.5267654,0.7093019 0.6240634,1.0312493 0,0 2e-7,0 2e-7,0 0.2938312,0.9763435 0.013485,1.4897895 -0.01605,1.4901825 z"
     id="path4383-8"
     inkscape:connector-curvature="0" />
  <path
     style="color:#000000;clip-rule:nonzero;display:inline;overflow:visible;visibility:visible;opacity:1;isolation:auto;mix-blend-mode:normal;color-interpolation:sRGB;color-interpolation-filters:linearRGB;solid-color:#000000;solid-opacity:1;fill:#784421;fill-opacity:1;fill-rule:nonzero;stroke:none;stroke-width:1px;stroke-linecap:butt;stroke-linejoin:miter;stroke-miterlimit:4;stroke-dasharray:none;stroke-dashoffset:0;stroke-opacity:1;color-rendering:auto;image-rendering:auto;shape-rendering:auto;text-rendering:auto;enable-background:accumulate"
     d="m 25.39636,11.566974 c -0.02954,-4.09e-4 -0.309882,-0.513839 -0.01605,-1.490183 0,0 0,0 0,0 0.0973,-0.3219477 0.284503,-0.7033606 0.624064,-1.0312496 0.2478,-0.2347682 0.569614,-0.4299312 0.949861,-0.5387911 0.324575,-0.092471 0.680177,-0.125317 1.045705,-0.085236 0.320992,0.033831 0.654035,0.1225498 0.975792,0.2799416 0.272158,0.1297845 0.545716,0.3241927 0.776567,0.6008113 0.202165,0.2386089 0.345915,0.5602102 0.36885,0.9416192 -8.17e-4,0.409463 -0.139087,0.779302 -0.368036,1.058991 -0.597783,0.777479 -1.288414,1.400541 -2.045017,2.074945 -0.01429,0.01827 -0.0056,0.0054 0.0309,-0.03541 0,0 2e-6,-2e-6 2e-6,-2e-6 0.05192,0.0357 0.07904,-0.119254 0.09545,-0.468155 0,0 -1.8e-5,-3.2e-5 -1.8e-5,-3.2e-5 -0.189049,-0.35189 -0.33049,-0.508142 -0.435905,-0.465301 0,0 -1.1e-5,4e-6 -1.1e-5,4e-6 -0.09461,-0.01593 -0.134866,-0.02352 -0.121728,-0.01701 0.01424,8.17e-4 0.05943,-0.01147 0.138008,-0.02522 0.09669,-0.01965 0.19844,-0.04307 0.309128,-0.06757 0,0 10e-7,0 10e-7,0 0.247746,-0.05579 0.521349,-0.114079 0.818399,-0.150169 0.20885,-0.0488 0.537933,-0.05909 0.952327,0.07657 0.368542,0.155399 0.677144,0.367953 0.934155,0.595994 0.308315,0.265156 0.586901,0.571869 0.824676,0.914454 0.234222,0.330971 0.43411,0.719686 0.554179,1.162045 0.0405,0.143383 0.06769,0.294065 0.07937,0.449668 0.02201,0.293194 -0.01124,0.600691 -0.110922,0.90668 -0.08042,0.247062 -0.258226,0.46543 -0.523362,0.625256 0,0 -3e-6,0 -3e-6,0 -0.264987,0.125992 -0.501536,0.166718 -0.688161,0.146901 -0.474261,-0.03311 -0.858783,-0.175909 -1.154133,-0.323222 C 29.052661,16.54 28.72244,16.353605 28.415977,16.166235 c 0,0 -2e-6,-1e-6 -2e-6,-1e-6 -0.346449,-0.210991 -0.305228,-0.198804 -0.613831,-0.386449 -0.07208,-0.0417 -0.121542,-0.07285 -0.153349,-0.08398 -0.04022,0.0039 0.0082,-0.0018 0.146916,0.0058 0.178423,-0.01895 0.320654,-0.125229 0.44288,-0.323137 0,0 0,-2e-6 0,-2e-6 0.04373,-0.162673 0.06356,-0.230681 0.04275,-0.214228 -10e-7,3e-6 -10e-7,0 -10e-7,0 -0.0065,0.03699 0.03498,0.1311 0.08056,0.282604 0.05931,0.173463 0.143574,0.398889 0.210522,0.592102 0.164215,0.436577 0.31405,0.943346 0.304938,1.526284 5.45e-4,0.266816 -0.08389,0.564126 -0.273074,0.848938 -0.247261,0.307436 -0.550622,0.476367 -0.840353,0.53259 -0.198011,0.03378 -0.351238,0.01908 -0.455034,-0.03482 -0.126831,-0.05706 -0.215801,-0.115756 -0.270004,-0.168555 -0.162919,-0.14688 -0.274124,-0.291214 -0.351615,-0.412685 -0.249967,-0.371143 -0.436364,-0.751564 -0.591195,-1.09193 -0.183978,-0.400037 -0.342434,-0.790237 -0.479102,-1.161559 -0.05719,-0.15521 -0.110976,-0.308128 -0.160586,-0.462335 -0.03227,-0.103281 -0.06833,-0.219701 -0.09818,-0.355099 -0.130834,-2.298903 -0.126819,-3.675015 0.03815,-3.692791 0.164792,-0.01776 0.461897,1.322759 0.817321,3.537935 0.01797,0.05099 0.04931,0.11166 0.08663,0.194505 0.05825,0.134324 0.120959,0.269981 0.188526,0.41259 0.161314,0.340103 0.340672,0.696094 0.539876,1.057265 0.174596,0.314079 0.357992,0.637732 0.568522,0.907174 0.07586,0.09182 0.129986,0.16269 0.173424,0.187596 0.01552,0.0052 0.0018,-8.5e-5 -0.04002,-0.02369 -0.04024,-0.02889 -0.122426,-0.03133 -0.253914,-0.01459 0.0931,-0.04183 0.169379,-0.07284 0.157549,-0.09782 0.02066,-0.01166 0.01974,-0.08763 0.02962,-0.192999 0.01281,-0.294276 -0.129411,-0.632179 -0.281196,-1.062181 -0.06733,-0.174762 -0.154701,-0.386434 -0.231282,-0.589419 -0.05503,-0.127525 -0.123696,-0.318529 -0.16238,-0.580438 0,0 0,-4e-6 0,-4e-6 -0.02998,-0.06922 -0.01419,-0.228028 0.0657,-0.469279 3e-6,-3e-6 3e-6,-7e-6 3e-6,-7e-6 0.149958,-0.258168 0.354792,-0.403974 0.599368,-0.430139 0.246725,-0.0042 0.403234,0.02646 0.46488,0.06966 0.144956,0.05684 0.261904,0.118047 0.354027,0.173572 0.26082,0.150965 0.395765,0.242005 0.625333,0.375629 0,0 1e-6,0 1e-6,0 0.287318,0.166847 0.574454,0.324528 0.862578,0.45009 0.272905,0.106827 0.493605,0.207335 0.652896,0.197289 0.04761,-0.01215 0.04545,0.0022 -0.01212,0.01599 0,0 0,0 0,0 -0.0697,0.05326 -0.103945,0.08253 -0.110295,0.118281 0.03986,-0.09202 0.04712,-0.211633 0.03406,-0.344085 -0.0069,-0.07026 -0.01955,-0.143766 -0.03582,-0.217969 -0.05923,-0.24477 -0.192048,-0.49242 -0.353673,-0.735891 -0.169233,-0.248059 -0.369566,-0.473392 -0.591053,-0.669666 -0.199059,-0.16917 -0.38061,-0.309539 -0.559694,-0.380962 0.02125,-0.02669 -0.0943,0.008 -0.301665,0.004 -0.215289,0.01913 -0.449384,0.06454 -0.695631,0.111309 0,0 -10e-7,0 -10e-7,0 -0.106186,0.02054 -0.217277,0.04263 -0.336211,0.06329 -0.07428,0.01484 -0.181302,0.03172 -0.321319,0.03897 -0.03169,0.0084 -0.117556,0.0017 -0.25549,-0.02557 0,0 -1.1e-5,2e-6 -1.1e-5,2e-6 -0.129628,0.03652 -0.297576,-0.132953 -0.491782,-0.509292 0,0 -2e-5,-3.4e-5 -2e-5,-3.4e-5 0.0099,-0.379628 0.05739,-0.564314 0.12791,-0.553851 0,0 3e-6,-4e-6 3e-6,-4e-6 0.07372,-0.09128 0.129238,-0.146361 0.162162,-0.169057 0.784578,-0.662224 1.435867,-1.187614 1.981289,-1.833782 0.09343,-0.121877 0.166463,-0.237714 0.158413,-0.3213 0.01613,-0.08028 -0.03416,-0.196471 -0.102126,-0.307187 C 28.82019,9.8138606 28.668797,9.6934444 28.502866,9.5901542 28.304465,9.4707762 28.084124,9.3907907 27.864697,9.3455315 c -0.248906,-0.04987 -0.491819,-0.055354 -0.713818,-0.017042 -0.255604,0.043267 -0.486548,0.1429035 -0.671268,0.2759197 -0.257912,0.1802959 -0.446776,0.4463364 -0.574719,0.6837364 0,0 0,2e-6 0,2e-6 -0.408051,0.758041 -0.34075,1.281074 -0.508531,1.278834 z"
     id="path4383-8-6"
     inkscape:connector-curvature="0" />
  <circle
     style="opacity:0.98000004;fill:#d7976e;fill-opacity:1;fill-rule:evenodd;stroke:#784421;stroke-width:1;stroke-linecap:round;stroke-linejoin:miter;stroke-miterlimit:1;stroke-dasharray:none;stroke-opacity:1"
     id="path4136"
     cx="16.005997"
     cy="13.389975"
     r="10.218389" />
  <ellipse
     style="opacity:0.98000004;fill:#333333;fill-opacity:1;fill-rule:evenodd;stroke:none;stroke-width:1;stroke-linecap:round;stroke-linejoin:miter;stroke-miterlimit:1;stroke-dasharray:none;stroke-opacity:1"
     id="path4138"
     cx="12.950212"
     cy="10.12982"
     rx="2.2383137"
     ry="3.2601526" />
  <path
     style="opacity:0.98000004;fill:#ffffff;fill-opacity:1;fill-rule:evenodd;stroke:#000000;stroke-width:0.06084562;stroke-linecap:round;stroke-linejoin:miter;stroke-miterlimit:1;stroke-dasharray:none;stroke-opacity:1"
     d="m 12.75965,6.915262 a 1.1021762,1.3204569 0 0 0 -1.103516,1.320312 1.1021762,1.3204569 0 0 0 0.615235,1.181641 0.5397535,0.46272805 0 0 0 -0.314453,0.419922 0.5397535,0.46272805 0 0 0 0.541015,0.46289 0.5397535,0.46272805 0 0 0 0.539063,-0.46289 0.5397535,0.46272805 0 0 0 -0.125,-0.294922 1.1021762,1.3204569 0 0 0 0.949218,-1.306641 1.1021762,1.3204569 0 0 0 -1.101562,-1.320312 z"
     id="path4138-1"
     inkscape:connector-curvature="0" />
  <ellipse
     style="opacity:0.98000004;fill:#333333;fill-opacity:1;fill-rule:evenodd;stroke:none;stroke-width:1;stroke-linecap:round;stroke-linejoin:miter;stroke-miterlimit:1;stroke-dasharray:none;stroke-opacity:1"
     id="path4138-6"
     cx="19.334272"
     cy="10.12982"
     rx="2.2383137"
     ry="3.2601526" />
  <path
     style="opacity:0.98000004;fill:#ffffff;fill-opacity:1;fill-rule:evenodd;stroke:#000000;stroke-width:0.06084562;stroke-linecap:round;stroke-linejoin:miter;stroke-miterlimit:1;stroke-dasharray:none;stroke-opacity:1"
     d="m 19.06823,6.99376 a 1.1021762,1.3204569 0 0 0 -1.103516,1.320313 1.1021762,1.3204569 0 0 0 0.615235,1.18164 0.5397535,0.46272805 0 0 0 -0.314453,0.419922 0.5397535,0.46272805 0 0 0 0.541015,0.46289 0.5397535,0.46272805 0 0 0 0.539063,-0.46289 0.5397535,0.46272805 0 0 0 -0.125,-0.294922 1.1021762,1.3204569 0 0 0 0.949218,-1.30664 A 1.1021762,1.3204569 0 0 0 19.06823,6.99376 Z"
     id="path4138-1-9"
     inkscape:connector-curvature="0" />
  <path
     style="opacity:0.98000004;fill:#ffd414;fill-opacity:1;fill-rule:evenodd;stroke:none;stroke-width:1;stroke-linecap:round;stroke-linejoin:miter;stroke-miterlimit:1;stroke-dasharray:none;stroke-opacity:1"
     d="m -12.364822,19.60964 -3.381077,3.342729 -3.342731,-3.381076 z"
     id="rect4239-7-8"
     inkscape:connector-curvature="0" />
  <path
     style="opacity:1;fill:#ef5500;fill-opacity:1;fill-rule:evenodd;stroke:none;stroke-width:1;stroke-linecap:round;stroke-linejoin:miter;stroke-miterlimit:1;stroke-dasharray:none;stroke-opacity:1"
     d="m -12.336241,19.609635 -3.361752,-3.362172 -3.362165,3.361755 z"
     id="rect4239-2-1-5"
     inkscape:connector-curvature="0" />
  <g
     id="g4381"
     transform="translate(17.969606,-21.391229)">
    <rect
       transform="matrix(0.7065076,0.70770546,-0.70770546,0.7065076,0,0)"
       inkscape:transform-center-y="-0.0016705024"
       inkscape:transform-center-x="-3.5290047"
       y="25.960722"
       x="23.229658"
       height="5"
       width="5"
       id="rect4331-8"
       style="opacity:1;fill:#ef5500;fill-opacity:1;fill-rule:nonzero;stroke:none;stroke-width:1;stroke-linecap:round;stroke-linejoin:miter;stroke-miterlimit:1;stroke-dasharray:none;stroke-opacity:1" />
    <rect
       transform="matrix(0.7065076,0.70770546,-0.70770546,0.7065076,0,0)"
       inkscape:transform-center-y="-0.0011818947"
       inkscape:transform-center-x="-2.4953846"
       y="26.692955"
       x="23.961891"
       height="3.5355351"
       width="3.5355351"
       id="rect4331-8-4"
       style="opacity:1;fill:#ffd414;fill-opacity:1;fill-rule:nonzero;stroke:none;stroke-width:1;stroke-linecap:round;stroke-linejoin:miter;stroke-miterlimit:1;stroke-dasharray:none;stroke-opacity:1" />
    <circle
       r="0.050000001"
       cy="38.314621"
       cx="-4.4636097"
       style="fill:#000000;stroke:none"
       id="path4365" />
    <circle
       r="0.050000001"
       cy="38.318855"
       cx="0.53639114"
       style="fill:#000000;stroke:none"
       id="path4367" />
    <path
       inkscape:connector-curvature="0"
       id="path4373"
       d="m -4.545499,38.317036 5.18899756,-5.84e-4"
       style="fill:none;fill-rule:evenodd;stroke:#ef5500;stroke-width:0.38403428px;stroke-linecap:butt;stroke-linejoin:miter;stroke-opacity:1" />
  </g>
</svg>
