<?xml version="1.0" encoding="UTF-8" standalone="no"?>
<svg
   xmlns:dc="http://purl.org/dc/elements/1.1/"
   xmlns:cc="http://creativecommons.org/ns#"
   xmlns:rdf="http://www.w3.org/1999/02/22-rdf-syntax-ns#"
   xmlns:svg="http://www.w3.org/2000/svg"
   xmlns="http://www.w3.org/2000/svg"
   xmlns:xlink="http://www.w3.org/1999/xlink"
   version="1.1"
   id="svg2"
   viewBox="0 0 226.77165 226.77165"
   height="64mm"
   width="64mm">
  <defs
     id="defs4">
    <linearGradient
       id="linearGradient4299-4">
      <stop
         id="stop4317"
         offset="0"
         style="stop-color:#ffcd07;stop-opacity:0;" />
      <stop
         id="stop4319"
         offset="1"
         style="stop-color:#ffcd07;stop-opacity:1;" />
    </linearGradient>
    <radialGradient
       spreadMethod="reflect"
       gradientUnits="userSpaceOnUse"
       gradientTransform="matrix(-0.00840471,0.49050045,-0.43805821,-0.00750615,563.28141,1176.1638)"
       r="35.354767"
       fy="1038.3916"
       fx="-375.28308"
       cy="1038.3916"
       cx="-375.28308"
       id="radialGradient4305"
       xlink:href="#linearGradient4299-4" />
  </defs>
  <metadata
     id="metadata7">
    <rdf:RDF>
      <cc:Work
         rdf:about="">
        <dc:format>image/svg+xml</dc:format>
        <dc:type
           rdf:resource="http://purl.org/dc/dcmitype/StillImage" />
        <dc:title></dc:title>
      </cc:Work>
    </rdf:RDF>
  </metadata>
  <g
     transform="translate(0,-825.59055)"
     id="layer1">
    <g
       transform="matrix(0.95570464,0,0,0.95570464,5.8102139,26.300458)"
       id="g4433">
      <path
         style="color:#000000;clip-rule:nonzero;display:inline;overflow:visible;visibility:visible;opacity:1;isolation:auto;mix-blend-mode:normal;color-interpolation:sRGB;color-interpolation-filters:linearRGB;solid-color:#000000;solid-opacity:1;fill:#784421;fill-opacity:1;fill-rule:nonzero;stroke:none;stroke-width:1px;stroke-linecap:butt;stroke-linejoin:miter;stroke-miterlimit:4;stroke-dasharray:none;stroke-dashoffset:0;stroke-opacity:1;color-rendering:auto;image-rendering:auto;shape-rendering:auto;text-rendering:auto;enable-background:accumulate"
         d="m 42.944263,940.3707 c -1.231462,0.0164 -0.737486,-3.82247 -3.732466,-9.38627 0,0 -10e-7,-10e-6 -10e-7,-10e-6 -0.939062,-1.74245 -2.325275,-3.69511 -4.218271,-5.01843 -1.355789,-0.9763 -3.050849,-1.7076 -4.926916,-2.02517 -1.629405,-0.2812 -3.41232,-0.24095 -5.239212,0.12508 -1.61053,0.33219 -3.227775,0.91926 -4.683979,1.79546 -1.217887,0.75812 -2.32906,1.64194 -2.993707,2.6625 -0.498883,0.81262 -0.867951,1.66546 -0.749573,2.25466 -0.05908,0.6135 0.476921,1.46371 1.162705,2.35825 4.003244,4.74269 8.783515,8.5989 14.542089,13.45943 0.241654,0.16658 0.649144,0.57082 1.19022,1.24083 0,0 2e-5,3e-5 2e-5,3e-5 0.517584,-0.0768 0.865941,1.27874 0.93882,4.0651 0,0 -1.32e-4,2.5e-4 -1.32e-4,2.5e-4 -1.42542,2.76222 -2.658112,4.00609 -3.60954,3.73806 0,0 -8.8e-5,-2e-5 -8.8e-5,-2e-5 -1.0124,0.19999 -1.642592,0.24921 -1.875215,0.18764 -1.027692,-0.0532 -1.813219,-0.17714 -2.358388,-0.28605 -0.872947,-0.15167 -1.688325,-0.31381 -2.467696,-0.46455 1e-6,0 -8e-6,0 -8e-6,0 -1.807374,-0.34328 -3.525568,-0.67653 -5.105724,-0.81698 -1.522021,0.0298 -2.370093,-0.22506 -2.214138,-0.0292 -1.314431,0.52422 -2.646959,1.55449 -4.107986,2.79615 -1.625651,1.44059 -3.0960393,3.09447 -4.3381603,4.91515 -1.186276,1.78701 -2.1611298,3.60469 -2.5958647,5.40123 -0.1194345,0.54464 -0.2120521,1.08414 -0.2629299,1.59985 -0.095908,0.97216 -0.042571,1.85007 0.2499697,2.52546 -0.04661,-0.26241 -0.2979631,-0.47727 -0.809525,-0.86816 0,0 -3e-7,0 -3e-7,0 -0.422576,-0.10111 -0.4384468,-0.20663 -0.089008,-0.11738 1.1691512,0.0737 2.7890239,-0.66396 4.7920637,-1.44805 2.1147515,-0.92159 4.2222455,-2.07892 6.3310755,-3.30352 0,0 7e-6,-10e-6 7e-6,-10e-6 1.684982,-0.98077 2.675395,-1.64895 4.589757,-2.757 0.676168,-0.40754 1.534527,-0.85679 2.598462,-1.27397 0.452461,-0.31708 1.60119,-0.54231 3.412077,-0.51127 1.795125,0.19205 3.298544,1.26221 4.399195,3.1571 0,0 5e-6,3e-5 5e-6,3e-5 0.586378,1.77073 0.702252,2.93633 0.482232,3.4444 -10e-6,-2e-5 -6e-6,2e-5 -6e-6,2e-5 -0.283934,1.92234 -0.787913,3.32425 -1.191823,4.26025 -0.562077,1.48985 -1.2034,3.04346 -1.697535,4.32616 -1.114065,3.15609 -2.157952,5.63621 -2.063905,7.79611 0.07253,0.77336 0.06584,1.33102 0.217448,1.4166 -0.08682,0.18333 0.473055,0.41095 1.156361,0.71796 -0.96508,-0.12285 -1.568305,-0.10498 -1.863661,0.10707 -0.307139,0.17323 -0.407629,0.2119 -0.293733,0.17385 0.318818,-0.1828 0.716063,-0.70297 1.272884,-1.3769 1.545227,-1.97763 2.891298,-4.35316 4.172793,-6.65842 1.462101,-2.6509 2.778532,-5.26378 3.962528,-7.76004 0.495923,-1.04671 0.956173,-2.0424 1.383733,-3.0283 0.273899,-0.60806 0.503947,-1.05339 0.635849,-1.42761 2.608712,-16.25875 4.789371,-26.09775 5.998897,-25.96741 1.210792,0.13047 1.24026,10.23072 0.279983,27.10401 -0.21906,0.99378 -0.483766,1.84827 -0.72061,2.60632 -0.36413,1.13185 -0.758892,2.25422 -1.178656,3.39342 -1.003106,2.72539 -2.166126,5.58936 -3.516474,8.52552 -1.136404,2.49819 -2.504511,5.29038 -4.339197,8.01447 -0.568756,0.89155 -1.384972,1.95093 -2.580744,3.02899 -0.397835,0.38753 -1.050853,0.81835 -1.981753,1.23715 -0.761832,0.39559 -1.886482,0.5035 -3.339833,0.25554 -2.126552,-0.41268 -4.353129,-1.65259 -6.16794,-3.90909 -1.388558,-2.09044 -2.008596,-4.27261 -2.004285,-6.23097 -0.06688,-4.27859 1.032865,-7.99813 2.238162,-11.20249 0.491378,-1.41813 1.109895,-3.0727 1.545172,-4.34587 0.334493,-1.11198 0.639278,-1.80274 0.591274,-2.07422 0,0 3e-6,2e-5 3e-6,2e-5 -0.152788,-0.12078 -0.0072,0.37838 0.313743,1.57233 6e-6,2e-5 9e-6,4e-5 9e-6,4e-5 0.897103,1.45259 1.941039,2.23265 3.250613,2.37174 1.018091,-0.0556 1.373553,-0.0136 1.078319,-0.0425 -0.233452,0.0817 -0.596506,0.31035 -1.125539,0.61639 -2.26537,1.37745 -1.962184,1.28761 -4.505343,2.83642 0,0 -8e-6,10e-6 -8e-6,10e-6 -2.249351,1.37523 -4.673086,2.74333 -7.299114,3.94198 -2.167781,1.08124 -4.9900607,2.12931 -8.470992,2.37235 -1.3697748,0.14545 -3.1059763,-0.15347 -5.05090073,-1.0782 -2.8e-6,0 -2.143e-5,-10e-6 -2.143e-5,-10e-6 -1.94602064,-1.17307 -3.25104554,-2.77583 -3.84132864,-4.58919 -0.7315851,-2.24585 -0.9756895,-4.50276 -0.8141361,-6.65471 0.085741,-1.1421 0.2852719,-2.24808 0.5825646,-3.30049 0.8812683,-3.24679 2.3483823,-6.09984 4.06750314,-8.52907 1.74520556,-2.51448 3.78994616,-4.76566 6.05288326,-6.71183 1.8863923,-1.67374 4.1514379,-3.23384 6.8564309,-4.37442 3.041532,-0.99572 5.456902,-0.92013 6.989798,-0.56199 2.180256,0.26489 4.18843,0.69269 6.006809,1.1022 0,0 8e-6,0 8e-6,0 0.812424,0.17976 1.559228,0.3517 2.26891,0.49592 0.576734,0.10084 0.908416,0.19095 1.012944,0.18507 0.09643,-0.0478 -0.199008,0.008 -0.893455,0.12486 0,0 -7.2e-5,-3e-5 -7.2e-5,-3e-5 -0.773721,-0.31444 -1.811849,0.8324 -3.199428,3.41517 0,0 -1.28e-4,2.4e-4 -1.28e-4,2.4e-4 0.120416,2.56083 0.319471,3.69813 0.700555,3.43612 0,0 10e-6,10e-6 10e-6,10e-6 0.267867,0.29965 0.331693,0.39401 0.226801,0.25988 -5.553251,-4.94993 -10.622288,-9.52302 -15.009837,-15.22949 -1.6804212,-2.05284 -2.6952929,-4.76735 -2.7012777,-7.77269 0.1683398,-2.79943 1.2234196,-5.15989 2.7072497,-6.91121 1.694381,-2.0303 3.702218,-3.4572 5.699776,-4.40978 2.361606,-1.15521 4.806042,-1.80637 7.162028,-2.05469 2.682872,-0.29418 5.292887,-0.0531 7.675174,0.62561 2.790899,0.799 5.152923,2.23144 6.971705,3.95457 2.492275,2.40661 3.866305,5.20607 4.580444,7.56907 0,0 1e-6,0 1e-6,0 2.156636,7.16608 0.09898,10.93462 -0.1178,10.93751 z"
         id="path4383-8" />
      <path
         style="color:#000000;clip-rule:nonzero;display:inline;overflow:visible;visibility:visible;opacity:1;isolation:auto;mix-blend-mode:normal;color-interpolation:sRGB;color-interpolation-filters:linearRGB;solid-color:#000000;solid-opacity:1;fill:#784421;fill-opacity:1;fill-rule:nonzero;stroke:none;stroke-width:1px;stroke-linecap:butt;stroke-linejoin:miter;stroke-miterlimit:4;stroke-dasharray:none;stroke-dashoffset:0;stroke-opacity:1;color-rendering:auto;image-rendering:auto;shape-rendering:auto;text-rendering:auto;enable-background:accumulate"
         d="m 180.35111,941.12477 c -0.21678,-0.003 -2.27444,-3.77143 -0.1178,-10.93751 0,0 0,0 0,0 0.71414,-2.363 2.08817,-5.16246 4.58045,-7.56907 1.81878,-1.72313 4.1808,-3.15557 6.9717,-3.95457 2.38229,-0.67871 4.9923,-0.91979 7.67517,-0.62561 2.35599,0.24831 4.80043,0.89948 7.16203,2.05469 1.99756,0.95258 4.0054,2.37948 5.69978,4.40978 1.48383,1.75132 2.53891,4.11178 2.70725,6.91121 -0.006,3.00534 -1.02086,5.71985 -2.70128,7.77269 -4.38755,5.70647 -9.45658,10.27956 -15.00983,15.22949 -0.1049,0.13413 -0.0411,0.0398 0.2268,-0.25988 0,0 1e-5,-10e-6 1e-5,-10e-6 0.38108,0.26201 0.58014,-0.87529 0.70055,-3.43612 0,0 -1.3e-4,-2.4e-4 -1.3e-4,-2.4e-4 -1.38757,-2.58277 -2.4257,-3.72961 -3.19942,-3.41517 0,0 -8e-5,3e-5 -8e-5,3e-5 -0.69444,-0.11691 -0.98988,-0.17262 -0.89345,-0.12486 0.10453,0.006 0.43621,-0.0842 1.01294,-0.18507 0.70968,-0.14422 1.45649,-0.31616 2.26891,-0.49592 0,0 1e-5,0 1e-5,0 1.81838,-0.40951 3.82655,-0.83731 6.00681,-1.1022 1.5329,-0.35814 3.94827,-0.43373 6.9898,0.56199 2.70499,1.14058 4.97004,2.70067 6.85643,4.37442 2.26294,1.94617 4.30768,4.19735 6.05288,6.71183 1.71912,2.42923 3.18624,5.28228 4.06751,8.52907 0.29728,1.05239 0.49681,2.15835 0.58256,3.30043 0.16156,2.15196 -0.0825,4.4089 -0.81413,6.65477 -0.59029,1.81336 -1.89531,3.41612 -3.84133,4.5892 0,0 -2e-5,0 -2e-5,0 -1.94493,0.92474 -3.68113,1.22366 -5.0509,1.07821 -3.48094,-0.24305 -6.30322,-1.29112 -8.471,-2.37236 -2.62603,-1.19865 -5.04976,-2.56674 -7.29911,-3.94198 0,0 -1e-5,-1e-5 -1e-5,-1e-5 -2.54284,-1.54861 -2.24029,-1.45916 -4.50534,-2.83642 -0.52904,-0.30604 -0.89209,-0.53466 -1.12554,-0.61639 -0.29524,0.0289 0.0602,-0.0131 1.07832,0.0425 1.30957,-0.13909 2.35351,-0.91915 3.25061,-2.37173 0,0 0,-2e-5 0,-2e-5 0.32096,-1.19397 0.46654,-1.69313 0.31376,-1.57237 -10e-6,2e-5 -10e-6,0 -10e-6,0 -0.048,0.27148 0.25678,0.96224 0.59128,2.07423 0.43528,1.27317 1.05379,2.92773 1.54517,4.34586 1.20529,3.20435 2.30504,6.92388 2.23816,11.20248 0.004,1.95835 -0.61573,4.14052 -2.00429,6.23096 -1.81482,2.25649 -4.0414,3.49639 -6.16794,3.90905 -1.45335,0.24796 -2.57799,0.14005 -3.33982,-0.25554 -0.9309,-0.4188 -1.58392,-0.84961 -1.98175,-1.23714 -1.19578,-1.07806 -2.01199,-2.13743 -2.58075,-3.02899 -1.83469,-2.72408 -3.20279,-5.51626 -4.3392,-8.01445 -1.35035,-2.93615 -2.51337,-5.80011 -3.51647,-8.5255 -0.41977,-1.1392 -0.81453,-2.26157 -1.17866,-3.39341 -0.23684,-0.75805 -0.50155,-1.61254 -0.72061,-2.60632 -0.96028,-16.87328 -0.93081,-26.97354 0.27998,-27.10401 1.20953,-0.13034 3.39019,9.70866 5.9989,25.96741 0.1319,0.37422 0.36195,0.81955 0.63585,1.42761 0.42756,0.9859 0.88781,1.98158 1.38373,3.02829 1.184,2.49626 2.50043,5.10913 3.96253,7.76002 1.28149,2.30525 2.62756,4.68077 4.17279,6.65839 0.55682,0.67393 0.95406,1.1941 1.27288,1.3769 0.1139,0.038 0.0134,-6.2e-4 -0.29373,-0.17385 -0.29535,-0.21205 -0.89857,-0.22992 -1.86365,-0.10707 0.68331,-0.30701 1.24319,-0.53462 1.15636,-0.71795 0.15161,-0.0856 0.14491,-0.64322 0.21744,-1.41656 0.094,-2.1599 -0.94984,-4.64001 -2.0639,-7.7961 -0.49414,-1.2827 -1.13546,-2.83631 -1.69754,-4.32616 -0.40391,-0.936 -0.90789,-2.33791 -1.19182,-4.26025 0,0 0,-3e-5 0,-3e-5 -0.22003,-0.50806 -0.10415,-1.67366 0.48221,-3.44437 2e-5,-2e-5 2e-5,-5e-5 2e-5,-5e-5 1.10065,-1.89488 2.60407,-2.96505 4.39919,-3.1571 1.81089,-0.031 2.95962,0.19419 3.41208,0.51127 1.06394,0.41718 1.9223,0.86643 2.59846,1.27397 1.91434,1.10804 2.9048,1.77625 4.58976,2.75701 0,0 1e-5,0 1e-5,0 2.10883,1.22461 4.21632,2.38194 6.33107,3.30353 2.00304,0.78408 3.62292,1.52178 4.79207,1.44804 0.34943,-0.0892 0.33356,0.0163 -0.089,0.11739 0,0 0,0 0,0 -0.51156,0.39089 -0.76292,0.60574 -0.80953,0.86815 0.29255,-0.67539 0.34588,-1.55332 0.24997,-2.52548 -0.0509,-0.51571 -0.14349,-1.0552 -0.26293,-1.59983 -0.43473,-1.79654 -1.40958,-3.61422 -2.59586,-5.40123 -1.24212,-1.82068 -2.71251,-3.47456 -4.33816,-4.91515 -1.46103,-1.24166 -2.79356,-2.27193 -4.10799,-2.79615 0.15596,-0.1959 -0.69211,0.059 -2.21413,0.0292 -1.58016,0.14045 -3.29835,0.4737 -5.10573,0.81698 0,0 -10e-6,0 -10e-6,0 -0.77937,0.15074 -1.59475,0.31288 -2.46769,0.46455 -0.54517,0.10891 -1.3307,0.23284 -2.35839,0.28605 -0.23262,0.0616 -0.86282,0.0123 -1.87522,-0.18764 0,0 -8e-5,2e-5 -8e-5,2e-5 -0.95143,0.26803 -2.18412,-0.97584 -3.60954,-3.73806 0,0 -1.4e-4,-2.5e-4 -1.4e-4,-2.5e-4 0.0729,-2.78636 0.42124,-4.1419 0.93882,-4.0651 0,0 2e-5,-3e-5 2e-5,-3e-5 0.54108,-0.67001 0.94857,-1.07425 1.19022,-1.24083 5.75858,-4.86053 10.53885,-8.71674 14.54209,-13.45943 0.68578,-0.89454 1.22179,-1.74475 1.1627,-2.35825 0.11838,-0.5892 -0.25069,-1.44204 -0.74957,-2.25466 -0.66464,-1.02056 -1.77582,-1.90438 -2.99371,-2.6625 -1.4562,-0.8762 -3.07344,-1.46327 -4.68397,-1.79546 -1.8269,-0.36603 -3.60981,-0.40628 -5.23922,-0.12508 -1.87606,0.31757 -3.57112,1.04887 -4.92691,2.02517 -1.893,1.32332 -3.27921,3.27598 -4.21827,5.01843 0,0 0,1e-5 0,1e-5 -2.99498,5.5638 -2.50101,9.40271 -3.73247,9.38627 z"
         id="path4383-8-6" />
      <circle
         style="opacity:0.98000004;fill:#deaa87;fill-opacity:1;fill-rule:evenodd;stroke:none;stroke-width:1;stroke-linecap:round;stroke-linejoin:miter;stroke-miterlimit:1;stroke-dasharray:none;stroke-opacity:1"
         id="path4136"
         cx="111.42857"
         cy="954.50507"
         r="75" />
      <ellipse
         style="opacity:0.98000004;fill:#000000;fill-opacity:1;fill-rule:evenodd;stroke:none;stroke-width:1;stroke-linecap:round;stroke-linejoin:miter;stroke-miterlimit:1;stroke-dasharray:none;stroke-opacity:1"
         id="path4138"
         cx="89"
         cy="930.57648"
         rx="16.428572"
         ry="23.928572" />
      <ellipse
         style="opacity:0.98000004;fill:#ffffff;fill-opacity:1;fill-rule:evenodd;stroke:#000000;stroke-width:0.70716947;stroke-linecap:round;stroke-linejoin:miter;stroke-miterlimit:1;stroke-dasharray:none;stroke-opacity:1"
         id="path4138-1"
         cx="923.2229"
         cy="-89"
         rx="16.574987"
         ry="11.860702"
         transform="matrix(0,1,-1,0,0,0)" />
      <circle
         style="opacity:0.98000004;fill:#ffffff;fill-opacity:1;fill-rule:evenodd;stroke:none;stroke-width:1;stroke-linecap:round;stroke-linejoin:miter;stroke-miterlimit:1;stroke-dasharray:none;stroke-opacity:1"
         id="path4155"
         cx="86.182251"
         cy="943.32391"
         r="5.8083773" />
      <ellipse
         style="opacity:0.98000004;fill:#000000;fill-opacity:1;fill-rule:evenodd;stroke:none;stroke-width:1;stroke-linecap:round;stroke-linejoin:miter;stroke-miterlimit:1;stroke-dasharray:none;stroke-opacity:1"
         id="path4138-6"
         cx="135.85715"
         cy="930.57648"
         rx="16.428572"
         ry="23.928572" />
      <ellipse
         style="opacity:0.98000004;fill:#ffffff;fill-opacity:1;fill-rule:evenodd;stroke:#000000;stroke-width:0.70716947;stroke-linecap:round;stroke-linejoin:miter;stroke-miterlimit:1;stroke-dasharray:none;stroke-opacity:1"
         id="path4138-1-6"
         cx="923.2229"
         cy="-135.85715"
         rx="16.574987"
         ry="11.860702"
         transform="matrix(0,1,-1,0,0,0)" />
      <circle
         style="opacity:0.98000004;fill:#ffffff;fill-opacity:1;fill-rule:evenodd;stroke:none;stroke-width:1;stroke-linecap:round;stroke-linejoin:miter;stroke-miterlimit:1;stroke-dasharray:none;stroke-opacity:1"
         id="path4155-0"
         cx="133.0394"
         cy="943.32391"
         r="5.8083773" />
      <path
         style="opacity:0.98000004;fill:#ffd414;fill-opacity:1;fill-rule:evenodd;stroke:none;stroke-width:1;stroke-linecap:round;stroke-linejoin:miter;stroke-miterlimit:1;stroke-dasharray:none;stroke-opacity:1"
         d="M 126.8142,984.29393 111.42857,999.50506 96.217437,984.11943 Z"
         id="rect4239" />
      <path
         style="opacity:1;fill:url(#radialGradient4305);fill-opacity:1;fill-rule:evenodd;stroke:none;stroke-width:1;stroke-linecap:round;stroke-linejoin:miter;stroke-miterlimit:1;stroke-dasharray:none;stroke-opacity:1"
         d="M 126.94426,984.29391 111.64657,968.9943 96.346996,984.29201 Z"
         id="rect4239-2" />
    </g>
  </g>
</svg>
