<?xml version="1.0" encoding="UTF-8" standalone="no"?>
<svg
   xmlns:dc="http://purl.org/dc/elements/1.1/"
   xmlns:cc="http://creativecommons.org/ns#"
   xmlns:rdf="http://www.w3.org/1999/02/22-rdf-syntax-ns#"
   xmlns:svg="http://www.w3.org/2000/svg"
   xmlns="http://www.w3.org/2000/svg"
   xmlns:xlink="http://www.w3.org/1999/xlink"
   xmlns:sodipodi="http://sodipodi.sourceforge.net/DTD/sodipodi-0.dtd"
   xmlns:inkscape="http://www.inkscape.org/namespaces/inkscape"
   version="1.1"
   id="svg2"
   viewBox="0 0 226.77165 226.77165"
   height="64mm"
   width="64mm"
   inkscape:version="0.91 r13725"
   sodipodi:docname="HOOhoo.svg">
  <sodipodi:namedview
     pagecolor="#ffffff"
     bordercolor="#666666"
     borderopacity="1"
     objecttolerance="10"
     gridtolerance="10"
     guidetolerance="10"
     inkscape:pageopacity="0"
     inkscape:pageshadow="2"
     inkscape:window-width="1440"
     inkscape:window-height="849"
     id="namedview22"
     showgrid="false"
     inkscape:zoom="0.35326819"
     inkscape:cx="232.98997"
     inkscape:cy="-42.843333"
     inkscape:window-x="0"
     inkscape:window-y="0"
     inkscape:window-maximized="1"
     inkscape:current-layer="svg2" />
  <defs
     id="defs4">
    <linearGradient
       id="linearGradient4299-4">
      <stop
         id="stop4317"
         offset="0"
         style="stop-color:#ffcd07;stop-opacity:0;" />
      <stop
         id="stop4319"
         offset="1"
         style="stop-color:#ffcd07;stop-opacity:1;" />
    </linearGradient>
    <radialGradient
       spreadMethod="reflect"
       gradientUnits="userSpaceOnUse"
       gradientTransform="matrix(-0.00803242,0.46877356,-0.41865426,-0.00717366,544.14087,324.77511)"
       r="35.354767"
       fy="1038.3916"
       fx="-375.28308"
       cy="1038.3916"
       cx="-375.28308"
       id="radialGradient4305"
       xlink:href="#linearGradient4299-4" />
  </defs>
  <metadata
     id="metadata7">
    <rdf:RDF>
      <cc:Work
         rdf:about="">
        <dc:format>image/svg+xml</dc:format>
        <dc:type
           rdf:resource="http://purl.org/dc/dcmitype/StillImage" />
        <dc:title />
      </cc:Work>
    </rdf:RDF>
  </metadata>
  <circle
     style="opacity:0.98000004;fill:#deaa87;fill-opacity:1;fill-rule:evenodd;stroke:none;stroke-width:1;stroke-linecap:round;stroke-linejoin:miter;stroke-miterlimit:1;stroke-dasharray:none;stroke-opacity:1"
     id="path4136"
     cx="112.30302"
     cy="112.93483"
     r="71.677849" />
  <ellipse
     style="opacity:0.98000004;fill:#000000;fill-opacity:1;fill-rule:evenodd;stroke:none;stroke-width:1;stroke-linecap:round;stroke-linejoin:miter;stroke-miterlimit:1;stroke-dasharray:none;stroke-opacity:1"
     id="path4138"
     cx="90.867928"
     cy="90.06617"
     rx="15.700862"
     ry="22.868647" />
  <ellipse
     style="opacity:0.98000004;fill:#ffffff;fill-opacity:1;fill-rule:evenodd;stroke:#000000;stroke-width:0.67584515;stroke-linecap:round;stroke-linejoin:miter;stroke-miterlimit:1;stroke-dasharray:none;stroke-opacity:1"
     id="path4138-1"
     cx="83.038322"
     cy="-90.867928"
     rx="15.840793"
     ry="11.335327"
     transform="matrix(0,1,-1,0,0,0)" />
  <circle
     style="opacity:0.98000004;fill:#ffffff;fill-opacity:1;fill-rule:evenodd;stroke:none;stroke-width:1;stroke-linecap:round;stroke-linejoin:miter;stroke-miterlimit:1;stroke-dasharray:none;stroke-opacity:1"
     id="path4155"
     cx="88.174988"
     cy="102.24895"
     r="5.5510931" />
  <ellipse
     style="opacity:0.98000004;fill:#000000;fill-opacity:1;fill-rule:evenodd;stroke:none;stroke-width:1;stroke-linecap:round;stroke-linejoin:miter;stroke-miterlimit:1;stroke-dasharray:none;stroke-opacity:1"
     id="path4138-6"
     cx="135.64952"
     cy="90.06617"
     rx="15.700862"
     ry="22.868647" />
  <ellipse
     style="opacity:0.98000004;fill:#ffffff;fill-opacity:1;fill-rule:evenodd;stroke:#000000;stroke-width:0.67584515;stroke-linecap:round;stroke-linejoin:miter;stroke-miterlimit:1;stroke-dasharray:none;stroke-opacity:1"
     id="path4138-1-6"
     cx="83.038322"
     cy="-135.64952"
     rx="15.840793"
     ry="11.335327"
     transform="matrix(0,1,-1,0,0,0)" />
  <circle
     style="opacity:0.98000004;fill:#ffffff;fill-opacity:1;fill-rule:evenodd;stroke:none;stroke-width:1;stroke-linecap:round;stroke-linejoin:miter;stroke-miterlimit:1;stroke-dasharray:none;stroke-opacity:1"
     id="path4155-0"
     cx="132.95659"
     cy="102.24895"
     r="5.5510931" />
  <path
     id="path4150-6"
     style="color:#000000;clip-rule:nonzero;display:inline;overflow:visible;visibility:visible;opacity:1;isolation:auto;mix-blend-mode:normal;color-interpolation:sRGB;color-interpolation-filters:linearRGB;solid-color:#000000;solid-opacity:1;fill:none;fill-opacity:1;fill-rule:nonzero;stroke:#000000;stroke-width:1.43005383;stroke-linecap:butt;stroke-linejoin:miter;stroke-miterlimit:4;stroke-dasharray:none;stroke-dashoffset:0;stroke-opacity:1;color-rendering:auto;image-rendering:auto;shape-rendering:auto;text-rendering:auto;enable-background:accumulate"
     d="m 173.7948,89.239372 a 29.81636,29.81636 0 0 1 -29.81636,29.816358 29.81636,29.81636 0 0 1 -29.81636,-29.816358 29.81636,29.81636 0 0 1 29.81636,-29.81636 29.81636,29.81636 0 0 1 29.81636,29.81636 z m -62.93201,0 A 29.81636,29.81636 0 0 1 81.046424,119.05573 29.81636,29.81636 0 0 1 51.230063,89.239372 29.81636,29.81636 0 0 1 81.046424,59.423012 29.81636,29.81636 0 0 1 110.86279,89.239372 Z"
     inkscape:connector-curvature="0" />
  <path
     style="color:#000000;font-style:normal;font-variant:normal;font-weight:normal;font-stretch:normal;font-size:medium;line-height:normal;font-family:sans-serif;text-indent:0;text-align:start;text-decoration:none;text-decoration-line:none;text-decoration-style:solid;text-decoration-color:#000000;letter-spacing:normal;word-spacing:normal;text-transform:none;direction:ltr;block-progression:tb;writing-mode:lr-tb;baseline-shift:baseline;text-anchor:start;white-space:normal;clip-rule:nonzero;display:inline;overflow:visible;visibility:visible;opacity:1;isolation:auto;mix-blend-mode:normal;color-interpolation:sRGB;color-interpolation-filters:linearRGB;solid-color:#000000;solid-opacity:1;fill:#000000;fill-opacity:1;fill-rule:nonzero;stroke:none;stroke-width:0.1;stroke-linecap:butt;stroke-linejoin:miter;stroke-miterlimit:4;stroke-dasharray:none;stroke-dashoffset:0;stroke-opacity:1;color-rendering:auto;image-rendering:auto;shape-rendering:auto;text-rendering:auto;enable-background:accumulate"
     d="M 113.01393,65.816305 C 102.5924,56.719497 88.593045,59.405971 78.257069,52.555127 65.701134,44.232859 61.594398,43.976253 50.79684,42.845919 62.430773,66.874273 88.577591,59.118102 113.11597,67.89922 Z"
     id="rect4230"
     inkscape:connector-curvature="0"
     sodipodi:nodetypes="csccc" />
  <path
     style="color:#000000;clip-rule:nonzero;display:inline;overflow:visible;visibility:visible;opacity:1;isolation:auto;mix-blend-mode:normal;color-interpolation:sRGB;color-interpolation-filters:linearRGB;solid-color:#000000;solid-opacity:1;fill:#ffcc00;fill-opacity:1;fill-rule:nonzero;stroke:#ffd42a;stroke-width:0.88893956;stroke-linecap:butt;stroke-linejoin:miter;stroke-miterlimit:4;stroke-dasharray:none;stroke-dashoffset:0;stroke-opacity:1;color-rendering:auto;image-rendering:auto;shape-rendering:auto;text-rendering:auto;enable-background:accumulate"
     d="m 123.78441,123.00049 c 0,4.47788 -3.97478,9.08112 -10.39859,18.31789 -6.5961,-8.8935 -10.39858,-13.84001 -10.39858,-18.31789 0,-4.47788 4.6556,-8.10792 10.39858,-8.10792 5.74298,0 10.39859,3.63004 10.39859,8.10792 z"
     id="path4262"
     inkscape:connector-curvature="0"
     sodipodi:nodetypes="scsss" />
  <path
     style="opacity:0.98000004;fill:#784421;fill-opacity:1;fill-rule:evenodd;stroke:#000000;stroke-width:1;stroke-linecap:round;stroke-linejoin:miter;stroke-miterlimit:1;stroke-dasharray:none;stroke-opacity:1"
     d="m 66.897492,175.30037 a 36.766956,22.723228 74.030054 0 0 1.483279,-1.88944 36.766956,22.723228 74.030054 0 0 1.391053,-2.29981 36.766956,22.723228 74.030054 0 0 1.18745,-2.56342 36.766956,22.723228 74.030054 0 0 0.973785,-2.80243 36.766956,22.723228 74.030054 0 0 0.747561,-3.01122 36.766956,22.723228 74.030054 0 0 0.516759,-3.19099 36.766956,22.723228 74.030054 0 0 0.279075,-3.33804 36.766956,22.723228 74.030054 0 0 0.04049,-3.45381 36.766956,22.723228 74.030054 0 0 -0.201422,-3.53261 36.766956,22.723228 74.030054 0 0 -0.44033,-3.57977 36.766956,22.723228 74.030054 0 0 -0.673211,-3.58519 36.766956,22.723228 74.030054 0 0 -0.900961,-3.56072 36.766956,22.723228 74.030054 0 0 -0.768945,-2.48582 36.766956,22.723228 74.030054 0 0 -1.267672,-3.4312 36.766956,22.723228 74.030054 0 0 -1.464798,-3.31178 36.766956,22.723228 74.030054 0 0 -1.647599,-3.15578 36.766956,22.723228 74.030054 0 0 -1.815537,-2.969 36.766956,22.723228 74.030054 0 0 -1.964374,-2.75501 36.766956,22.723228 74.030054 0 0 -2.092514,-2.50971 36.766956,22.723228 74.030054 0 0 -2.201014,-2.24303 36.766956,22.723228 74.030054 0 0 -2.286352,-1.95071 36.766956,22.723228 74.030054 0 0 -2.34975,-1.64071 36.766956,22.723228 74.030054 0 0 -2.391221,-1.31304 36.766956,22.723228 74.030054 0 0 -2.40616,-0.97513 36.766956,22.723228 74.030054 0 0 -2.396881,-0.62323 36.766956,22.723228 74.030054 0 0 -2.366199,-0.26942 36.766956,22.723228 74.030054 0 0 -2.310585,0.0906 36.766956,22.723228 74.030054 0 0 -0.461318,0.0915 71.677849,71.677849 0 0 0 -0.57401,4.06046 71.677849,71.677849 0 0 0 26.3614,62.19842 z"
     id="path4292"
     inkscape:connector-curvature="0"
     inkscape:transform-center-x="-17.052303"
     inkscape:transform-center-y="33.508864" />
  <path
     style="opacity:0.98000004;fill:#784421;fill-opacity:1;fill-rule:evenodd;stroke:#000000;stroke-width:1;stroke-linecap:round;stroke-linejoin:miter;stroke-miterlimit:1;stroke-dasharray:none;stroke-opacity:1"
     d="m 156.11526,175.45749 a 22.723228,36.766956 17.421184 0 1 -1.43495,-1.92639 22.723228,36.766956 17.421184 0 1 -1.33236,-2.33431 22.723228,36.766956 17.421184 0 1 -1.12215,-2.59268 22.723228,36.766956 17.421184 0 1 -0.9025,-2.82619 22.723228,36.766956 17.421184 0 1 -0.67106,-3.02918 22.723228,36.766956 17.421184 0 1 -0.43577,-3.20305 22.723228,36.766956 17.421184 0 1 -0.19448,-3.34404 22.723228,36.766956 17.421184 0 1 0.047,-3.45373 22.723228,36.766956 17.421184 0 1 0.29083,-3.52638 22.723228,36.766956 17.421184 0 1 0.53085,-3.56746 22.723228,36.766956 17.421184 0 1 0.76379,-3.56699 22.723228,36.766956 17.421184 0 1 0.99086,-3.53676 22.723228,36.766956 17.421184 0 1 0.83165,-2.46555 22.723228,36.766956 17.421184 0 1 1.35417,-3.398 22.723228,36.766956 17.421184 0 1 1.5482,-3.27362 22.723228,36.766956 17.421184 0 1 1.72699,-3.11303 22.723228,36.766956 17.421184 0 1 1.89015,-2.92207 22.723228,36.766956 17.421184 0 1 2.03352,-2.70438 22.723228,36.766956 17.421184 0 1 2.1554,-2.45591 22.723228,36.766956 17.421184 0 1 2.25712,-2.18656 22.723228,36.766956 17.421184 0 1 2.33502,-1.89218 22.723228,36.766956 17.421184 0 1 2.39055,-1.58068 22.723228,36.766956 17.421184 0 1 2.42371,-1.25206 22.723228,36.766956 17.421184 0 1 2.43008,-0.91388 22.723228,36.766956 17.421184 0 1 2.4119,-0.56232 22.723228,36.766956 17.421184 0 1 2.37226,-0.20941 22.723228,36.766956 17.421184 0 1 2.30755,0.14908 22.723228,36.766956 17.421184 0 1 0.45885,0.10319 71.677849,71.677849 0 0 1 0.47099,4.07369 71.677849,71.677849 0 0 1 -27.92819,61.51084 z"
     id="path4292-6"
     inkscape:connector-curvature="0"
     inkscape:transform-center-x="15.563503"
     inkscape:transform-center-y="33.479032" />
  <path
     style="color:#000000;font-style:normal;font-variant:normal;font-weight:normal;font-stretch:normal;font-size:medium;line-height:normal;font-family:sans-serif;text-indent:0;text-align:start;text-decoration:none;text-decoration-line:none;text-decoration-style:solid;text-decoration-color:#000000;letter-spacing:normal;word-spacing:normal;text-transform:none;direction:ltr;block-progression:tb;writing-mode:lr-tb;baseline-shift:baseline;text-anchor:start;white-space:normal;clip-rule:nonzero;display:inline;overflow:visible;visibility:visible;opacity:1;isolation:auto;mix-blend-mode:normal;color-interpolation:sRGB;color-interpolation-filters:linearRGB;solid-color:#000000;solid-opacity:1;fill:#000000;fill-opacity:1;fill-rule:nonzero;stroke:none;stroke-width:0.1;stroke-linecap:butt;stroke-linejoin:miter;stroke-miterlimit:4;stroke-dasharray:none;stroke-dashoffset:0;stroke-opacity:1;color-rendering:auto;image-rendering:auto;shape-rendering:auto;text-rendering:auto;enable-background:accumulate"
     d="m 113.7435,65.816305 c 10.42153,-9.096808 24.42089,-6.410334 34.75686,-13.261178 12.55594,-8.322268 16.66267,-8.578874 27.46023,-9.709208 -11.63393,24.028354 -37.78075,16.272183 -62.31913,25.053301 z"
     id="rect4230-8"
     inkscape:connector-curvature="0"
     sodipodi:nodetypes="csccc" />
  <circle
     style="opacity:0.98000004;fill:none;fill-opacity:1;fill-rule:evenodd;stroke:#000000;stroke-width:1;stroke-linecap:round;stroke-linejoin:miter;stroke-miterlimit:1.92;stroke-dasharray:none;stroke-opacity:1"
     id="path4136-2"
     cx="480.5173"
     cy="136.9608"
     r="71.677849" />
  <ellipse
     style="opacity:0.98000004;fill:none;fill-opacity:1;fill-rule:evenodd;stroke:#000000;stroke-width:1;stroke-linecap:round;stroke-linejoin:miter;stroke-miterlimit:1.92;stroke-dasharray:none;stroke-opacity:1"
     id="path4138-2"
     cx="459.08221"
     cy="114.09213"
     rx="15.700862"
     ry="22.868647" />
  <ellipse
     style="opacity:0.98000004;fill:none;fill-opacity:1;fill-rule:evenodd;stroke:#000000;stroke-width:0.67584515;stroke-linecap:round;stroke-linejoin:miter;stroke-miterlimit:1.92;stroke-dasharray:none;stroke-opacity:1"
     id="path4138-1-5"
     cx="107.06429"
     cy="-459.08221"
     rx="15.840793"
     ry="11.335327"
     transform="matrix(0,1,-1,0,0,0)" />
  <circle
     style="opacity:0.98000004;fill:none;fill-opacity:1;fill-rule:evenodd;stroke:#000000;stroke-width:1;stroke-linecap:round;stroke-linejoin:miter;stroke-miterlimit:1.92;stroke-dasharray:none;stroke-opacity:1"
     id="path4155-8"
     cx="456.38928"
     cy="126.27491"
     r="5.5510931" />
  <ellipse
     style="opacity:0.98000004;fill:none;fill-opacity:1;fill-rule:evenodd;stroke:#000000;stroke-width:1;stroke-linecap:round;stroke-linejoin:miter;stroke-miterlimit:1.92;stroke-dasharray:none;stroke-opacity:1"
     id="path4138-6-2"
     cx="503.8638"
     cy="114.09213"
     rx="15.700862"
     ry="22.868647" />
  <ellipse
     style="opacity:0.98000004;fill:none;fill-opacity:1;fill-rule:evenodd;stroke:#000000;stroke-width:0.67584515;stroke-linecap:round;stroke-linejoin:miter;stroke-miterlimit:1.92;stroke-dasharray:none;stroke-opacity:1"
     id="path4138-1-6-5"
     cx="107.06429"
     cy="-503.8638"
     rx="15.840793"
     ry="11.335327"
     transform="matrix(0,1,-1,0,0,0)" />
  <circle
     style="opacity:0.98000004;fill:none;fill-opacity:1;fill-rule:evenodd;stroke:#000000;stroke-width:1;stroke-linecap:round;stroke-linejoin:miter;stroke-miterlimit:1.92;stroke-dasharray:none;stroke-opacity:1"
     id="path4155-0-6"
     cx="501.17087"
     cy="126.27491"
     r="5.5510931" />
  <path
     id="path4150-6-4"
     style="color:#000000;clip-rule:nonzero;display:inline;overflow:visible;visibility:visible;opacity:1;isolation:auto;mix-blend-mode:normal;color-interpolation:sRGB;color-interpolation-filters:linearRGB;solid-color:#000000;solid-opacity:1;fill:none;fill-opacity:1;fill-rule:nonzero;stroke:#000000;stroke-width:1.43005383;stroke-linecap:butt;stroke-linejoin:miter;stroke-miterlimit:1.92;stroke-dasharray:none;stroke-dashoffset:0;stroke-opacity:1;color-rendering:auto;image-rendering:auto;shape-rendering:auto;text-rendering:auto;enable-background:accumulate"
     d="m 542.00909,113.26534 a 29.81636,29.81636 0 0 1 -29.81636,29.81636 29.81636,29.81636 0 0 1 -29.81636,-29.81636 29.81636,29.81636 0 0 1 29.81636,-29.816362 29.81636,29.81636 0 0 1 29.81636,29.816362 z m -62.93201,0 a 29.81636,29.81636 0 0 1 -29.81637,29.81636 29.81636,29.81636 0 0 1 -29.81636,-29.81636 29.81636,29.81636 0 0 1 29.81636,-29.816362 29.81636,29.81636 0 0 1 29.81637,29.816362 z"
     inkscape:connector-curvature="0" />
  <path
     style="color:#000000;font-style:normal;font-variant:normal;font-weight:normal;font-stretch:normal;font-size:medium;line-height:normal;font-family:sans-serif;text-indent:0;text-align:start;text-decoration:none;text-decoration-line:none;text-decoration-style:solid;text-decoration-color:#000000;letter-spacing:normal;word-spacing:normal;text-transform:none;direction:ltr;block-progression:tb;writing-mode:lr-tb;baseline-shift:baseline;text-anchor:start;white-space:normal;clip-rule:nonzero;display:inline;overflow:visible;visibility:visible;opacity:1;isolation:auto;mix-blend-mode:normal;color-interpolation:sRGB;color-interpolation-filters:linearRGB;solid-color:#000000;solid-opacity:1;fill:none;fill-opacity:1;fill-rule:nonzero;stroke:#000000;stroke-width:1;stroke-linecap:butt;stroke-linejoin:miter;stroke-miterlimit:1.91999996;stroke-dasharray:none;stroke-dashoffset:0;stroke-opacity:1;color-rendering:auto;image-rendering:auto;shape-rendering:auto;text-rendering:auto;enable-background:accumulate"
     d="m 481.22822,89.842271 c -10.42153,-9.096808 -24.42088,-6.410334 -34.75686,-13.261178 -12.55594,-8.322267 -16.66267,-8.578873 -27.46023,-9.709207 11.63393,24.028353 37.78075,16.272182 62.31913,25.0533 z"
     id="rect4230-7"
     inkscape:connector-curvature="0"
     sodipodi:nodetypes="csccc" />
  <path
     style="color:#000000;clip-rule:nonzero;display:inline;overflow:visible;visibility:visible;opacity:1;isolation:auto;mix-blend-mode:normal;color-interpolation:sRGB;color-interpolation-filters:linearRGB;solid-color:#000000;solid-opacity:1;fill:none;fill-opacity:1;fill-rule:nonzero;stroke:#000000;stroke-width:0.88893956;stroke-linecap:butt;stroke-linejoin:miter;stroke-miterlimit:1.92;stroke-dasharray:none;stroke-dashoffset:0;stroke-opacity:1;color-rendering:auto;image-rendering:auto;shape-rendering:auto;text-rendering:auto;enable-background:accumulate"
     d="m 491.9987,147.02646 c 0,4.47788 -3.97478,9.08112 -10.39859,18.31789 -6.5961,-8.8935 -10.39858,-13.84001 -10.39858,-18.31789 0,-4.47788 4.6556,-8.10792 10.39858,-8.10792 5.74298,0 10.39859,3.63004 10.39859,8.10792 z"
     id="path4262-6"
     inkscape:connector-curvature="0"
     sodipodi:nodetypes="scsss" />
  <path
     style="opacity:0.98000004;fill:none;fill-opacity:1;fill-rule:evenodd;stroke:#000000;stroke-width:1;stroke-linecap:round;stroke-linejoin:miter;stroke-miterlimit:1.92;stroke-dasharray:none;stroke-opacity:1"
     d="m 435.11178,199.32634 a 36.766956,22.723228 74.030054 0 0 1.48328,-1.88944 36.766956,22.723228 74.030054 0 0 1.39105,-2.29981 36.766956,22.723228 74.030054 0 0 1.18745,-2.56342 36.766956,22.723228 74.030054 0 0 0.97379,-2.80243 36.766956,22.723228 74.030054 0 0 0.74756,-3.01122 36.766956,22.723228 74.030054 0 0 0.51676,-3.19099 36.766956,22.723228 74.030054 0 0 0.27907,-3.33804 36.766956,22.723228 74.030054 0 0 0.0405,-3.45381 36.766956,22.723228 74.030054 0 0 -0.20142,-3.53261 36.766956,22.723228 74.030054 0 0 -0.44033,-3.57977 36.766956,22.723228 74.030054 0 0 -0.67321,-3.58519 36.766956,22.723228 74.030054 0 0 -0.90096,-3.56072 36.766956,22.723228 74.030054 0 0 -0.76894,-2.48582 36.766956,22.723228 74.030054 0 0 -1.26768,-3.4312 36.766956,22.723228 74.030054 0 0 -1.46479,-3.31178 36.766956,22.723228 74.030054 0 0 -1.6476,-3.15578 36.766956,22.723228 74.030054 0 0 -1.81554,-2.969 36.766956,22.723228 74.030054 0 0 -1.96437,-2.75501 36.766956,22.723228 74.030054 0 0 -2.09252,-2.50971 36.766956,22.723228 74.030054 0 0 -2.20101,-2.24303 36.766956,22.723228 74.030054 0 0 -2.28635,-1.95071 36.766956,22.723228 74.030054 0 0 -2.34975,-1.64071 36.766956,22.723228 74.030054 0 0 -2.39123,-1.31304 36.766956,22.723228 74.030054 0 0 -2.40616,-0.97513 36.766956,22.723228 74.030054 0 0 -2.39688,-0.62323 36.766956,22.723228 74.030054 0 0 -2.3662,-0.26942 36.766956,22.723228 74.030054 0 0 -2.31058,0.0906 36.766956,22.723228 74.030054 0 0 -0.46132,0.0915 71.677849,71.677849 0 0 0 -0.57401,4.06046 71.677849,71.677849 0 0 0 26.3614,62.19842 z"
     id="path4292-2"
     inkscape:connector-curvature="0"
     inkscape:transform-center-x="-17.052303"
     inkscape:transform-center-y="33.508864" />
  <path
     style="opacity:0.98000004;fill:none;fill-opacity:1;fill-rule:evenodd;stroke:#000000;stroke-width:1;stroke-linecap:round;stroke-linejoin:miter;stroke-miterlimit:1.92;stroke-dasharray:none;stroke-opacity:1"
     d="m 524.32955,199.48346 a 22.723228,36.766956 17.421184 0 1 -1.43495,-1.92639 22.723228,36.766956 17.421184 0 1 -1.33236,-2.33431 22.723228,36.766956 17.421184 0 1 -1.12215,-2.59268 22.723228,36.766956 17.421184 0 1 -0.9025,-2.82619 22.723228,36.766956 17.421184 0 1 -0.67106,-3.02918 22.723228,36.766956 17.421184 0 1 -0.43577,-3.20305 22.723228,36.766956 17.421184 0 1 -0.19448,-3.34404 22.723228,36.766956 17.421184 0 1 0.047,-3.45373 22.723228,36.766956 17.421184 0 1 0.29083,-3.52638 22.723228,36.766956 17.421184 0 1 0.53085,-3.56746 22.723228,36.766956 17.421184 0 1 0.76379,-3.56699 22.723228,36.766956 17.421184 0 1 0.99086,-3.53676 22.723228,36.766956 17.421184 0 1 0.83165,-2.46555 22.723228,36.766956 17.421184 0 1 1.35417,-3.398 22.723228,36.766956 17.421184 0 1 1.5482,-3.27362 22.723228,36.766956 17.421184 0 1 1.72699,-3.11303 22.723228,36.766956 17.421184 0 1 1.89015,-2.92207 22.723228,36.766956 17.421184 0 1 2.03352,-2.70438 22.723228,36.766956 17.421184 0 1 2.1554,-2.45591 22.723228,36.766956 17.421184 0 1 2.25712,-2.18656 22.723228,36.766956 17.421184 0 1 2.33502,-1.89218 22.723228,36.766956 17.421184 0 1 2.39055,-1.58068 22.723228,36.766956 17.421184 0 1 2.42371,-1.25206 22.723228,36.766956 17.421184 0 1 2.43008,-0.91388 22.723228,36.766956 17.421184 0 1 2.4119,-0.56232 22.723228,36.766956 17.421184 0 1 2.37226,-0.20941 22.723228,36.766956 17.421184 0 1 2.30755,0.14908 22.723228,36.766956 17.421184 0 1 0.45885,0.10319 71.677849,71.677849 0 0 1 0.47099,4.07369 71.677849,71.677849 0 0 1 -27.92819,61.51084 z"
     id="path4292-6-9"
     inkscape:connector-curvature="0"
     inkscape:transform-center-x="15.563503"
     inkscape:transform-center-y="33.479032" />
  <path
     style="color:#000000;font-style:normal;font-variant:normal;font-weight:normal;font-stretch:normal;font-size:medium;line-height:normal;font-family:sans-serif;text-indent:0;text-align:start;text-decoration:none;text-decoration-line:none;text-decoration-style:solid;text-decoration-color:#000000;letter-spacing:normal;word-spacing:normal;text-transform:none;direction:ltr;block-progression:tb;writing-mode:lr-tb;baseline-shift:baseline;text-anchor:start;white-space:normal;clip-rule:nonzero;display:inline;overflow:visible;visibility:visible;opacity:1;isolation:auto;mix-blend-mode:normal;color-interpolation:sRGB;color-interpolation-filters:linearRGB;solid-color:#000000;solid-opacity:1;fill:none;fill-opacity:1;fill-rule:nonzero;stroke:#000000;stroke-width:1;stroke-linecap:butt;stroke-linejoin:miter;stroke-miterlimit:1.91999996;stroke-dasharray:none;stroke-dashoffset:0;stroke-opacity:1;color-rendering:auto;image-rendering:auto;shape-rendering:auto;text-rendering:auto;enable-background:accumulate"
     d="m 481.95779,89.842271 c 10.42153,-9.096808 24.42089,-6.410334 34.75686,-13.261178 12.55594,-8.322267 16.66267,-8.578873 27.46023,-9.709207 -11.63393,24.028353 -37.78075,16.272182 -62.31913,25.0533 z"
     id="rect4230-8-2"
     inkscape:connector-curvature="0"
     sodipodi:nodetypes="csccc" />
  <path
     style="opacity:0.98000004;fill:none;fill-opacity:1;fill-rule:evenodd;stroke:#000000;stroke-width:2;stroke-linecap:round;stroke-linejoin:miter;stroke-miterlimit:1.91999996;stroke-dasharray:none;stroke-opacity:1"
     d="M 684.83008 98.777344 A 15.700862 22.868647 0 0 1 685.83789 98.851562 A 11.335327 15.840793 0 0 0 684.83008 98.777344 z M 684.83008 98.777344 A 15.700862 22.868647 0 0 0 669.12891 121.64648 A 15.700862 22.868647 0 0 0 684.83008 144.51562 A 15.700862 22.868647 0 0 0 700.53125 121.64648 A 15.700862 22.868647 0 0 0 685.83789 98.851562 A 11.335327 15.840793 0 0 1 696.16602 114.61914 A 11.335327 15.840793 0 0 1 686.40625 130.28906 A 5.5510931 5.5510931 0 0 1 687.6875 133.83008 A 5.5510931 5.5510931 0 0 1 682.13672 139.38086 A 5.5510931 5.5510931 0 0 1 676.58594 133.83008 A 5.5510931 5.5510931 0 0 1 679.80859 128.79883 A 11.335327 15.840793 0 0 1 673.49414 114.61914 A 11.335327 15.840793 0 0 1 684.83008 98.777344 z "
     id="path4138-2-7" />
  <path
     style="opacity:0.98000004;fill:none;fill-opacity:1;fill-rule:evenodd;stroke:#000000;stroke-width:2;stroke-linecap:round;stroke-linejoin:miter;stroke-miterlimit:1.91999996;stroke-dasharray:none;stroke-opacity:1"
     d="M 729.61133 98.777344 A 15.700862 22.868647 0 0 1 730.61914 98.851562 A 11.335327 15.840793 0 0 0 729.61133 98.777344 z M 729.61133 98.777344 A 15.700862 22.868647 0 0 0 713.91016 121.64648 A 15.700862 22.868647 0 0 0 729.61133 144.51562 A 15.700862 22.868647 0 0 0 745.3125 121.64648 A 15.700862 22.868647 0 0 0 730.61914 98.851562 A 11.335327 15.840793 0 0 1 740.94727 114.61914 A 11.335327 15.840793 0 0 1 731.1875 130.28906 A 5.5510931 5.5510931 0 0 1 732.4707 133.83008 A 5.5510931 5.5510931 0 0 1 726.91797 139.38086 A 5.5510931 5.5510931 0 0 1 721.36719 133.83008 A 5.5510931 5.5510931 0 0 1 724.58984 128.79883 A 11.335327 15.840793 0 0 1 718.27734 114.61914 A 11.335327 15.840793 0 0 1 729.61133 98.777344 z "
     id="path4138-6-2-6" />
  <path
     style="color:#000000;clip-rule:nonzero;display:inline;overflow:visible;visibility:visible;opacity:1;isolation:auto;mix-blend-mode:normal;color-interpolation:sRGB;color-interpolation-filters:linearRGB;solid-color:#000000;solid-opacity:1;fill:none;fill-opacity:1;fill-rule:nonzero;stroke:#000000;stroke-width:1;stroke-linecap:butt;stroke-linejoin:miter;stroke-miterlimit:1.91999996;stroke-dasharray:none;stroke-dashoffset:0;stroke-opacity:1;color-rendering:auto;image-rendering:auto;shape-rendering:auto;text-rendering:auto;enable-background:accumulate"
     d="m 717.03516,92.066406 c 8.66637,-2.993166 17.99341,-3.004058 25.42773,-7.93164 0.41517,-0.275178 0.79807,-0.51948 1.19531,-0.777344 -10.88669,-6.670424 -23.68946,-10.519511 -37.39258,-10.519531 -13.22521,0.0062 -25.61113,3.607005 -36.25,9.865234 0.70572,0.449208 1.4381,0.924567 2.20313,1.431641 7.38959,4.897929 16.64803,4.937395 25.26953,7.876953 m 55.40039,-1.914063 c 7.01896,-2.685619 12.93214,-7.197626 17.03516,-15.671875 -10.44054,1.092965 -14.64908,1.390862 -26.26563,8.931641 m 9.23047,6.740234 c -2.18975,0.837851 -4.4849,1.503108 -6.86914,2.048828 12.84672,3.615758 21.72598,15.327976 21.73828,28.673826 3e-5,16.46716 -13.34924,29.81643 -29.8164,29.81641 -16.46716,3e-5 -29.81644,-13.34925 -29.81641,-29.81641 0.006,-10.0265 5.05013,-19.37888 13.42578,-24.890622 -4.71303,0.806565 -9.48601,1.87591 -14.21094,3.548828 -5.51309,-1.951976 -11.08481,-3.069598 -16.55664,-3.917969 8.72082,5.437423 14.02672,14.982693 14.04102,25.259763 3e-5,16.46716 -13.34925,29.81644 -29.81641,29.81641 -16.46716,2e-5 -29.81643,-13.34925 -29.8164,-29.81641 0.0132,-13.6609 9.30858,-25.565351 22.55859,-28.890622 -2.58088,-0.62961 -5.05076,-1.412633 -7.39062,-2.417969 -15.54589,12.996701 -25.51369,32.452981 -25.73438,54.279301 0.12547,-1.05984 0.2746,-2.11675 0.44727,-3.16993 0.153,-0.0331 0.30665,-0.0637 0.46093,-0.0918 0.75847,-0.0897 1.52962,-0.11963 2.31055,-0.0899 0.78124,0.0301 1.5713,0.12004 2.36719,0.26953 0.79497,0.14872 1.59479,0.35666 2.39648,0.62305 0.80224,0.26709 1.60533,0.59237 2.40625,0.97461 0.80104,0.3822 1.59891,0.82089 2.39063,1.31445 0.79132,0.49337 1.57551,1.04093 2.34961,1.64063 0.77435,0.59913 1.53767,1.24969 2.28711,1.94922 0.74952,0.70086 1.48416,1.44985 2.20117,2.24414 0.71662,0.79337 1.41476,1.631 2.09179,2.50976 0.67773,0.87901 1.3335,1.79813 1.96485,2.75391 0.63145,0.95599 1.23767,1.94747 1.8164,2.9707 0.57768,1.02237 1.1272,2.07512 1.64649,3.1543 0.51984,1.08041 1.00873,2.18596 1.46484,3.3125 0.45636,1.12571 0.87941,2.27102 1.26758,3.43164 0.27436,0.82162 0.53103,1.65026 0.76953,2.48438 0.33719,1.17931 0.6377,2.3683 0.90039,3.5625 0.26291,1.19239 0.4878,2.38855 0.67383,3.58398 0.18588,1.1971 0.33255,2.39196 0.43945,3.58008 0.10699,1.1874 0.17413,2.36661 0.20118,3.5332 0.0271,1.16655 0.014,2.31904 -0.0391,3.45313 -0.0532,1.13383 -0.14643,2.24785 -0.27929,3.33789 -0.13322,1.09052 -0.30596,2.15565 -0.51758,3.1914 -0.21107,1.03579 -0.46073,2.04095 -0.74805,3.01172 -0.28735,0.97036 -0.61197,1.90512 -0.97265,2.80078 -0.30517,0.73959 -0.63486,1.45114 -0.98829,2.13282 12.27164,9.02469 27.09926,13.9052 42.33203,13.93359 15.35141,-2e-5 29.5639,-4.84292 41.22657,-13.06055 -0.061,-0.1176 -0.12212,-0.23602 -0.18164,-0.35547 -0.40974,-0.82276 -0.78515,-1.68914 -1.12305,-2.59375 -0.3383,-0.90501 -0.63935,-1.84823 -0.90234,-2.82617 -0.26247,-0.97758 -0.4853,-1.98869 -0.66993,-3.0293 -0.18503,-1.04066 -0.33024,-2.10975 -0.43554,-3.20312 -0.10515,-1.09311 -0.1709,-2.20889 -0.19531,-3.34375 -0.0249,-1.13527 -0.009,-2.28734 0.0469,-3.45313 0.0567,-1.16533 0.15393,-2.34323 0.29102,-3.52734 0.13726,-1.18494 0.31484,-2.37455 0.53125,-3.5664 0.21601,-1.19075 0.47081,-2.38063 0.76367,-3.56641 0.29307,-1.18659 0.62314,-2.36733 0.99023,-3.53711 0.25934,-0.82828 0.53711,-1.6519 0.83203,-2.4668 0.41748,-1.15028 0.86878,-2.28284 1.35352,-3.39648 0.48449,-1.11439 1.00183,-2.20678 1.54883,-3.27344 0.54681,-1.0662 1.12276,-2.10542 1.72656,-3.11328 0.60419,-1.00766 1.23549,-1.98271 1.89062,-2.92188 0.65519,-0.93984 1.33357,-1.84312 2.03321,-2.70507 0.69931,-0.86134 1.41953,-1.68017 2.15625,-2.45508 0.73685,-0.7755 1.48891,-1.50621 2.25586,-2.1875 0.76665,-0.6808 1.54688,-1.31272 2.33593,-1.89258 0.78909,-0.57993 1.58702,-1.10688 2.39063,-1.58008 0.80417,-0.4729 1.6132,-0.89067 2.42383,-1.25195 0.81031,-0.362 1.62096,-0.66719 2.42969,-0.91406 0.80831,-0.24607 1.61349,-0.43392 2.4121,-0.5625 0.79909,-0.12921 1.58967,-0.19868 2.3711,-0.20899 0.78145,-0.01 1.55264,0.0393 2.30859,0.14844 0.15365,0.0319 0.30675,0.0666 0.45899,0.10351 0.16246,1.12266 0.29139,2.24988 0.40039,3.37891 4.6e-4,-0.10604 0.008,-0.21026 0.008,-0.31641 -4e-5,-21.77775 -9.72532,-41.27208 -25.05469,-54.417964 z m -5.39648,113.035154 c 0.008,0.0154 0.0154,0.0315 0.0234,0.0469 0.35213,0.67551 0.72771,1.31941 1.12696,1.93164 0.45031,0.68469 0.92976,1.32692 1.43554,1.92578 18.99352,-14.5562 29.46977,-37.62968 27.92774,-61.50977 -0.0201,-0.232 -0.0479,-0.46352 -0.0703,-0.69531 M 634.625,143.79102 c -0.0442,0.2966 -0.0865,0.59348 -0.12695,0.89062 -2.14661,23.83364 7.74234,47.16648 26.36133,62.19922 0.5212,-0.58619 1.01653,-1.2171 1.48437,-1.89063 0.49596,-0.71992 0.96008,-1.48716 1.39063,-2.29882 m 6.28124,-119.988285 c -10.87667,-6.923346 -15.11619,-7.215875 -25.25585,-8.277344 3.81972,7.88914 9.2109,12.340989 15.59961,15.085938 m 7.39062,2.417969 c 7.06407,1.723293 14.93146,2.374738 23.0332,3.630859 m 14.35938,0.171875 c -2.44295,-1.664883 -5.02006,-2.822544 -7.6543,-3.720703 m 7.6543,3.720703 c 0.74501,0.507728 1.47874,1.058056 2.19726,1.664062 0.69336,-0.584778 1.40104,-1.118268 2.11914,-1.611328 m 12.0918,0.144532 c 8.57893,-1.468161 16.9541,-2.063203 24.46875,-3.783204 m -28.98437,-0.08008 c -2.60798,0.900735 -5.15827,2.058578 -7.57618,3.71875"
     id="path4150-6-4-3"
     inkscape:connector-curvature="0"
     sodipodi:nodetypes="cscccscccccccscccccsccccccccccccccccccccscccccccccccccccccccccsccccccccccccccccccscccccccccccccccccccccccccc" />
  <path
     style="color:#000000;clip-rule:nonzero;display:inline;overflow:visible;visibility:visible;opacity:1;isolation:auto;mix-blend-mode:normal;color-interpolation:sRGB;color-interpolation-filters:linearRGB;solid-color:#000000;solid-opacity:1;fill:none;fill-opacity:1;fill-rule:nonzero;stroke:#000000;stroke-width:4;stroke-linecap:butt;stroke-linejoin:miter;stroke-miterlimit:2;stroke-dasharray:none;stroke-dashoffset:0;stroke-opacity:1;color-rendering:auto;image-rendering:auto;shape-rendering:auto;text-rendering:auto;enable-background:accumulate"
     d="m 717.74672,154.58068 c 0,4.47788 -3.97478,9.08112 -10.39859,18.31789 -6.5961,-8.8935 -10.39858,-13.84001 -10.39858,-18.31789 0,-4.47788 4.6556,-8.10792 10.39858,-8.10792 5.74298,0 10.39859,3.63004 10.39859,8.10792 z"
     id="path4262-6-7"
     inkscape:connector-curvature="0"
     sodipodi:nodetypes="scsss" />
  <circle
     style="opacity:0.98000004;fill:none;fill-opacity:1;fill-rule:evenodd;stroke:#000000;stroke-width:1;stroke-linecap:round;stroke-linejoin:miter;stroke-miterlimit:1.91999996;stroke-dasharray:none;stroke-opacity:1"
     id="path4155-8-7-1"
     cx="835.2749"
     cy="279.0903"
     r="5.5510931" />
  <circle
     style="opacity:0.98000004;fill:none;fill-opacity:1;fill-rule:evenodd;stroke:#000000;stroke-width:1;stroke-linecap:round;stroke-linejoin:miter;stroke-miterlimit:1.91999996;stroke-dasharray:none;stroke-opacity:1"
     id="path4155-0-6-2-1"
     cx="880.05646"
     cy="279.0903"
     r="5.5510931" />
  <path
     style="color:#000000;clip-rule:nonzero;display:inline;overflow:visible;visibility:visible;opacity:1;isolation:auto;mix-blend-mode:normal;color-interpolation:sRGB;color-interpolation-filters:linearRGB;solid-color:#000000;solid-opacity:1;fill:none;fill-opacity:1;fill-rule:nonzero;stroke:#000000;stroke-width:1.15050936;stroke-linecap:butt;stroke-linejoin:miter;stroke-miterlimit:1.91999996;stroke-dasharray:none;stroke-dashoffset:0;stroke-opacity:1;color-rendering:auto;image-rendering:auto;shape-rendering:auto;text-rendering:auto;enable-background:accumulate"
     d="m 910.3459,266.08073 a 23.710883,24.268174 0 0 1 -23.71088,24.26817 23.710883,24.268174 0 0 1 -23.71089,-24.26817 23.710883,24.268174 0 0 1 23.71089,-24.26818 23.710883,24.268174 0 0 1 23.71088,24.26818 z"
     id="path4305"
     inkscape:connector-curvature="0" />
  <path
     style="color:#000000;clip-rule:nonzero;display:inline;overflow:visible;visibility:visible;opacity:1;isolation:auto;mix-blend-mode:normal;color-interpolation:sRGB;color-interpolation-filters:linearRGB;solid-color:#000000;solid-opacity:1;fill:none;fill-opacity:1;fill-rule:nonzero;stroke:#000000;stroke-width:1.15050936;stroke-linecap:butt;stroke-linejoin:miter;stroke-miterlimit:1.91999996;stroke-dasharray:none;stroke-dashoffset:0;stroke-opacity:1;color-rendering:auto;image-rendering:auto;shape-rendering:auto;text-rendering:auto;enable-background:accumulate"
     d="m 856.30044,266.08073 a 23.710883,24.268174 0 0 1 -23.7109,24.26817 23.710883,24.268174 0 0 1 -23.71088,-24.26817 23.710883,24.268174 0 0 1 23.71088,-24.26818 23.710883,24.268174 0 0 1 23.7109,24.26818 z"
     id="path4150-6-4-3-4"
     inkscape:connector-curvature="0" />
  <path
     style="color:#000000;font-style:normal;font-variant:normal;font-weight:normal;font-stretch:normal;font-size:medium;line-height:normal;font-family:sans-serif;text-indent:0;text-align:start;text-decoration:none;text-decoration-line:none;text-decoration-style:solid;text-decoration-color:#000000;letter-spacing:normal;word-spacing:normal;text-transform:none;direction:ltr;block-progression:tb;writing-mode:lr-tb;baseline-shift:baseline;text-anchor:start;white-space:normal;clip-rule:nonzero;display:inline;overflow:visible;visibility:visible;opacity:1;isolation:auto;mix-blend-mode:normal;color-interpolation:sRGB;color-interpolation-filters:linearRGB;solid-color:#000000;solid-opacity:1;fill:none;fill-opacity:1;fill-rule:nonzero;stroke:#000000;stroke-width:1;stroke-linecap:butt;stroke-linejoin:miter;stroke-miterlimit:1.91999996;stroke-dasharray:none;stroke-dashoffset:0;stroke-opacity:1;color-rendering:auto;image-rendering:auto;shape-rendering:auto;text-rendering:auto;enable-background:accumulate"
     d="M 859.40234 218.09961 C 846.17773 218.1058 833.79283 221.70715 823.1543 227.96484 C 812.2776 221.04148 808.03616 220.74897 797.89648 219.6875 C 801.7161 227.57642 807.10713 232.02869 813.49414 234.77539 C 797.95068 247.77208 787.98239 267.2284 787.76172 289.05273 C 787.88719 287.99289 788.03631 286.93599 788.20898 285.88281 C 788.36198 285.84971 788.51564 285.81912 788.66992 285.79102 C 789.42839 285.70132 790.19954 285.67139 790.98047 285.70117 C 791.76171 285.73127 792.55177 285.82121 793.34766 285.9707 C 794.14263 286.11942 794.94245 286.32736 795.74414 286.59375 C 796.54638 286.86084 797.34947 287.18612 798.15039 287.56836 C 798.95143 287.95056 799.7493 288.38925 800.54102 288.88281 C 801.33234 289.37618 802.11653 289.92374 802.89062 290.52344 C 803.66498 291.12257 804.42829 291.77313 805.17773 292.47266 C 805.92725 293.17352 806.6619 293.92251 807.37891 294.7168 C 808.09553 295.51017 808.79367 296.3478 809.4707 297.22656 C 810.14843 298.10557 810.8042 299.02469 811.43555 299.98047 C 812.067 300.93646 812.67322 301.92794 813.25195 302.95117 C 813.82963 303.97354 814.37915 305.02629 814.89844 306.10547 C 815.41828 307.18588 815.90717 308.29143 816.36328 309.41797 C 816.81964 310.54368 817.24269 311.68899 817.63086 312.84961 C 817.90522 313.67123 818.16189 314.49986 818.40039 315.33398 C 818.73758 316.51329 819.03809 317.70228 819.30078 318.89648 C 819.56369 320.08887 819.78858 321.28504 819.97461 322.48047 C 820.16049 323.67757 820.30716 324.87243 820.41406 326.06055 C 820.52105 327.24795 820.58818 328.42716 820.61523 329.59375 C 820.64233 330.7603 820.62927 331.91278 820.57617 333.04688 C 820.52297 334.1807 820.42973 335.29473 820.29688 336.38477 C 820.16365 337.47529 819.99092 338.54042 819.7793 339.57617 C 819.56823 340.61196 819.31857 341.61712 819.03125 342.58789 C 818.7439 343.55825 818.41927 344.49301 818.05859 345.38867 C 817.75343 346.12826 817.42374 346.8398 817.07031 347.52148 C 829.34195 356.54617 844.16957 361.42669 859.40234 361.45508 C 874.75374 361.45506 888.96624 356.61216 900.62891 348.39453 C 900.56791 348.27693 900.50679 348.15851 900.44727 348.03906 C 900.03753 347.2163 899.66212 346.34992 899.32422 345.44531 C 898.98592 344.5403 898.68486 343.59708 898.42188 342.61914 C 898.1594 341.64156 897.93658 340.63045 897.75195 339.58984 C 897.56692 338.54918 897.42171 337.48009 897.31641 336.38672 C 897.21126 335.29361 897.1455 334.17783 897.12109 333.04297 C 897.09619 331.9077 897.11207 330.75563 897.16797 329.58984 C 897.22467 328.4245 897.32189 327.24661 897.45898 326.0625 C 897.59624 324.87756 897.77382 323.68795 897.99023 322.49609 C 898.20624 321.30535 898.46105 320.11547 898.75391 318.92969 C 899.04698 317.7431 899.37705 316.56236 899.74414 315.39258 C 900.00348 314.5643 900.28125 313.74068 900.57617 312.92578 C 900.99365 311.7755 901.44495 310.64294 901.92969 309.5293 C 902.41418 308.41491 902.93152 307.32252 903.47852 306.25586 C 904.02533 305.18966 904.60128 304.15044 905.20508 303.14258 C 905.80927 302.13492 906.44057 301.15987 907.0957 300.2207 C 907.75089 299.28086 908.42927 298.37757 909.12891 297.51562 C 909.82822 296.65429 910.54844 295.83546 911.28516 295.06055 C 912.02201 294.28505 912.77407 293.55434 913.54102 292.87305 C 914.30767 292.19225 915.0879 291.56033 915.87695 290.98047 C 916.66604 290.40054 917.46397 289.87359 918.26758 289.40039 C 919.07175 288.92749 919.88078 288.50972 920.69141 288.14844 C 921.50172 287.78644 922.31236 287.48124 923.12109 287.23438 C 923.9294 286.98831 924.73459 286.80046 925.5332 286.67188 C 926.33229 286.54266 927.12287 286.4732 927.9043 286.46289 C 928.68575 286.45289 929.45694 286.50219 930.21289 286.61133 C 930.36654 286.64323 930.51964 286.67793 930.67188 286.71484 C 930.83434 287.8375 930.96327 288.96472 931.07227 290.09375 C 931.07273 289.98771 931.08203 289.88349 931.08203 289.77734 C 931.08199 268.0003 921.35584 248.50524 906.02734 235.35938 C 913.04457 232.67224 918.95779 228.16121 923.06055 219.6875 C 912.62001 220.78047 908.41147 221.07836 896.79492 228.61914 C 885.90821 221.94869 873.10744 218.09963 859.4043 218.09961 L 859.40234 218.09961 z M 931.07227 290.09375 L 900.62891 348.39453 C 900.63691 348.40993 900.64434 348.42601 900.65234 348.44141 C 901.00447 349.11692 901.38005 349.76082 901.7793 350.37305 C 902.22961 351.05774 902.70905 351.69997 903.21484 352.29883 C 922.20836 337.74263 932.68461 314.66915 931.14258 290.78906 C 931.12248 290.55706 931.09467 290.32554 931.07227 290.09375 z M 817.07031 347.52148 L 787.72461 289.77734 C 787.73571 289.53575 787.74812 289.2942 787.76172 289.05273 C 787.71752 289.34933 787.67522 289.64622 787.63477 289.94336 C 785.48816 313.777 795.3771 337.10984 813.99609 352.14258 C 814.51729 351.55639 815.01263 350.92548 815.48047 350.25195 C 815.97643 349.53203 816.44054 348.76478 816.87109 347.95312 C 816.93849 347.81043 817.00489 347.66654 817.07031 347.52148 z "
     id="rect4230-7-8-5" />
  <path
     style="color:#000000;clip-rule:nonzero;display:inline;overflow:visible;visibility:visible;opacity:1;isolation:auto;mix-blend-mode:normal;color-interpolation:sRGB;color-interpolation-filters:linearRGB;solid-color:#000000;solid-opacity:1;fill:none;fill-opacity:1;fill-rule:nonzero;stroke:#000000;stroke-width:0.88893956;stroke-linecap:butt;stroke-linejoin:miter;stroke-miterlimit:1.91999996;stroke-dasharray:none;stroke-dashoffset:0;stroke-opacity:1;color-rendering:auto;image-rendering:auto;shape-rendering:auto;text-rendering:auto;enable-background:accumulate"
     d="m 870.88426,299.84185 c 0,4.47788 -3.97478,9.08112 -10.39859,18.31789 -6.5961,-8.8935 -10.39858,-13.84001 -10.39858,-18.31789 0,-4.47788 4.6556,-8.10792 10.39858,-8.10792 5.74298,0 10.39859,3.63004 10.39859,8.10792 z"
     id="path4262-6-7-8"
     inkscape:connector-curvature="0"
     sodipodi:nodetypes="scsss" />
  <path
     inkscape:connector-curvature="0"
     style="opacity:0.98000004;fill:none;fill-opacity:1;fill-rule:evenodd;stroke:#000000;stroke-width:12.40365982;stroke-linecap:round;stroke-linejoin:miter;stroke-miterlimit:1.91999996;stroke-dasharray:none;stroke-opacity:1"
     d="m -784.30026,680.68269 a 97.374072,141.82745 0 0 1 6.2502,0.46018 70.299767,98.2419 0 0 0 -6.2502,-0.46018 z m 0,0 a 97.374072,141.82745 0 0 0 -97.37617,141.83052 97.374072,141.82745 0 0 0 97.37617,141.83051 97.374072,141.82745 0 0 0 97.37616,-141.83051 97.374072,141.82745 0 0 0 -91.12596,-141.37022 70.299767,98.2419 0 0 1 64.05312,97.78785 70.299767,98.2419 0 0 1 -60.528,97.18217 34.426934,34.426934 0 0 1 7.94578,21.96081 34.426934,34.426934 0 0 1 -34.42511,34.42499 34.426934,34.426934 0 0 1 -34.42512,-34.42499 34.426934,34.426934 0 0 1 19.98664,-31.20296 70.299767,98.2419 0 0 1 -39.16145,-87.94002 70.299767,98.2419 0 0 1 70.30394,-98.24815 z"
     id="path4138-2-7-8" />
  <path
     inkscape:connector-curvature="0"
     style="opacity:0.98000004;fill:none;fill-opacity:1;fill-rule:evenodd;stroke:#000000;stroke-width:12.40365982;stroke-linecap:round;stroke-linejoin:miter;stroke-miterlimit:1.91999996;stroke-dasharray:none;stroke-opacity:1"
     d="m -506.57489,680.68269 a 97.374072,141.82745 0 0 1 6.25021,0.46018 70.299767,98.2419 0 0 0 -6.25021,-0.46018 z m 0,0 a 97.374072,141.82745 0 0 0 -97.37555,141.83052 97.374072,141.82745 0 0 0 97.37555,141.83051 97.374072,141.82745 0 0 0 97.37617,-141.83051 97.374072,141.82745 0 0 0 -91.12596,-141.37022 70.299767,98.2419 0 0 1 64.05373,97.78785 70.299767,98.2419 0 0 1 -60.52861,97.18217 34.426934,34.426934 0 0 1 7.95818,21.96081 34.426934,34.426934 0 0 1 -34.4369,34.42499 34.426934,34.426934 0 0 1 -34.42511,-34.42499 34.426934,34.426934 0 0 1 19.98601,-31.20296 70.299767,98.2419 0 0 1 -39.14905,-87.94002 70.299767,98.2419 0 0 1 70.29154,-98.24815 z"
     id="path4138-6-2-6-3" />
  <path
     style="color:#000000;clip-rule:nonzero;display:inline;overflow:visible;visibility:visible;opacity:1;isolation:auto;mix-blend-mode:normal;color-interpolation:sRGB;color-interpolation-filters:linearRGB;solid-color:#000000;solid-opacity:1;fill:none;fill-opacity:1;fill-rule:nonzero;stroke:#000000;stroke-width:43.41280746;stroke-linecap:butt;stroke-linejoin:miter;stroke-miterlimit:1.91999996;stroke-dasharray:none;stroke-dashoffset:0;stroke-opacity:1;color-rendering:auto;image-rendering:auto;shape-rendering:auto;text-rendering:auto;enable-background:accumulate"
     d="m -584.56972,639.06265 c 53.74692,-18.56313 111.592,-18.63067 157.69827,-49.19068 2.575,-1.70662 4.94968,-3.22173 7.41304,-4.82099 -67.51746,-41.36881 -146.91824,-65.24021 -231.90253,-65.24034 -82.02044,0.0372 -158.83568,22.37007 -224.81633,61.18254 4.37663,2.78586 8.91885,5.73397 13.66387,8.87879 45.82842,30.37613 103.24806,30.62085 156.71714,48.8515 m 343.58372,-11.87067 c 43.53039,-16.65576 80.20293,-44.63848 105.64916,-97.19433 -64.75045,6.77841 -90.8511,8.62587 -162.89503,55.39251 m 57.24587,41.80182 c -13.58046,5.1962 -27.81446,9.32197 -42.60149,12.70643 79.67342,22.42433 134.74108,95.06152 134.81736,177.83021 1.9e-4,102.12652 -82.78971,184.91646 -184.91636,184.91626 -102.12615,2e-4 -184.91623,-82.78974 -184.91623,-184.91626 0.062,-62.18265 31.31986,-120.18451 83.26452,-154.36739 -29.22922,5.00215 -58.83055,11.63408 -88.1342,22.00924 -34.19069,-12.10584 -68.74604,-19.03713 -102.68121,-24.29858 54.08492,33.72195 86.9912,92.92009 87.07989,156.65673 6.2e-4,102.12652 -82.78947,184.91646 -184.91624,184.91626 -102.12614,2e-4 -184.9162,-82.78974 -184.9162,-184.91626 0.081,-84.72257 57.73032,-158.55195 139.90457,-179.1747 -16.00631,-3.90474 -31.32421,-8.76089 -45.83525,-14.99584 -96.41302,80.60332 -158.23162,201.26785 -159.60032,336.63097 0.7783,-6.57295 1.703,-13.12772 2.774,-19.65936 0.9489,-0.20529 1.9015,-0.39506 2.8585,-0.56933 4.704,-0.55631 9.4863,-0.74193 14.3299,-0.55755 4.8449,0.18668 9.7449,0.74447 14.6804,1.67158 4.9304,0.92234 9.8906,2.21195 14.8626,3.86405 4.9758,1.65645 9.9565,3.67378 14.9235,6.04437 4.9677,2.37034 9.9161,5.09102 14.8261,8.15199 4.9075,3.0598 9.771,6.45567 14.5718,10.17491 4.80272,3.7157 9.53657,7.75036 14.18422,12.08873 4.64827,4.34661 9.20476,8.99172 13.65147,13.91777 4.44423,4.92035 8.77435,10.11517 12.97299,15.56507 4.20298,5.4515 8.27014,11.1517 12.18535,17.0793 3.91646,5.9289 7.67601,12.0779 11.26501,18.4238 3.58279,6.3406 6.9907,12.8695 10.21131,19.5624 3.22433,6.7005 6.2564,13.557 9.08506,20.5436 2.82989,6.9814 5.45389,14.0845 7.86082,21.2824 1.70178,5.0956 3.29379,10.2347 4.77293,15.4077 2.09125,7.3139 3.9549,14.6878 5.58412,22.0941 1.63046,7.395 3.02526,14.8133 4.1788,22.2272 1.15292,7.4242 2.06211,14.8345 2.72508,22.203 0.6636,7.3641 1.08036,14.6773 1.24781,21.9123 0.16745,7.2348 0.0868,14.3823 -0.24187,21.4158 -0.3287,7.0318 -0.90795,13.9407 -1.73217,20.701 -0.82609,6.7632 -1.89714,13.369 -3.20945,19.7925 -1.30921,6.4238 -2.8578,12.6576 -4.63959,18.6782 -1.78178,6.018 -3.79552,11.8152 -6.0319,17.3699 -1.8928,4.5869 -3.93754,8.9998 -6.12927,13.2274 76.10638,55.9696 168.06463,86.2377 262.53586,86.4138 95.20676,-10e-5 183.35027,-30.035 255.68035,-80.9993 -0.37831,-0.7294 -0.75787,-1.4638 -1.12687,-2.2046 -2.54089,-5.1026 -4.86906,-10.4757 -6.96466,-16.086 -2.09808,-5.6127 -3.96545,-11.4624 -5.59653,-17.5274 -1.62736,-6.0628 -3.00975,-12.3335 -4.15461,-18.7872 -1.14733,-6.454 -2.04784,-13.0843 -2.70089,-19.8652 -0.65244,-6.7793 -1.0599,-13.6992 -1.21122,-20.7374 -0.15505,-7.0407 -0.062,-14.1857 0.29149,-21.4157 0.3535,-7.2272 0.95446,-14.5323 1.80473,-21.876 0.85089,-7.3488 1.95233,-14.7265 3.29441,-22.1182 1.3396,-7.3848 2.91982,-14.7642 4.73634,-22.1182 1.81775,-7.3591 3.86436,-14.6818 6.14105,-21.9366 1.60875,-5.1369 3.331,-10.2448 5.16054,-15.2987 2.58865,-7.1338 5.38753,-14.1578 8.39418,-21.0644 3.00478,-6.9112 6.21299,-13.686 9.60539,-20.3013 3.39129,-6.6124 6.96323,-13.0574 10.7079,-19.308 3.74708,-6.2493 7.66229,-12.2964 11.7253,-18.121 4.06338,-5.8287 8.27057,-11.4307 12.60962,-16.7764 4.337,-5.3419 8.80368,-10.4201 13.3727,-15.22599 4.56981,-4.80952 9.23396,-9.34125 13.99046,-13.5665 4.75463,-4.2222 9.59348,-8.14126 14.48704,-11.73746 4.8938,-3.59662 9.84242,-6.86468 14.82628,-9.79938 4.98732,-2.93285 10.00479,-5.52379 15.03218,-7.76439 5.0254,-2.24506 10.05291,-4.13779 15.06852,-5.66884 5.013,-1.52608 10.00659,-2.6911 14.95943,-3.48853 4.95582,-0.80134 9.85887,-1.23218 14.70516,-1.29612 4.84642,-0.062 9.62921,0.24373 14.31748,0.9206 0.95291,0.19784 1.90241,0.41304 2.84658,0.64195 1.00755,6.96255 1.80715,13.95337 2.48315,20.95543 0.003,-0.65765 0.0496,-1.304 0.0496,-1.96233 -2.5e-4,-135.06189 -60.31478,-255.96241 -155.38492,-337.49091 z m -33.46805,701.0247 c 0.062,0.096 0.093,0.1954 0.14264,0.2909 2.18366,4.1894 4.51307,8.1828 6.98946,11.9797 2.79269,4.2463 5.76584,8.2293 8.90273,11.9434 117.79457,-90.2751 182.76649,-233.3729 173.20309,-381.47314 -0.12466,-1.43883 -0.29707,-2.87468 -0.43599,-4.3122 m -888.78754,-6.45629 c -0.2729,1.83946 -0.5334,3.68066 -0.787,5.52347 -13.3135,147.81216 48.0164,292.51846 163.48826,385.74896 3.23239,-3.6354 6.30416,-7.5482 9.20599,-11.7254 3.07549,-4.4648 5.95376,-9.2231 8.62427,-14.2568 m 38.95493,-744.14692 c -67.45482,-42.93744 -93.7481,-44.75166 -156.63215,-51.33471 23.6891,48.9271 57.12441,76.53672 96.74604,93.56043 m 45.83524,14.99584 c 43.81035,10.68755 92.60262,14.72773 142.84799,22.51797 m 89.05455,1.06591 c -15.15107,-10.3253 -31.1338,-17.50491 -47.47066,-23.07515 m 47.47066,23.07515 c 4.62036,3.14885 9.17065,6.56191 13.62666,10.32022 4.30035,-3.62665 8.68938,-6.93526 13.14292,-9.99314 m 74.99128,0.89635 c 53.20488,-9.10527 105.14644,-12.79561 151.75071,-23.46282 m -179.75569,-0.49677 c -16.17437,5.58624 -31.9909,12.76697 -46.9863,23.06306"
     id="path4150-6-4-3-3"
     inkscape:connector-curvature="0"
     sodipodi:nodetypes="cscccscccccccscccccsccccccccccccccccccccscccccccccccccccccccccsccccccccccccccccccscccccccccccccccccccccccccc" />
  <path
     style="color:#000000;clip-rule:nonzero;display:inline;overflow:visible;visibility:visible;opacity:1;isolation:auto;mix-blend-mode:normal;color-interpolation:sRGB;color-interpolation-filters:linearRGB;solid-color:#000000;solid-opacity:1;fill:none;fill-opacity:1;fill-rule:nonzero;stroke:#000000;stroke-width:24.80731964;stroke-linecap:butt;stroke-linejoin:miter;stroke-miterlimit:2;stroke-dasharray:none;stroke-dashoffset:0;stroke-opacity:1;color-rendering:auto;image-rendering:auto;shape-rendering:auto;text-rendering:auto;enable-background:accumulate"
     d="m -580.15712,1026.7655 c 0,27.7711 -24.65103,56.3196 -64.49034,113.6044 -40.90789,-55.1559 -64.48973,-85.8333 -64.48973,-113.6044 0,-27.77104 28.87324,-50.28393 64.48973,-50.28393 35.6171,0 64.49034,22.51289 64.49034,50.28393 z"
     id="path4262-6-7-1"
     inkscape:connector-curvature="0"
     sodipodi:nodetypes="scsss" />
</svg>
