<?xml version="1.0" encoding="UTF-8" standalone="no"?>
<svg
   xmlns:dc="http://purl.org/dc/elements/1.1/"
   xmlns:cc="http://creativecommons.org/ns#"
   xmlns:rdf="http://www.w3.org/1999/02/22-rdf-syntax-ns#"
   xmlns:svg="http://www.w3.org/2000/svg"
   xmlns="http://www.w3.org/2000/svg"
   width="100mm"
   height="100mm"
   viewBox="0 0 354.33072 354.3307"
   id="svg4193"
   version="1.1">
  <defs
     id="defs4195" />
  <metadata
     id="metadata4198">
    <rdf:RDF>
      <cc:Work
         rdf:about="">
        <dc:format>image/svg+xml</dc:format>
        <dc:type
           rdf:resource="http://purl.org/dc/dcmitype/StillImage" />
        <dc:title></dc:title>
      </cc:Work>
    </rdf:RDF>
  </metadata>
  <rect
     ry="25.735292"
     rx="25.735292"
     y="5.5967202"
     x="5.5967355"
     height="343.13724"
     width="343.13724"
     id="rect4260-5-7-2"
     style="opacity:0.98000004;fill:#551b8c;fill-opacity:1;fill-rule:evenodd;stroke:none;stroke-width:1;stroke-miterlimit:4;stroke-dasharray:none;stroke-opacity:1" />
  <g
     transform="matrix(1.7339778,0,0,1.7339778,-291.09238,57.764133)"
     id="text4184"
     style="font-style:normal;font-variant:normal;font-weight:normal;font-stretch:normal;font-size:207.36090088px;line-height:125%;font-family:'WenQuanYi Micro Hei Mono';-inkscape-font-specification:'WenQuanYi Micro Hei Mono';letter-spacing:0px;word-spacing:0px;fill:#000000;fill-opacity:1;stroke:none;stroke-width:1px;stroke-linecap:butt;stroke-linejoin:miter;stroke-opacity:1" />
  <g
     transform="matrix(2.0536843,0,0,1.599759,-1813.445,915.39406)"
     id="text4270-1"
     style="font-style:normal;font-variant:normal;font-weight:bold;font-stretch:normal;font-size:230.2348175px;line-height:125%;font-family:'Padauk Book';-inkscape-font-specification:'Padauk Book, Bold';letter-spacing:0px;word-spacing:0px;opacity:0.98000004;fill:#c4b4cf;fill-opacity:1;stroke:none;stroke-width:1px;stroke-linecap:butt;stroke-linejoin:miter;stroke-opacity:1">
    <path
       style="fill:#c4b4cf;fill-opacity:1"
       id="path4297"
       d="m 984.23918,-398.83956 c 0,4.04709 -1.49893,7.64451 -4.49678,10.79225 -2.84795,3.14775 -6.44537,4.72162 -10.79226,4.72162 -4.49677,0 -8.09419,-1.64882 -10.79225,-4.94646 -2.69807,-3.44753 -4.0471,-6.97 -4.0471,-10.56741 0,-3.59742 1.34903,-6.82011 4.0471,-9.66807 2.69806,-2.99785 6.29548,-4.49677 10.79225,-4.49677 4.34689,0 7.94431,1.49892 10.79226,4.49677 2.99785,2.84796 4.49678,6.07065 4.49678,9.66807 z m 27.88002,-97.59064 c 0,5.84581 -0.7495,10.71731 -2.2484,14.61452 -1.4989,3.8972 -3.3726,7.19483 -5.621,9.8929 -2.2484,2.69807 -4.64667,5.0214 -7.19482,6.97 -2.54817,1.9486 -4.94645,3.8972 -7.19484,5.8458 -2.24839,1.94861 -4.12204,4.12205 -5.62096,6.52033 -1.49893,2.39828 -2.24839,5.39613 -2.24839,8.99354 l 0,17.81244 -25.63161,0 0,-21.63469 c 0,-4.34689 0.74946,-8.01925 2.24839,-11.0171 1.49892,-3.14774 3.37257,-5.8458 5.62096,-8.09419 2.24839,-2.39828 4.64667,-4.57172 7.19484,-6.52032 2.69807,-1.94861 5.17129,-3.97216 7.41968,-6.07065 2.24839,-2.24839 4.12204,-4.72161 5.62096,-7.41968 1.49893,-2.69806 2.24839,-5.99569 2.24839,-9.8929 0,-2.24839 -0.52462,-4.34688 -1.57387,-6.29548 -1.04925,-2.09849 -2.39828,-3.8972 -4.0471,-5.39613 -1.64881,-1.64882 -3.52247,-2.92291 -5.62096,-3.82226 -2.09849,-1.04925 -4.19699,-1.57387 -6.29549,-1.57387 -4.49677,0 -8.46892,1.79871 -11.91645,5.39613 -3.44753,3.44753 -5.17129,8.39398 -5.17129,14.83935 l 0,2.02355 -25.63161,0 0,-2.02355 c 0,-5.54602 0.9743,-11.01709 2.92291,-16.41322 2.09849,-5.54602 5.02139,-10.49247 8.7687,-14.83935 3.74731,-4.49677 8.24409,-8.09419 13.49033,-10.79226 5.24623,-2.84796 11.09204,-4.27194 17.53741,-4.27194 6.59527,0 12.51603,1.27409 17.76226,3.82226 5.39613,2.54817 9.89291,5.84581 13.49036,9.8929 3.7473,4.0471 6.5952,8.69377 8.5438,13.94 2.0985,5.09635 3.1478,10.26764 3.1478,15.51387 z" />
  </g>
</svg>
