<?xml version="1.0" encoding="UTF-8" standalone="no"?>
<svg
   xmlns:dc="http://purl.org/dc/elements/1.1/"
   xmlns:cc="http://creativecommons.org/ns#"
   xmlns:rdf="http://www.w3.org/1999/02/22-rdf-syntax-ns#"
   xmlns:svg="http://www.w3.org/2000/svg"
   xmlns="http://www.w3.org/2000/svg"
   width="100mm"
   height="100mm"
   viewBox="0 0 354.33072 354.3307"
   id="svg4193"
   version="1.1">
  <defs
     id="defs4195" />
  <metadata
     id="metadata4198">
    <rdf:RDF>
      <cc:Work
         rdf:about="">
        <dc:format>image/svg+xml</dc:format>
        <dc:type
           rdf:resource="http://purl.org/dc/dcmitype/StillImage" />
        <dc:title></dc:title>
      </cc:Work>
    </rdf:RDF>
  </metadata>
  <rect
     ry="25.735292"
     rx="25.735292"
     y="5.5967202"
     x="5.5967355"
     height="343.13724"
     width="343.13724"
     id="rect4260-5-7-2"
     style="fill:#551b8c;fill-opacity:1;fill-rule:evenodd;stroke:none;stroke-width:1;stroke-miterlimit:4;stroke-dasharray:none;stroke-opacity:1" />
  <path
     id="path4"
     d="m 575.04791,144.14572 262.72281,0 0,262.72281 -262.72281,0 z"
     style="fill:none" />
  <path
     style="fill:#c4b4cf;fill-opacity:1"
     id="path6"
     d="m 177.04036,52.165341 c -69,0 -124.875008,55.999999 -124.875008,124.999999 0,69 55.875008,125 124.875008,125 69.125,0 125.125,-56 125.125,-125 0,-69 -56,-124.999999 -125.125,-124.999999 z m 0.12499,224.999999 c -55.24999,0 -100.000007,-44.75 -100.000007,-100 0,-55.25 44.750017,-100.000007 100.000007,-100.000007 55.25001,0 100,44.750007 100,100.000007 0,55.25 -44.74999,100 -100,100 z m 43.75001,-112.5 c 10.375,0 18.74999,-8.37499 18.74999,-18.75 0,-10.375 -8.37499,-18.75 -18.74999,-18.75 -10.375,0 -18.75,8.375 -18.75,18.75 0,10.37501 8.375,18.75 18.75,18.75 z m -87.5,0 c 10.375,0 18.75,-8.37499 18.75,-18.75 0,-10.375 -8.375,-18.75 -18.75,-18.75 -10.375,0 -18.75,8.375 -18.75,18.75 0,10.37501 8.375,18.75 18.75,18.75 z m 43.74999,81.25 c 29.12501,0 53.875,-18.25 63.87501,-43.75 l -127.75,0 c 10,25.5 34.75,43.75 63.87499,43.75 z" />
</svg>
