<?xml version="1.0" encoding="UTF-8" standalone="no"?>
<svg
   xmlns:dc="http://purl.org/dc/elements/1.1/"
   xmlns:cc="http://creativecommons.org/ns#"
   xmlns:rdf="http://www.w3.org/1999/02/22-rdf-syntax-ns#"
   xmlns:svg="http://www.w3.org/2000/svg"
   xmlns="http://www.w3.org/2000/svg"
   version="1.1"
   id="svg4190"
   viewBox="0 0 63.999999 64.000001"
   height="64"
   width="64">
  <defs
     id="defs4192" />
 
  <path
     id="path4150"
     d="m 37.057333,36.418645 c 0,1.966209 -1.738054,3.987244 -4.546998,8.04294 -2.884281,-3.904953 -4.546994,-6.076731 -4.546994,-8.04294 0,-1.966103 2.035757,-3.559944 4.546994,-3.559944 2.511236,0 4.546998,1.593841 4.546998,3.559944 z"
     style="color:#000000;clip-rule:nonzero;display:inline;overflow:visible;visibility:visible;opacity:1;isolation:auto;mix-blend-mode:normal;color-interpolation:sRGB;color-interpolation-filters:linearRGB;solid-color:#000000;solid-opacity:1;fill:none;fill-opacity:1;fill-rule:nonzero;stroke:#000000;stroke-width:1.05636334;stroke-linecap:butt;stroke-linejoin:miter;stroke-miterlimit:2;stroke-dasharray:none;stroke-dashoffset:0;stroke-opacity:1;color-rendering:auto;image-rendering:auto;shape-rendering:auto;text-rendering:auto;enable-background:accumulate" />
  <path
     id="path4148"
     d="m 32.036627,0.52791707 c -5.782734,0 -11.198288,1.58391123 -15.850205,4.33151253 C 11.43036,1.8196382 9.5757029,1.6911844 5.1419186,1.2251169 6.8121253,4.6889325 9.1694657,6.643733 11.962317,7.8497831 5.1656192,13.5563 0.8067775,22.099111 0.71028504,31.681384 0.76515254,31.216056 0.83035553,30.751995 0.90585911,30.28973 0.97275861,30.27494 1.0399528,30.26227 1.1074143,30.24959 1.4390712,30.2105 1.7762719,30.19677 2.1177509,30.2105 c 0.3416131,0.01373 0.687082,0.05282 1.035102,0.118419 0.3476175,0.06549 0.6973551,0.156658 1.0479103,0.273598 0.3507961,0.117256 0.7019641,0.260076 1.0521824,0.427932 0.3502721,0.167857 0.6991562,0.360326 1.0453518,0.577197 0.3460224,0.216555 0.6889254,0.456878 1.0274127,0.720229 0.3386036,0.26314 0.6723774,0.548781 1.0000857,0.855971 0.3277431,0.307613 0.6489832,0.636459 0.9625108,0.98527 0.3133575,0.348283 0.6186338,0.716109 0.9146784,1.101893 0.296351,0.385995 0.5831,0.789526 0.859171,1.209219 0.276116,0.419693 0.541197,0.855021 0.794259,1.304398 0.252603,0.448849 0.492891,0.911113 0.719962,1.384892 0.22731,0.474413 0.441088,0.959812 0.640531,1.454401 0.199554,0.494378 0.38454,0.997207 0.554275,1.506797 0.11997,0.360748 0.232205,0.72456 0.336493,1.090801 0.147443,0.517829 0.278848,1.039884 0.393714,1.564263 0.114964,0.523534 0.213301,1.048652 0.294646,1.573559 0.08128,0.525646 0.145415,1.050236 0.19216,1.571869 0.04679,0.521315 0.07614,1.03925 0.08796,1.551269 0.01185,0.512336 0.0061,1.018335 -0.0171,1.516304 -0.02326,0.497759 -0.06404,0.986855 -0.122126,1.465599 -0.05826,0.478744 -0.133787,0.946396 -0.226323,1.401266 -0.09229,0.454764 -0.201463,0.896113 -0.327099,1.32225 -0.125651,0.426137 -0.267602,0.836534 -0.425317,1.229818 -0.133437,0.324726 -0.277601,0.637093 -0.432145,0.936466 5.366028,3.962419 11.849711,6.105358 18.510555,6.117823 6.712716,0 12.927424,-2.126459 18.027167,-5.734468 -0.02667,-0.05176 -0.0534,-0.103524 -0.07943,-0.156131 -0.179168,-0.361276 -0.343323,-0.741673 -0.491077,-1.138865 -0.147929,-0.397404 -0.279573,-0.811499 -0.394566,-1.24091 -0.114775,-0.429201 -0.212208,-0.87319 -0.292942,-1.330068 -0.08091,-0.456877 -0.144403,-0.926325 -0.190448,-1.406336 -0.04598,-0.480012 -0.07474,-0.969953 -0.08541,-1.468134 -0.01089,-0.498498 -0.0039,-1.00439 0.0205,-1.516304 0.02479,-0.511597 0.0673,-1.028792 0.127249,-1.548734 0.06002,-0.520259 0.137671,-1.042525 0.232301,-1.565848 0.09446,-0.5229 0.205876,-1.045271 0.333934,-1.565953 0.128152,-0.520998 0.272482,-1.039356 0.433,-1.55296 0.113401,-0.363706 0.234862,-0.725299 0.363822,-1.083195 0.182551,-0.504942 0.379891,-1.002383 0.591854,-1.491268 0.211853,-0.489308 0.43807,-0.968897 0.677258,-1.437182 0.239104,-0.468181 0.49095,-0.92453 0.754974,-1.36704 0.264194,-0.442405 0.540243,-0.870549 0.826713,-1.282954 0.286495,-0.412615 0.583131,-0.809174 0.889062,-1.187669 0.305789,-0.378178 0.620719,-0.737659 0.942866,-1.077913 0.322202,-0.340572 0.651056,-0.661389 0.98642,-0.960551 0.335235,-0.298846 0.676405,-0.576352 1.021435,-0.830936 0.345045,-0.254689 0.693957,-0.486033 1.045353,-0.693819 0.351639,-0.207576 0.705404,-0.391066 1.059868,-0.549732 0.354326,-0.158877 0.708795,-0.292824 1.062428,-0.401207 0.353451,-0.108171 0.705537,-0.190568 1.054745,-0.246978 0.349419,-0.05599 0.695117,-0.08662 1.036815,-0.0919 0.341704,0 0.678923,0.0169 1.009477,0.06549 0.06718,0.01373 0.134134,0.02958 0.200704,0.04542 0.07104,0.493005 0.127417,0.987911 0.175079,1.483557 2e-4,-0.04648 0.0043,-0.0919 0.0043,-0.138912 C 63.380076,22.438838 59.127113,13.879019 52.424411,8.1071132 55.49284,6.9271553 58.078517,4.9465795 59.872533,1.2260676 55.307192,1.7058679 53.466922,1.8366457 48.387345,5.1476055 43.626907,2.2189436 38.029507,0.52897343 32.037525,0.52897343 l -8.73e-4,0 z"
     style="color:#000000;clip-rule:nonzero;display:inline;overflow:visible;visibility:visible;opacity:1;isolation:auto;mix-blend-mode:normal;color-interpolation:sRGB;color-interpolation-filters:linearRGB;solid-color:#000000;solid-opacity:1;fill:none;fill-opacity:1;fill-rule:nonzero;stroke:#000000;stroke-width:1.05636334;stroke-linecap:butt;stroke-linejoin:miter;stroke-miterlimit:2;stroke-dasharray:none;stroke-dashoffset:0;stroke-opacity:1;color-rendering:auto;image-rendering:auto;shape-rendering:auto;text-rendering:auto;enable-background:accumulate" />
  <path
     id="path4146"
     d="m 50.063793,57.736798 c 0.0035,0.01056 0.0068,0.01373 0.01025,0.02007 0.153977,0.296521 0.318206,0.579204 0.492787,0.847943 0.196907,0.300747 0.406552,0.58269 0.62772,0.845619 8.305309,-6.391104 12.886266,-16.522052 12.211982,-27.007198 -0.0088,-0.101411 -0.02095,-0.203456 -0.03074,-0.305289 l -6e-6,6.34e-4"
     style="color:#000000;clip-rule:nonzero;display:inline;overflow:visible;visibility:visible;opacity:1;isolation:auto;mix-blend-mode:normal;color-interpolation:sRGB;color-interpolation-filters:linearRGB;solid-color:#000000;solid-opacity:1;fill:none;fill-opacity:1;fill-rule:nonzero;stroke:#000000;stroke-width:1.05636334;stroke-linecap:butt;stroke-linejoin:miter;stroke-miterlimit:2;stroke-dasharray:none;stroke-dashoffset:0;stroke-opacity:1;color-rendering:auto;image-rendering:auto;shape-rendering:auto;text-rendering:auto;enable-background:accumulate" />
  <path
     id="path4144"
     d="m 0.69405824,31.999666 c 0.004859,-0.106059 0.0102467,-0.212118 0.0162257,-0.318282 -0.0193315,0.130249 -0.0378284,0.260604 -0.0555119,0.391171 -0.9386486,10.464758 3.38549476,20.709476 11.52703196,27.309952 0.227905,-0.257436 0.444503,-0.534415 0.649076,-0.830196 0.21687,-0.316064 0.419811,-0.652939 0.608077,-1.009356 0.02947,-0.06233 0.05851,-0.125812 0.08712,-0.189511"
     style="color:#000000;clip-rule:nonzero;display:inline;overflow:visible;visibility:visible;opacity:1;isolation:auto;mix-blend-mode:normal;color-interpolation:sRGB;color-interpolation-filters:linearRGB;solid-color:#000000;solid-opacity:1;fill:none;fill-opacity:1;fill-rule:nonzero;stroke:#000000;stroke-width:1.05636334;stroke-linecap:butt;stroke-linejoin:miter;stroke-miterlimit:2;stroke-dasharray:none;stroke-dashoffset:0;stroke-opacity:1;color-rendering:auto;image-rendering:auto;shape-rendering:auto;text-rendering:auto;enable-background:accumulate" />
  <path
     id="path4142"
     d="M 30.680257,21.59512 A 10.368073,10.655475 0 0 1 20.312176,32.250552 10.368073,10.655475 0 0 1 9.9441033,21.59512 10.368073,10.655475 0 0 1 20.312176,10.939688 10.368073,10.655475 0 0 1 30.680257,21.59512 Z"
     style="color:#000000;clip-rule:nonzero;display:inline;overflow:visible;visibility:visible;opacity:1;isolation:auto;mix-blend-mode:normal;color-interpolation:sRGB;color-interpolation-filters:linearRGB;solid-color:#000000;solid-opacity:1;fill:none;fill-opacity:1;fill-rule:nonzero;stroke:#000000;stroke-width:1.05636334;stroke-linecap:butt;stroke-linejoin:miter;stroke-miterlimit:2;stroke-dasharray:none;stroke-dashoffset:0;stroke-opacity:1;color-rendering:auto;image-rendering:auto;shape-rendering:auto;text-rendering:auto;enable-background:accumulate" />
  <path
     id="path4140"
     d="M 54.312748,21.59512 A 10.368073,10.655475 0 0 1 43.944678,32.250552 10.368073,10.655475 0 0 1 33.576602,21.59512 10.368073,10.655475 0 0 1 43.944678,10.939688 10.368073,10.655475 0 0 1 54.312748,21.59512 Z"
     style="color:#000000;clip-rule:nonzero;display:inline;overflow:visible;visibility:visible;opacity:1;isolation:auto;mix-blend-mode:normal;color-interpolation:sRGB;color-interpolation-filters:linearRGB;solid-color:#000000;solid-opacity:1;fill:none;fill-opacity:1;fill-rule:nonzero;stroke:#000000;stroke-width:1.05636334;stroke-linecap:butt;stroke-linejoin:miter;stroke-miterlimit:2;stroke-dasharray:none;stroke-dashoffset:0;stroke-opacity:1;color-rendering:auto;image-rendering:auto;shape-rendering:auto;text-rendering:auto;enable-background:accumulate" />
  <path
     id="path4138"
     d="m 43.495395,27.3073 a 2.42733,2.4373292 0 0 1 -2.427329,2.437347 2.42733,2.4373292 0 0 1 -2.42733,-2.437347 2.42733,2.4373292 0 0 1 2.42733,-2.437348 2.42733,2.4373292 0 0 1 2.427329,2.437348 z"
     style="color:#000000;clip-rule:nonzero;display:inline;overflow:visible;visibility:visible;opacity:1;isolation:auto;mix-blend-mode:normal;color-interpolation:sRGB;color-interpolation-filters:linearRGB;solid-color:#000000;solid-opacity:1;fill:none;fill-opacity:1;fill-rule:nonzero;stroke:#000000;stroke-width:1.05636334;stroke-linecap:butt;stroke-linejoin:miter;stroke-miterlimit:2;stroke-dasharray:none;stroke-dashoffset:0;stroke-opacity:1;color-rendering:auto;image-rendering:auto;shape-rendering:auto;text-rendering:auto;enable-background:accumulate" />
  <path
     id="path4262-6-7-8"
     d="m 23.913734,27.3073 a 2.42733,2.4373292 0 0 1 -2.42733,2.437347 2.42733,2.4373292 0 0 1 -2.427331,-2.437347 2.42733,2.4373292 0 0 1 2.427331,-2.437348 2.42733,2.4373292 0 0 1 2.42733,2.437348 z"
     style="color:#000000;clip-rule:nonzero;display:inline;overflow:visible;visibility:visible;opacity:1;isolation:auto;mix-blend-mode:normal;color-interpolation:sRGB;color-interpolation-filters:linearRGB;solid-color:#000000;solid-opacity:1;fill:none;fill-opacity:1;fill-rule:nonzero;stroke:#000000;stroke-width:1.05636334;stroke-linecap:butt;stroke-linejoin:miter;stroke-miterlimit:2;stroke-dasharray:none;stroke-dashoffset:0;stroke-opacity:1;color-rendering:auto;image-rendering:auto;shape-rendering:auto;text-rendering:auto;enable-background:accumulate" />
</svg>
