<?xml version="1.0" encoding="UTF-8" standalone="no"?>
<svg
   xmlns:dc="http://purl.org/dc/elements/1.1/"
   xmlns:cc="http://creativecommons.org/ns#"
   xmlns:rdf="http://www.w3.org/1999/02/22-rdf-syntax-ns#"
   xmlns:svg="http://www.w3.org/2000/svg"
   xmlns="http://www.w3.org/2000/svg"
   version="1.1"
   id="svg4190"
   viewBox="0 0 63.999999 64.000001"
   height="64"
   width="64">
  <metadata
     id="metadata14">
    <rdf:RDF>
      <cc:Work
         rdf:about="">
        <dc:format>image/svg+xml</dc:format>
        <dc:type
           rdf:resource="http://purl.org/dc/dcmitype/StillImage" />
        <dc:title></dc:title>
      </cc:Work>
    </rdf:RDF>
  </metadata>
  <defs
     id="defs4192" />
  <path
     style="color:#000000;font-style:normal;font-variant:normal;font-weight:normal;font-stretch:normal;font-size:medium;line-height:normal;font-family:sans-serif;text-indent:0;text-align:start;text-decoration:none;text-decoration-line:none;text-decoration-style:solid;text-decoration-color:#000000;letter-spacing:normal;word-spacing:normal;text-transform:none;direction:ltr;block-progression:tb;writing-mode:lr-tb;baseline-shift:baseline;text-anchor:start;white-space:normal;clip-rule:nonzero;display:inline;overflow:visible;visibility:visible;opacity:1;isolation:auto;mix-blend-mode:normal;color-interpolation:sRGB;color-interpolation-filters:linearRGB;solid-color:#000000;solid-opacity:1;fill:#000000;fill-opacity:1;fill-rule:nonzero;stroke:none;stroke-width:2;stroke-linecap:butt;stroke-linejoin:miter;stroke-miterlimit:2;stroke-dasharray:none;stroke-dashoffset:0;stroke-opacity:1;color-rendering:auto;image-rendering:auto;shape-rendering:auto;text-rendering:auto;enable-background:accumulate"
     d="m 32.509766,31.679687 c -1.46718,0 -2.814786,0.457482 -3.832032,1.253906 -1.017245,0.796425 -1.714843,1.976494 -1.714843,3.304688 0,2.529971 1.861751,4.738925 4.742187,8.638672 L 32.537109,46 33.332031,44.851562 c 1.393773,-2.0124 2.529917,-3.526911 3.353516,-4.845703 0.823599,-1.318792 1.371094,-2.48982 1.371094,-3.767578 0,-1.328195 -0.697598,-2.508264 -1.714844,-3.304688 -1.017246,-0.796424 -2.364852,-1.253906 -3.832031,-1.253906 z m 0,2 c 1.044056,0 1.971165,0.338056 2.599609,0.830078 0.628444,0.492022 0.947266,1.090608 0.947266,1.728516 0,0.68845 -0.320696,1.511783 -1.06836,2.708984 -0.562285,0.900363 -1.526756,2.231833 -2.482422,3.583985 -2.21992,-3.053914 -3.542968,-5.064428 -3.542968,-6.292969 0,-0.637909 0.320776,-1.236494 0.949218,-1.728516 0.628443,-0.492022 1.553599,-0.830078 2.597657,-0.830078 z"
     id="path4150" />
  <path
     style="color:#000000;font-style:normal;font-variant:normal;font-weight:normal;font-stretch:normal;font-size:medium;line-height:normal;font-family:sans-serif;text-indent:0;text-align:start;text-decoration:none;text-decoration-line:none;text-decoration-style:solid;text-decoration-color:#000000;letter-spacing:normal;word-spacing:normal;text-transform:none;direction:ltr;block-progression:tb;writing-mode:lr-tb;baseline-shift:baseline;text-anchor:start;white-space:normal;clip-rule:nonzero;display:inline;overflow:visible;visibility:visible;opacity:1;isolation:auto;mix-blend-mode:normal;color-interpolation:sRGB;color-interpolation-filters:linearRGB;solid-color:#000000;solid-opacity:1;fill:#000000;fill-opacity:1;fill-rule:nonzero;stroke:none;stroke-width:2;stroke-linecap:butt;stroke-linejoin:miter;stroke-miterlimit:2;stroke-dasharray:none;stroke-dashoffset:0;stroke-opacity:1;color-rendering:auto;image-rendering:auto;shape-rendering:auto;text-rendering:auto;enable-background:accumulate"
     d="m 20.3125,10.689453 c -6.281532,0 -11.3691155,5.245549 -11.3691406,11.65625 C 8.9433845,28.756404 14.030968,34 20.3125,34 c 6.281535,5e-6 11.367162,-5.243592 11.367188,-11.654297 -2.6e-5,-6.410705 -5.085653,-11.656255 -11.367188,-11.65625 z m 0,2 c 5.170696,-4e-6 9.367166,4.297269 9.367188,9.65625 -2.2e-5,5.358981 -4.196492,9.654301 -9.367188,9.654297 -5.170693,0 -9.36912,-4.295319 -9.369141,-9.654297 2.1e-5,-5.358977 4.198448,-9.65625 9.369141,-9.65625 z"
     id="path4142" />
  <path
     style="color:#000000;font-style:normal;font-variant:normal;font-weight:normal;font-stretch:normal;font-size:medium;line-height:normal;font-family:sans-serif;text-indent:0;text-align:start;text-decoration:none;text-decoration-line:none;text-decoration-style:solid;text-decoration-color:#000000;letter-spacing:normal;word-spacing:normal;text-transform:none;direction:ltr;block-progression:tb;writing-mode:lr-tb;baseline-shift:baseline;text-anchor:start;white-space:normal;clip-rule:nonzero;display:inline;overflow:visible;visibility:visible;opacity:1;isolation:auto;mix-blend-mode:normal;color-interpolation:sRGB;color-interpolation-filters:linearRGB;solid-color:#000000;solid-opacity:1;fill:#000000;fill-opacity:1;fill-rule:nonzero;stroke:none;stroke-width:2;stroke-linecap:butt;stroke-linejoin:miter;stroke-miterlimit:2;stroke-dasharray:none;stroke-dashoffset:0;stroke-opacity:1;color-rendering:auto;image-rendering:auto;shape-rendering:auto;text-rendering:auto;enable-background:accumulate"
     d="m 43.945312,10.689453 c -6.281533,-2e-6 -11.369115,5.245547 -11.36914,11.65625 2.5e-5,6.410703 5.087607,11.654299 11.36914,11.654297 6.281531,-2e-6 11.367163,-5.243597 11.367188,-11.654297 -2.5e-5,-6.4107 -5.085657,-11.656248 -11.367188,-11.65625 z m 0,2 c 5.170692,2e-6 9.367167,4.297274 9.367188,9.65625 -2.1e-5,5.358977 -4.196496,9.654295 -9.367188,9.654297 -5.170693,2e-6 -9.369119,-4.295318 -9.36914,-9.654297 2.1e-5,-5.358979 4.198447,-9.656251 9.36914,-9.65625 z"
     id="path4140" />
  <path
     id="path4138"
     d="m 43.495395,28.0573 a 2.42733,2.4373292 0 0 1 -2.427329,2.437347 2.42733,2.4373292 0 0 1 -2.42733,-2.437347 2.42733,2.4373292 0 0 1 2.42733,-2.437348 2.42733,2.4373292 0 0 1 2.427329,2.437348 z"
     style="color:#000000;clip-rule:nonzero;display:inline;overflow:visible;visibility:visible;opacity:1;isolation:auto;mix-blend-mode:normal;color-interpolation:sRGB;color-interpolation-filters:linearRGB;solid-color:#000000;solid-opacity:1;fill:#000000;fill-opacity:1;fill-rule:nonzero;stroke:none;stroke-width:1.05636334;stroke-linecap:butt;stroke-linejoin:miter;stroke-miterlimit:2;stroke-dasharray:none;stroke-dashoffset:0;stroke-opacity:1;color-rendering:auto;image-rendering:auto;shape-rendering:auto;text-rendering:auto;enable-background:accumulate" />
  <path
     id="path4262-6-7-8"
     d="m 23.913734,28.0573 a 2.42733,2.4373292 0 0 1 -2.42733,2.437347 2.42733,2.4373292 0 0 1 -2.427331,-2.437347 2.42733,2.4373292 0 0 1 2.427331,-2.437348 2.42733,2.4373292 0 0 1 2.42733,2.437348 z"
     style="color:#000000;clip-rule:nonzero;display:inline;overflow:visible;visibility:visible;opacity:1;isolation:auto;mix-blend-mode:normal;color-interpolation:sRGB;color-interpolation-filters:linearRGB;solid-color:#000000;solid-opacity:1;fill:#000000;fill-opacity:1;fill-rule:nonzero;stroke:none;stroke-width:1.05636334;stroke-linecap:butt;stroke-linejoin:miter;stroke-miterlimit:2;stroke-dasharray:none;stroke-dashoffset:0;stroke-opacity:1;color-rendering:auto;image-rendering:auto;shape-rendering:auto;text-rendering:auto;enable-background:accumulate" />
  <path
     style="color:#000000;font-style:normal;font-variant:normal;font-weight:normal;font-stretch:normal;font-size:medium;line-height:normal;font-family:sans-serif;text-indent:0;text-align:start;text-decoration:none;text-decoration-line:none;text-decoration-style:solid;text-decoration-color:#000000;letter-spacing:normal;word-spacing:normal;text-transform:none;direction:ltr;block-progression:tb;writing-mode:lr-tb;baseline-shift:baseline;text-anchor:start;white-space:normal;clip-rule:nonzero;display:inline;overflow:visible;visibility:visible;opacity:1;isolation:auto;mix-blend-mode:normal;color-interpolation:sRGB;color-interpolation-filters:linearRGB;solid-color:#000000;solid-opacity:1;fill:#000000;fill-opacity:1;fill-rule:nonzero;stroke:none;stroke-width:2;stroke-linecap:butt;stroke-linejoin:round;stroke-miterlimit:2;stroke-dasharray:none;stroke-dashoffset:0;stroke-opacity:1;color-rendering:auto;image-rendering:auto;shape-rendering:auto;text-rendering:auto;enable-background:accumulate"
     d="m 48.535922,56.971731 c -4.70554,3.167439 -10.31753,5.058909 -16.39605,5.059304 -6.04723,-0.01139 -11.91499,-1.935124 -16.870669,-5.418897 l -0.766082,1.923436 c 5.202286,3.544176 11.339601,5.452639 17.633431,5.464498 l 0.002,0 c 6.77753,0 13.0607,-2.163983 18.21036,-5.832333 z M 63.694412,30.64983 c -0.28457,-8.652278 -4.12698,-16.343464 -9.97311,-21.8928813 2.63298,-1.2955323 4.94642,-3.3184453 6.5454,-6.6572825 0.33216,-0.6946566 -0.22281,-1.4861327 -0.98564,-1.4056826 -4.28902,0.4538563 -6.51141,0.7520375 -11.16546,3.7190015 -4.65833,-2.7624122 -10.06433,-4.3794338 -15.84683,-4.4034368 -0.0431,-0.00611 -0.0866,-0.00932 -0.13014,-0.00962 l -1.5e-4,9.22e-5 c -5.6455,0 -10.935646,1.5325917 -15.527152,4.157436 C 12.312765,1.4959507 10.043368,1.1290505 5.916683,0.6922855 5.153849,0.6118325 4.598879,1.4033102 4.931043,2.0979681 6.417002,5.200833 8.570985,7.0611768 10.971185,8.3668127 4.978074,13.859503 1.000016,21.571973 0.615291,30.280846 L 2.741207,29.257828 C 3.411704,21.125092 7.25987,13.907327 13.120068,8.9533107 13.67792,8.4826047 13.547777,7.5866091 12.879304,7.2957245 10.90273,6.4363113 9.313047,4.9798471 7.937718,2.9921437 c 2.641947,0.3377541 4.585475,0.7906673 8.158785,3.0901942 0.311841,0.2003052 0.709395,0.2069999 1.027742,0.017307 4.40832,-2.6216021 9.533597,-4.130515 15.014237,-4.130515 5.68012,0 10.97825,1.6114779 15.48886,4.4054976 0.32324,0.2004965 0.73267,0.1952511 1.0507,-0.013461 3.95566,-2.596071 5.92644,-3.0399876 8.79994,-3.3920986 -1.53037,2.3105109 -3.43895,3.6750339 -5.73776,4.5651032 l 0.0229,-0.00577 c -0.70529,0.2546616 -0.87663,1.1781646 -0.31003,1.6710496 5.78375,5.0147783 9.54219,12.2578763 10.12432,20.3891293 z"
     id="path4148-1" />
  <path
     style="color:#000000;font-style:normal;font-variant:normal;font-weight:normal;font-stretch:normal;font-size:medium;line-height:normal;font-family:sans-serif;text-indent:0;text-align:start;text-decoration:none;text-decoration-line:none;text-decoration-style:solid;text-decoration-color:#000000;letter-spacing:normal;word-spacing:normal;text-transform:none;direction:ltr;block-progression:tb;writing-mode:lr-tb;baseline-shift:baseline;text-anchor:start;white-space:normal;clip-rule:nonzero;display:inline;overflow:visible;visibility:visible;opacity:0.98000004;isolation:auto;mix-blend-mode:normal;color-interpolation:sRGB;color-interpolation-filters:linearRGB;solid-color:#000000;solid-opacity:1;fill:#800000;fill-opacity:1;fill-rule:evenodd;stroke:none;stroke-width:2;stroke-linecap:square;stroke-linejoin:round;stroke-miterlimit:2;stroke-dasharray:none;stroke-dashoffset:0;stroke-opacity:1;color-rendering:auto;image-rendering:auto;shape-rendering:auto;text-rendering:auto;enable-background:accumulate"
     d="m 2.796865,29.26981 c -0.394637,-0.02633 -0.78754,-0.02079 -1.17599,0.01512 a 0.97999491,0.98465247 0.38594095 0 0 -0.05948,0.006 c -0.07931,0.01236 -0.159725,0.02638 -0.23856,0.04141 a 0.97999491,0.98465247 0.38594095 0 0 -0.777896,0.776522 c -0.12198,0.621159 -0.227589,1.247285 -0.314486,1.874492 a 0.97999491,0.98465247 0.38594095 0 0 -0.003,0.02109 C -1.050988,42.971558 3.11547,53.85835 11.333022,61.061897 a 0.97999491,0.98465247 0.38594095 0 0 0.08191,0.08309 c 9.96e-4,9.08e-4 0.003,0.0012 0.004,0.0021 a 0.97999491,0.98465247 0.38594095 0 0 0.199152,0.136396 l 0.002,5.6e-5 a 0.97999491,0.98465247 0.38594095 0 0 1.158494,-0.21182 0.97999491,0.98465247 0.38594095 0 0 0.06337,-0.07517 c 0.002,-0.0023 0.004,-0.0052 0.006,-0.0075 a 0.97999491,0.98465247 0.38594095 0 0 5e-5,-0.002 c 0.237893,-0.263661 0.469189,-0.538469 0.683795,-0.83495 a 0.97999491,0.98465247 0.38594095 0 0 0.002,-0.0037 c 0.251114,-0.349764 0.48529,-0.7205 0.702975,-1.111426 0.217566,-0.390956 0.417794,-0.801805 0.600963,-1.229709 0.183359,-0.428098 0.348514,-0.873692 0.49666,-1.33459 0.147897,-0.460729 0.277997,-0.93692 0.390083,-1.426072 0.112285,-0.489175 0.207124,-0.99095 0.28312,-1.504095 0.07593,-0.513021 0.132591,-1.036485 0.17196,-1.568772 0.03956,-0.532479 0.06128,-1.072962 0.06427,-1.619885 0.003,-0.546724 -0.01216,-1.099572 -0.04584,-1.655673 -0.03382,-0.556493 -0.08663,-1.115353 -0.156322,-1.676087 -0.06955,-0.560187 -0.156735,-1.119798 -0.261508,-1.679036 -0.104722,-0.559013 -0.226264,-1.117534 -0.365123,-1.670401 l 5e-5,-0.002 C 15.317034,43.279362 15.20991,42.8896 15.095274,42.50359 14.93268,41.957857 14.754542,41.418849 14.560133,40.888057 14.365854,40.356924 14.15607,39.835011 13.931659,39.32377 13.707328,38.812745 13.467662,38.312625 13.215172,37.826266 12.962503,37.339985 12.696572,36.868158 12.417897,36.411141 12.139212,35.953815 11.847723,35.511899 11.545293,35.088166 11.243003,34.664723 10.930101,34.258814 10.606508,33.872986 10.282875,33.486887 9.949427,33.121975 9.606962,32.777294 9.264606,32.432848 8.914558,32.110479 8.555941,31.810971 8.197314,31.511436 7.831204,31.235014 7.458926,30.983791 a 0.97999491,0.98465247 0.38594095 0 0 -0.002,-5.6e-5 C 7.084818,30.732941 6.708037,30.506819 6.325077,30.30755 l -0.002,-5.6e-5 C 5.940357,30.10806 5.552456,29.933027 5.161964,29.788231 4.771083,29.643639 4.377582,29.528369 3.982646,29.441593 3.58751,29.354483 3.19114,29.296403 2.796542,29.269822 Z m -0.131277,1.964273 c 0.29413,0.01981 0.592693,0.06403 0.896219,0.130938 a 0.97999491,0.98465247 0.38594095 0 0 0.002,5.6e-5 c 0.302758,0.06652 0.609333,0.157512 0.919096,0.272011 0.31056,0.115158 0.623751,0.252981 0.938038,0.41682 a 0.97999491,0.98465247 0.38594095 0 0 0.002,0.0021 c 0.314396,0.16353 0.629261,0.351361 0.943538,0.563177 l 6e-5,-0.002 c 0.314067,0.21194 0.625843,0.44844 0.935696,0.707235 0.309843,0.258766 0.616936,0.539921 0.918509,0.843335 0.301682,0.303629 0.598512,0.629829 0.888028,0.975217 0.289456,0.345131 0.570852,0.709908 0.844535,1.093268 0.273793,0.383627 0.538957,0.785534 0.793599,1.203413 0.254632,0.417582 0.49915,0.850459 0.731622,1.297861 0.232302,0.447488 0.452967,0.907992 0.660389,1.380508 0.207492,0.472718 0.401662,0.95676 0.581892,1.449482 0.18034,0.492397 0.345106,0.99378 0.496211,1.500944 0.106496,0.3587 0.206077,0.719956 0.297218,1.083688 a 0.97999491,0.98465247 0.38594095 0 0 -5e-5,0.002 c 0.129274,0.51456 0.2442,1.032416 0.341609,1.552395 0.09735,0.519621 0.17734,1.039752 0.241858,1.559216 0.06467,0.519971 0.113231,1.038409 0.144399,1.552635 0.03109,0.513862 0.04613,1.024163 0.04364,1.526725 -0.003,0.502055 -0.02242,0.998177 -0.05859,1.483462 -0.03597,0.485762 -0.08978,0.961174 -0.158379,1.424874 -0.06865,0.463804 -0.153746,0.914372 -0.253964,1.351016 -0.10006,0.436651 -0.215434,0.859041 -0.345355,1.26381 -0.130141,0.404888 -0.2746,0.792725 -0.432491,1.161333 -0.157721,0.368461 -0.326881,0.717187 -0.509682,1.04567 -0.161926,0.290807 -0.337314,0.557447 -0.516648,0.814629 C 4.743786,52.121623 1.009101,42.250717 2.174469,32.238072 c 2.19e-4,-0.002 -7e-5,-0.0038 1.6e-4,-0.0058 0.04633,-0.332792 0.110581,-0.66264 0.167436,-0.99371 0.10824,8.35e-4 0.213958,-0.01167 0.323683,-0.0044 z"
     id="path4292-2-0-6" />
  <path
     style="color:#000000;font-style:normal;font-variant:normal;font-weight:normal;font-stretch:normal;font-size:medium;line-height:normal;font-family:sans-serif;text-indent:0;text-align:start;text-decoration:none;text-decoration-line:none;text-decoration-style:solid;text-decoration-color:#000000;letter-spacing:normal;word-spacing:normal;text-transform:none;direction:ltr;block-progression:tb;writing-mode:lr-tb;baseline-shift:baseline;text-anchor:start;white-space:normal;clip-rule:nonzero;display:inline;overflow:visible;visibility:visible;opacity:0.98000004;isolation:auto;mix-blend-mode:normal;color-interpolation:sRGB;color-interpolation-filters:linearRGB;solid-color:#000000;solid-opacity:1;fill:#800000;fill-opacity:1;fill-rule:evenodd;stroke:none;stroke-width:2;stroke-linecap:square;stroke-linejoin:round;stroke-miterlimit:2;stroke-dasharray:none;stroke-dashoffset:0;stroke-opacity:1;color-rendering:auto;image-rendering:auto;shape-rendering:auto;text-rendering:auto;enable-background:accumulate"
     d="m 61.551132,29.538636 c -0.38821,0.0054 -0.77983,0.04086 -1.17129,0.107686 -0.39064,0.06648 -0.7822,0.163424 -1.17126,0.288443 -0.38984,0.125609 -0.77728,0.280226 -1.16173,0.46151 -0.38464,0.180945 -0.76639,0.387617 -1.14257,0.621116 a 0.97999424,0.98465314 0 0 0 0,0.002 c -0.37589,0.233624 -0.74727,0.49206 -1.11196,0.774952 -0.36466,0.282864 -0.72282,0.588399 -1.07367,0.917251 -0.35098,0.329084 -0.69317,0.680188 -1.02773,1.051858 -0.33453,0.371399 -0.66047,0.762703 -0.97608,1.173005 -0.31575,0.41059 -0.62052,0.840864 -0.91482,1.286459 -0.29428,0.445287 -0.57741,0.906536 -0.84785,1.382607 -0.27026,0.476157 -0.52716,0.966705 -0.77128,1.469141 -0.24421,0.502653 -0.47497,1.016051 -0.6909,1.54029 -0.21605,0.52389 -0.41699,1.057389 -0.60288,1.597978 -0.1313,0.382974 -0.25584,0.770392 -0.37127,1.159544 -0.16319,0.54901 -0.30985,1.102534 -0.44018,1.659513 -0.13038,0.557201 -0.24443,1.116828 -0.34068,1.67682 -0.0965,0.560533 -0.17606,1.120601 -0.23732,1.678742 -0.0611,0.557743 -0.10478,1.113156 -0.13014,1.663359 -0.0251,0.550414 -0.0323,1.096731 -0.0211,1.634514 0.011,0.537583 0.0407,1.066345 0.088,1.586441 0.0475,0.520229 0.11324,1.030735 0.19714,1.528752 0.0837,0.497973 0.18632,0.982467 0.30621,1.453756 0.12013,0.471485 0.25741,0.928723 0.41339,1.369147 0.15579,0.440221 0.32947,0.864119 0.52058,1.269153 0.1912,0.405004 0.39991,0.790055 0.62582,1.155698 a 0.97999424,0.98465314 0 0 0 0.002,0.0038 c 0.19822,0.318106 0.41142,0.616959 0.63541,0.901868 a 0.97999424,0.98465314 0 0 0 0.0478,0.06538 0.97999424,0.98465314 0 0 0 0.42296,0.307674 0.97999424,0.98465314 0 0 0 0.95501,-0.157683 l 0,0.002 c 0.0102,-0.0083 0.0184,-0.01862 0.0288,-0.02692 0.007,-0.0057 0.014,-0.01156 0.0211,-0.01731 a 0.97999424,0.98465314 0 0 0 0.0172,-0.01731 c 8.37929,-6.817545 12.98631,-17.566232 12.3061,-28.68477 a 0.97999424,0.98465314 0 0 0 0,-0.01923 c -0.0522,-0.636054 -0.12196,-1.271838 -0.20861,-1.903729 a 0.97999424,0.98465314 0 0 0 -0.72917,-0.819271 c -0.0764,-0.01959 -0.1525,-0.03693 -0.22967,-0.05385 a 0.97999424,0.98465314 0 0 0 -0.0632,-0.01154 c -0.37899,-0.05778 -0.76392,-0.084 -1.15215,-0.07884 z m 0.0268,1.96911 c 0.0979,-0.0013 0.19075,0.01512 0.28709,0.01923 0.0387,0.340158 0.0847,0.67974 0.11292,1.02109 0.62041,10.150878 -3.51467,19.884819 -10.89753,26.309917 -0.15273,-0.257797 -0.30241,-0.521797 -0.43827,-0.809565 -0.16129,-0.341824 -0.3092,-0.703608 -0.44402,-1.084549 -0.13476,-0.380534 -0.25577,-0.780499 -0.36172,-1.19608 l 0,-0.002 c -0.10564,-0.415559 -0.19679,-0.84815 -0.27175,-1.294151 -0.0752,-0.446646 -0.13492,-0.906477 -0.178,-1.37876 -0.043,-0.472168 -0.0704,-0.955404 -0.0803,-1.447988 a 0.97999424,0.98465314 0 0 0 0,-0.002 c -0.0102,-0.492116 -0.004,-0.992763 0.0191,-1.499907 l 0,-0.002 c 0.0234,-0.50702 0.0639,-1.019962 0.12057,-1.536444 0.0568,-0.517495 0.13039,-1.038128 0.22009,-1.559519 0.0896,-0.520883 0.19621,-1.042258 0.31771,-1.561442 0.12157,-0.519539 0.25726,-1.037639 0.40955,-1.549905 0.10761,-0.362722 0.2241,-0.722024 0.34642,-1.07878 0.17315,-0.503569 0.35992,-0.999435 0.56076,-1.486446 0.20073,-0.487345 0.41494,-0.965073 0.64115,-1.430681 0.22613,-0.465406 0.46484,-0.918886 0.71387,-1.357609 l -0.002,0 c 0.24916,-0.438629 0.50979,-0.861905 0.77893,-1.269152 0.26889,-0.407101 0.54692,-0.797683 0.83254,-1.169159 l 0,-0.002 c 0.28552,-0.371135 0.57972,-0.724035 0.87846,-1.055705 0.29913,-0.332286 0.6043,-0.643279 0.91291,-0.932634 0.30849,-0.289143 0.62004,-0.556441 0.93396,-0.79995 0.31395,-0.243538 0.63023,-0.46366 0.94545,-0.659575 l 0,0.002 c 0.31543,-0.195782 0.62912,-0.368345 0.94163,-0.515353 a 0.97999424,0.98465314 0 0 0 0.002,0 c 0.31242,-0.147322 0.62062,-0.270715 0.92629,-0.369208 0.3055,-0.09816 0.60587,-0.170911 0.90144,-0.22114 a 0.97999424,0.98465314 0 0 0 0.002,0 c 0.29577,-0.0505 0.58503,-0.0768 0.86887,-0.08076 z"
     id="path4292-6-9-0-2" />
</svg>
