<?xml version="1.0" encoding="UTF-8" standalone="no"?>
<svg
   xmlns:dc="http://purl.org/dc/elements/1.1/"
   xmlns:cc="http://creativecommons.org/ns#"
   xmlns:rdf="http://www.w3.org/1999/02/22-rdf-syntax-ns#"
   xmlns:svg="http://www.w3.org/2000/svg"
   xmlns="http://www.w3.org/2000/svg"
   width="64"
   height="64"
   viewBox="0 0 63.999999 64.000001"
   id="svg4190"
   version="1.1">
  <metadata
     id="metadata14">
    <rdf:RDF>
      <cc:Work
         rdf:about="">
        <dc:format>image/svg+xml</dc:format>
        <dc:type
           rdf:resource="http://purl.org/dc/dcmitype/StillImage" />
        <dc:title></dc:title>
      </cc:Work>
    </rdf:RDF>
  </metadata>
  <defs
     id="defs4192" />
  <path
     id="path4150"
     d="m 32.509766,31.679687 c -1.46718,0 -2.814786,0.457482 -3.832032,1.253906 -1.017245,0.796425 -1.714843,1.976494 -1.714843,3.304688 0,2.529971 1.861751,4.738925 4.742187,8.638672 L 32.537109,46 33.332031,44.851562 c 1.393773,-2.0124 2.529917,-3.526911 3.353516,-4.845703 0.823599,-1.318792 1.371094,-2.48982 1.371094,-3.767578 0,-1.328195 -0.697598,-2.508264 -1.714844,-3.304688 -1.017246,-0.796424 -2.364852,-1.253906 -3.832031,-1.253906 z m 0,2 c 1.044056,0 1.971165,0.338056 2.599609,0.830078 0.628444,0.492022 0.947266,1.090608 0.947266,1.728516 0,0.68845 -0.320696,1.511783 -1.06836,2.708984 -0.562285,0.900363 -1.526756,2.231833 -2.482422,3.583985 -2.21992,-3.053914 -3.542968,-5.064428 -3.542968,-6.292969 0,-0.637909 0.320776,-1.236494 0.949218,-1.728516 0.628443,-0.492022 1.553599,-0.830078 2.597657,-0.830078 z"
     style="color:#000000;font-style:normal;font-variant:normal;font-weight:normal;font-stretch:normal;font-size:medium;line-height:normal;font-family:sans-serif;text-indent:0;text-align:start;text-decoration:none;text-decoration-line:none;text-decoration-style:solid;text-decoration-color:#000000;letter-spacing:normal;word-spacing:normal;text-transform:none;direction:ltr;block-progression:tb;writing-mode:lr-tb;baseline-shift:baseline;text-anchor:start;white-space:normal;clip-rule:nonzero;display:inline;overflow:visible;visibility:visible;opacity:1;isolation:auto;mix-blend-mode:normal;color-interpolation:sRGB;color-interpolation-filters:linearRGB;solid-color:#000000;solid-opacity:1;fill:#000000;fill-opacity:1;fill-rule:nonzero;stroke:none;stroke-width:2;stroke-linecap:butt;stroke-linejoin:miter;stroke-miterlimit:2;stroke-dasharray:none;stroke-dashoffset:0;stroke-opacity:1;color-rendering:auto;image-rendering:auto;shape-rendering:auto;text-rendering:auto;enable-background:accumulate" />
  <path
     id="path4142"
     d="m 20.3125,10.689453 c -6.281532,0 -11.3691155,5.245549 -11.3691406,11.65625 C 8.9433845,28.756404 14.030968,34 20.3125,34 c 6.281535,5e-6 11.367162,-5.243592 11.367188,-11.654297 -2.6e-5,-6.410705 -5.085653,-11.656255 -11.367188,-11.65625 z m 0,2 c 5.170696,-4e-6 9.367166,4.297269 9.367188,9.65625 -2.2e-5,5.358981 -4.196492,9.654301 -9.367188,9.654297 -5.170693,0 -9.36912,-4.295319 -9.369141,-9.654297 2.1e-5,-5.358977 4.198448,-9.65625 9.369141,-9.65625 z"
     style="color:#000000;font-style:normal;font-variant:normal;font-weight:normal;font-stretch:normal;font-size:medium;line-height:normal;font-family:sans-serif;text-indent:0;text-align:start;text-decoration:none;text-decoration-line:none;text-decoration-style:solid;text-decoration-color:#000000;letter-spacing:normal;word-spacing:normal;text-transform:none;direction:ltr;block-progression:tb;writing-mode:lr-tb;baseline-shift:baseline;text-anchor:start;white-space:normal;clip-rule:nonzero;display:inline;overflow:visible;visibility:visible;opacity:1;isolation:auto;mix-blend-mode:normal;color-interpolation:sRGB;color-interpolation-filters:linearRGB;solid-color:#000000;solid-opacity:1;fill:#000000;fill-opacity:1;fill-rule:nonzero;stroke:none;stroke-width:2;stroke-linecap:butt;stroke-linejoin:miter;stroke-miterlimit:2;stroke-dasharray:none;stroke-dashoffset:0;stroke-opacity:1;color-rendering:auto;image-rendering:auto;shape-rendering:auto;text-rendering:auto;enable-background:accumulate" />
  <path
     id="path4140"
     d="m 43.945312,10.689453 c -6.281533,-2e-6 -11.369115,5.245547 -11.36914,11.65625 2.5e-5,6.410703 5.087607,11.654299 11.36914,11.654297 6.281531,-2e-6 11.367163,-5.243597 11.367188,-11.654297 -2.5e-5,-6.4107 -5.085657,-11.656248 -11.367188,-11.65625 z m 0,2 c 5.170692,2e-6 9.367167,4.297274 9.367188,9.65625 -2.1e-5,5.358977 -4.196496,9.654295 -9.367188,9.654297 -5.170693,2e-6 -9.369119,-4.295318 -9.36914,-9.654297 2.1e-5,-5.358979 4.198447,-9.656251 9.36914,-9.65625 z"
     style="color:#000000;font-style:normal;font-variant:normal;font-weight:normal;font-stretch:normal;font-size:medium;line-height:normal;font-family:sans-serif;text-indent:0;text-align:start;text-decoration:none;text-decoration-line:none;text-decoration-style:solid;text-decoration-color:#000000;letter-spacing:normal;word-spacing:normal;text-transform:none;direction:ltr;block-progression:tb;writing-mode:lr-tb;baseline-shift:baseline;text-anchor:start;white-space:normal;clip-rule:nonzero;display:inline;overflow:visible;visibility:visible;opacity:1;isolation:auto;mix-blend-mode:normal;color-interpolation:sRGB;color-interpolation-filters:linearRGB;solid-color:#000000;solid-opacity:1;fill:#000000;fill-opacity:1;fill-rule:nonzero;stroke:none;stroke-width:2;stroke-linecap:butt;stroke-linejoin:miter;stroke-miterlimit:2;stroke-dasharray:none;stroke-dashoffset:0;stroke-opacity:1;color-rendering:auto;image-rendering:auto;shape-rendering:auto;text-rendering:auto;enable-background:accumulate" />
  <path
     style="color:#000000;clip-rule:nonzero;display:inline;overflow:visible;visibility:visible;opacity:1;isolation:auto;mix-blend-mode:normal;color-interpolation:sRGB;color-interpolation-filters:linearRGB;solid-color:#000000;solid-opacity:1;fill:#000000;fill-opacity:1;fill-rule:nonzero;stroke:none;stroke-width:1.05636334;stroke-linecap:butt;stroke-linejoin:miter;stroke-miterlimit:2;stroke-dasharray:none;stroke-dashoffset:0;stroke-opacity:1;color-rendering:auto;image-rendering:auto;shape-rendering:auto;text-rendering:auto;enable-background:accumulate"
     d="m 43.495395,28.0573 a 2.42733,2.4373292 0 0 1 -2.427329,2.437347 2.42733,2.4373292 0 0 1 -2.42733,-2.437347 2.42733,2.4373292 0 0 1 2.42733,-2.437348 2.42733,2.4373292 0 0 1 2.427329,2.437348 z"
     id="path4138" />
  <path
     style="color:#000000;clip-rule:nonzero;display:inline;overflow:visible;visibility:visible;opacity:1;isolation:auto;mix-blend-mode:normal;color-interpolation:sRGB;color-interpolation-filters:linearRGB;solid-color:#000000;solid-opacity:1;fill:#000000;fill-opacity:1;fill-rule:nonzero;stroke:none;stroke-width:1.05636334;stroke-linecap:butt;stroke-linejoin:miter;stroke-miterlimit:2;stroke-dasharray:none;stroke-dashoffset:0;stroke-opacity:1;color-rendering:auto;image-rendering:auto;shape-rendering:auto;text-rendering:auto;enable-background:accumulate"
     d="m 23.913734,28.0573 a 2.42733,2.4373292 0 0 1 -2.42733,2.437347 2.42733,2.4373292 0 0 1 -2.427331,-2.437347 2.42733,2.4373292 0 0 1 2.427331,-2.437348 2.42733,2.4373292 0 0 1 2.42733,2.437348 z"
     id="path4262-6-7-8" />
  <ellipse
     ry="31.778778"
     rx="31.648438"
     cy="266.38589"
     cx="-368.88739"
     id="path4136-2"
     style="opacity:0.98000004;fill:none;fill-opacity:1;fill-rule:evenodd;stroke:#000000;stroke-width:0.44244549;stroke-linecap:round;stroke-linejoin:miter;stroke-miterlimit:1.91999996;stroke-dasharray:none;stroke-opacity:1" />
  <ellipse
     ry="10.138943"
     rx="6.9325147"
     cy="256.24695"
     cx="-378.35181"
     id="path4138-2"
     style="opacity:0.98000004;fill:none;fill-opacity:1;fill-rule:evenodd;stroke:#000000;stroke-width:0.44244549;stroke-linecap:round;stroke-linejoin:miter;stroke-miterlimit:1.91999996;stroke-dasharray:none;stroke-opacity:1" />
  <ellipse
     transform="matrix(0,1,-1,0,0,0)"
     ry="5.0049686"
     rx="7.0231042"
     cy="378.35181"
     cx="253.1311"
     id="path4138-1-5"
     style="opacity:0.98000004;fill:none;fill-opacity:1;fill-rule:evenodd;stroke:#000000;stroke-width:0.29902464;stroke-linecap:round;stroke-linejoin:miter;stroke-miterlimit:1.91999996;stroke-dasharray:none;stroke-opacity:1" />
  <ellipse
     ry="2.4611084"
     rx="2.4510143"
     cy="261.64822"
     cx="-379.5408"
     id="path4155-8"
     style="opacity:0.98000004;fill:none;fill-opacity:1;fill-rule:evenodd;stroke:#000000;stroke-width:0.44244549;stroke-linecap:round;stroke-linejoin:miter;stroke-miterlimit:1.91999996;stroke-dasharray:none;stroke-opacity:1" />
  <ellipse
     ry="10.138943"
     rx="6.9325147"
     cy="256.24695"
     cx="-358.57904"
     id="path4138-6-2"
     style="opacity:0.98000004;fill:none;fill-opacity:1;fill-rule:evenodd;stroke:#000000;stroke-width:0.44244549;stroke-linecap:round;stroke-linejoin:miter;stroke-miterlimit:1.91999996;stroke-dasharray:none;stroke-opacity:1" />
  <ellipse
     transform="matrix(0,1,-1,0,0,0)"
     ry="5.0049686"
     rx="7.0231042"
     cy="358.57904"
     cx="253.1311"
     id="path4138-1-6-5"
     style="opacity:0.98000004;fill:none;fill-opacity:1;fill-rule:evenodd;stroke:#000000;stroke-width:0.29902464;stroke-linecap:round;stroke-linejoin:miter;stroke-miterlimit:1.91999996;stroke-dasharray:none;stroke-opacity:1" />
  <ellipse
     ry="2.4611084"
     rx="2.4510143"
     cy="261.64822"
     cx="-359.76807"
     id="path4155-0-6"
     style="opacity:0.98000004;fill:none;fill-opacity:1;fill-rule:evenodd;stroke:#000000;stroke-width:0.44244549;stroke-linecap:round;stroke-linejoin:miter;stroke-miterlimit:1.91999996;stroke-dasharray:none;stroke-opacity:1" />
  <path
     d="m -341.73648,255.88039 a 13.165033,13.219251 0 0 1 -13.16503,13.21925 13.165033,13.219251 0 0 1 -13.16503,-13.21925 13.165033,13.219251 0 0 1 13.16503,-13.21925 13.165033,13.219251 0 0 1 13.16503,13.21925 z m -27.78682,0 a 13.165033,13.219251 0 0 1 -13.16503,13.21925 13.165033,13.219251 0 0 1 -13.16504,-13.21925 13.165033,13.219251 0 0 1 13.16504,-13.21925 13.165033,13.219251 0 0 1 13.16503,13.21925 z"
     style="color:#000000;clip-rule:nonzero;display:inline;overflow:visible;visibility:visible;opacity:1;isolation:auto;mix-blend-mode:normal;color-interpolation:sRGB;color-interpolation-filters:linearRGB;solid-color:#000000;solid-opacity:1;fill:none;fill-opacity:1;fill-rule:nonzero;stroke:#000000;stroke-width:0.63272089;stroke-linecap:butt;stroke-linejoin:miter;stroke-miterlimit:1.91999996;stroke-dasharray:none;stroke-dashoffset:0;stroke-opacity:1;color-rendering:auto;image-rendering:auto;shape-rendering:auto;text-rendering:auto;enable-background:accumulate"
     id="path4150-6-4" />
  <path
     id="rect4230-7"
     d="m -368.57349,245.49563 c -4.60149,-4.03311 -10.78273,-2.84205 -15.34645,-5.87941 -5.54391,-3.68973 -7.35718,-3.80349 -12.12471,-4.30463 5.13681,10.6531 16.68161,7.21437 27.51621,11.10752 z"
     style="color:#000000;font-style:normal;font-variant:normal;font-weight:normal;font-stretch:normal;font-size:medium;line-height:normal;font-family:sans-serif;text-indent:0;text-align:start;text-decoration:none;text-decoration-line:none;text-decoration-style:solid;text-decoration-color:#000000;letter-spacing:normal;word-spacing:normal;text-transform:none;direction:ltr;block-progression:tb;writing-mode:lr-tb;baseline-shift:baseline;text-anchor:start;white-space:normal;clip-rule:nonzero;display:inline;overflow:visible;visibility:visible;opacity:1;isolation:auto;mix-blend-mode:normal;color-interpolation:sRGB;color-interpolation-filters:linearRGB;solid-color:#000000;solid-opacity:1;fill:none;fill-opacity:1;fill-rule:nonzero;stroke:#000000;stroke-width:0.44244549;stroke-linecap:butt;stroke-linejoin:miter;stroke-miterlimit:1.91999996;stroke-dasharray:none;stroke-dashoffset:0;stroke-opacity:1;color-rendering:auto;image-rendering:auto;shape-rendering:auto;text-rendering:auto;enable-background:accumulate" />
  <path
     id="path4262-6"
     d="m -363.81792,270.84857 c 0,1.98529 -1.75502,4.02617 -4.59137,8.12133 -2.91243,-3.94297 -4.59136,-6.13604 -4.59136,-8.12133 0,-1.98529 2.05562,-3.59469 4.59136,-3.59469 2.53574,0 4.59137,1.6094 4.59137,3.59469 z"
     style="color:#000000;clip-rule:nonzero;display:inline;overflow:visible;visibility:visible;opacity:1;isolation:auto;mix-blend-mode:normal;color-interpolation:sRGB;color-interpolation-filters:linearRGB;solid-color:#000000;solid-opacity:1;fill:none;fill-opacity:1;fill-rule:nonzero;stroke:#000000;stroke-width:0.3933073;stroke-linecap:butt;stroke-linejoin:miter;stroke-miterlimit:1.91999996;stroke-dasharray:none;stroke-dashoffset:0;stroke-opacity:1;color-rendering:auto;image-rendering:auto;shape-rendering:auto;text-rendering:auto;enable-background:accumulate" />
  <path
     id="path4292-2-0"
     d="m -388.93562,294.03601 a 16.295809,10.036246 74.168362 0 0 0.65493,-0.83769 16.295809,10.036246 74.168362 0 0 0.6142,-1.01964 16.295809,10.036246 74.168362 0 0 0.5243,-1.1365 16.295809,10.036246 74.168362 0 0 0.42996,-1.24247 16.295809,10.036246 74.168362 0 0 0.33008,-1.33505 16.295809,10.036246 74.168362 0 0 0.22817,-1.41474 16.295809,10.036246 74.168362 0 0 0.12322,-1.47994 16.295809,10.036246 74.168362 0 0 0.0179,-1.53126 16.295809,10.036246 74.168362 0 0 -0.0889,-1.56621 16.295809,10.036246 74.168362 0 0 -0.19441,-1.58711 16.295809,10.036246 74.168362 0 0 -0.29725,-1.58951 16.295809,10.036246 74.168362 0 0 -0.39781,-1.57867 16.295809,10.036246 74.168362 0 0 -0.33952,-1.1021 16.295809,10.036246 74.168362 0 0 -0.55972,-1.52124 16.295809,10.036246 74.168362 0 0 -0.64676,-1.4683 16.295809,10.036246 74.168362 0 0 -0.72748,-1.39913 16.295809,10.036246 74.168362 0 0 -0.80163,-1.31632 16.295809,10.036246 74.168362 0 0 -0.86734,-1.22145 16.295809,10.036246 74.168362 0 0 -0.92392,-1.1127 16.295809,10.036246 74.168362 0 0 -0.97183,-0.99445 16.295809,10.036246 74.168362 0 0 -1.00952,-0.86486 16.295809,10.036246 74.168362 0 0 -1.03749,-0.72742 16.295809,10.036246 74.168362 0 0 -1.05582,-0.58214 16.295809,10.036246 74.168362 0 0 -1.06241,-0.43234 16.295809,10.036246 74.168362 0 0 -1.05831,-0.27631 16.295809,10.036246 74.168362 0 0 -1.04477,-0.11945 16.295809,10.036246 74.168362 0 0 -1.02021,0.0402 16.295809,10.036246 74.168362 0 0 -0.20368,0.0406 31.648437,31.778777 0 0 0 -0.25345,1.80022 31.648437,31.778777 0 0 0 11.63953,27.57602 z"
     style="opacity:0.98000004;fill:none;fill-opacity:1;fill-rule:evenodd;stroke:#000000;stroke-width:0.44244549;stroke-linecap:round;stroke-linejoin:miter;stroke-miterlimit:1.91999996;stroke-dasharray:none;stroke-opacity:1" />
  <path
     id="path4292-6-9-0"
     d="m -349.54265,294.10568 a 10.036817,16.294882 17.271785 0 1 -0.63359,-0.85408 10.036817,16.294882 17.271785 0 1 -0.58828,-1.03493 10.036817,16.294882 17.271785 0 1 -0.49547,-1.14948 10.036817,16.294882 17.271785 0 1 -0.39849,-1.25301 10.036817,16.294882 17.271785 0 1 -0.2963,-1.343 10.036817,16.294882 17.271785 0 1 -0.19241,-1.4201 10.036817,16.294882 17.271785 0 1 -0.0859,-1.4826 10.036817,16.294882 17.271785 0 1 0.0208,-1.53122 10.036817,16.294882 17.271785 0 1 0.12842,-1.56344 10.036817,16.294882 17.271785 0 1 0.23439,-1.58166 10.036817,16.294882 17.271785 0 1 0.33724,-1.58144 10.036817,16.294882 17.271785 0 1 0.43751,-1.56804 10.036817,16.294882 17.271785 0 1 0.3672,-1.09312 10.036817,16.294882 17.271785 0 1 0.59791,-1.50652 10.036817,16.294882 17.271785 0 1 0.68359,-1.45138 10.036817,16.294882 17.271785 0 1 0.76253,-1.38018 10.036817,16.294882 17.271785 0 1 0.83457,-1.29552 10.036817,16.294882 17.271785 0 1 0.89788,-1.199 10.036817,16.294882 17.271785 0 1 0.95168,-1.08884 10.036817,16.294882 17.271785 0 1 0.99661,-0.96942 10.036817,16.294882 17.271785 0 1 1.031,-0.83891 10.036817,16.294882 17.271785 0 1 1.05551,-0.7008 10.036817,16.294882 17.271785 0 1 1.07017,-0.55511 10.036817,16.294882 17.271785 0 1 1.07296,-0.40518 10.036817,16.294882 17.271785 0 1 1.06494,-0.24931 10.036817,16.294882 17.271785 0 1 1.04745,-0.0929 10.036817,16.294882 17.271785 0 1 1.01887,0.0661 10.036817,16.294882 17.271785 0 1 0.20259,0.0458 31.648437,31.778777 0 0 1 0.20797,1.80609 31.648437,31.778777 0 0 1 -12.33134,27.27118 z"
     style="opacity:0.98000004;fill:none;fill-opacity:1;fill-rule:evenodd;stroke:#000000;stroke-width:0.44244549;stroke-linecap:round;stroke-linejoin:miter;stroke-miterlimit:1.91999996;stroke-dasharray:none;stroke-opacity:1" />
  <path
     id="rect4230-8-2"
     d="m -368.25136,245.49563 c 4.6015,-4.03311 10.78274,-2.84205 15.34645,-5.87941 5.54391,-3.68973 7.35719,-3.80349 12.12471,-4.30463 -5.13681,10.6531 -16.6816,7.21437 -27.51621,11.10752 z"
     style="color:#000000;font-style:normal;font-variant:normal;font-weight:normal;font-stretch:normal;font-size:medium;line-height:normal;font-family:sans-serif;text-indent:0;text-align:start;text-decoration:none;text-decoration-line:none;text-decoration-style:solid;text-decoration-color:#000000;letter-spacing:normal;word-spacing:normal;text-transform:none;direction:ltr;block-progression:tb;writing-mode:lr-tb;baseline-shift:baseline;text-anchor:start;white-space:normal;clip-rule:nonzero;display:inline;overflow:visible;visibility:visible;opacity:1;isolation:auto;mix-blend-mode:normal;color-interpolation:sRGB;color-interpolation-filters:linearRGB;solid-color:#000000;solid-opacity:1;fill:none;fill-opacity:1;fill-rule:nonzero;stroke:#000000;stroke-width:0.44244549;stroke-linecap:butt;stroke-linejoin:miter;stroke-miterlimit:1.91999996;stroke-dasharray:none;stroke-dashoffset:0;stroke-opacity:1;color-rendering:auto;image-rendering:auto;shape-rendering:auto;text-rendering:auto;enable-background:accumulate" />
  <g
     transform="translate(-77.291978,-2.2285963)"
     id="g6104">
    <path
       style="color:#000000;font-style:normal;font-variant:normal;font-weight:normal;font-stretch:normal;font-size:medium;line-height:normal;font-family:sans-serif;text-indent:0;text-align:start;text-decoration:none;text-decoration-line:none;text-decoration-style:solid;text-decoration-color:#000000;letter-spacing:normal;word-spacing:normal;text-transform:none;direction:ltr;block-progression:tb;writing-mode:lr-tb;baseline-shift:baseline;text-anchor:start;white-space:normal;clip-rule:nonzero;display:inline;overflow:visible;visibility:visible;opacity:1;isolation:auto;mix-blend-mode:normal;color-interpolation:sRGB;color-interpolation-filters:linearRGB;solid-color:#000000;solid-opacity:1;fill:#000000;fill-opacity:1;fill-rule:nonzero;stroke:none;stroke-width:2;stroke-linecap:butt;stroke-linejoin:round;stroke-miterlimit:2;stroke-dasharray:none;stroke-dashoffset:0;stroke-opacity:1;color-rendering:auto;image-rendering:auto;shape-rendering:auto;text-rendering:auto;enable-background:accumulate"
       d="m 125.8279,59.200327 c -4.70554,3.167439 -10.31753,5.058909 -16.39605,5.059304 -6.04723,-0.01139 -11.91499,-1.935124 -16.870669,-5.418897 l -0.766082,1.923436 c 5.202286,3.544176 11.339601,5.452639 17.633431,5.464498 l 0.002,0 c 6.77753,0 13.0607,-2.163983 18.21036,-5.832333 z m 15.15849,-26.321901 c -0.28457,-8.652278 -4.12698,-16.343464 -9.97311,-21.892881 2.63298,-1.2955323 4.94642,-3.3184453 6.5454,-6.6572825 0.33216,-0.6946566 -0.22281,-1.4861327 -0.98564,-1.4056826 -4.28902,0.4538563 -6.51141,0.7520375 -11.16546,3.7190015 -4.65833,-2.7624122 -10.06433,-4.3794338 -15.84683,-4.4034368 -0.0431,-0.00611 -0.0866,-0.00932 -0.13014,-0.00962 l -1.5e-4,9.22e-5 c -5.6455,0 -10.935646,1.5325917 -15.527152,4.157436 -4.298565,-2.6615058 -6.567962,-3.028406 -10.694647,-3.465171 -0.762834,-0.080453 -1.317804,0.7110247 -0.98564,1.4056826 1.485959,3.1028649 3.639942,4.9632087 6.040142,6.2688446 -5.993111,5.49269 -9.971169,13.20516 -10.355894,21.914033 l 2.125916,-1.023018 C 80.703682,23.353688 84.551848,16.135923 90.412046,11.181907 90.969898,10.711201 90.839755,9.8152054 90.171282,9.5243208 88.194708,8.6649076 86.605025,7.2084434 85.229696,5.22074 c 2.641947,0.3377541 4.585475,0.7906673 8.158785,3.0901942 0.311841,0.2003052 0.709395,0.2069999 1.027742,0.017307 4.40832,-2.6216021 9.533597,-4.130515 15.014237,-4.130515 5.68012,0 10.97825,1.6114779 15.48886,4.4054976 0.32324,0.2004965 0.73267,0.1952511 1.0507,-0.013461 3.95566,-2.596071 5.92644,-3.0399876 8.79994,-3.3920986 -1.53037,2.3105109 -3.43895,3.6750339 -5.73776,4.5651032 l 0.0229,-0.00577 c -0.70529,0.2546616 -0.87663,1.1781646 -0.31003,1.6710496 5.78375,5.014778 9.54219,12.257876 10.12432,20.389129 z"
       id="path4148-1" />
    <path
       style="color:#000000;font-style:normal;font-variant:normal;font-weight:normal;font-stretch:normal;font-size:medium;line-height:normal;font-family:sans-serif;text-indent:0;text-align:start;text-decoration:none;text-decoration-line:none;text-decoration-style:solid;text-decoration-color:#000000;letter-spacing:normal;word-spacing:normal;text-transform:none;direction:ltr;block-progression:tb;writing-mode:lr-tb;baseline-shift:baseline;text-anchor:start;white-space:normal;clip-rule:nonzero;display:inline;overflow:visible;visibility:visible;opacity:0.98000004;isolation:auto;mix-blend-mode:normal;color-interpolation:sRGB;color-interpolation-filters:linearRGB;solid-color:#000000;solid-opacity:1;fill:#800000;fill-opacity:1;fill-rule:evenodd;stroke:none;stroke-width:2;stroke-linecap:square;stroke-linejoin:round;stroke-miterlimit:2;stroke-dasharray:none;stroke-dashoffset:0;stroke-opacity:1;color-rendering:auto;image-rendering:auto;shape-rendering:auto;text-rendering:auto;enable-background:accumulate"
       d="m 80.088843,31.498406 c -0.394637,-0.02633 -0.78754,-0.02079 -1.17599,0.01512 a 0.97999491,0.98465247 0.38594095 0 0 -0.05948,0.006 c -0.07931,0.01236 -0.159725,0.02638 -0.23856,0.04141 a 0.97999491,0.98465247 0.38594095 0 0 -0.777896,0.776522 c -0.12198,0.621159 -0.227589,1.247285 -0.314486,1.874492 a 0.97999491,0.98465247 0.38594095 0 0 -0.003,0.02109 C 76.24099,45.200154 80.407448,56.086946 88.625,63.290493 a 0.97999491,0.98465247 0.38594095 0 0 0.08191,0.08309 c 9.96e-4,9.08e-4 0.003,0.0012 0.004,0.0021 a 0.97999491,0.98465247 0.38594095 0 0 0.199152,0.136396 l 0.002,5.6e-5 a 0.97999491,0.98465247 0.38594095 0 0 1.158494,-0.21182 0.97999491,0.98465247 0.38594095 0 0 0.06337,-0.07517 c 0.002,-0.0023 0.004,-0.0052 0.006,-0.0075 a 0.97999491,0.98465247 0.38594095 0 0 5e-5,-0.002 c 0.237893,-0.263661 0.469189,-0.538469 0.683795,-0.83495 a 0.97999491,0.98465247 0.38594095 0 0 0.002,-0.0037 c 0.251114,-0.349764 0.48529,-0.7205 0.702975,-1.111426 0.217566,-0.390956 0.417794,-0.801805 0.600963,-1.229709 0.183359,-0.428098 0.348514,-0.873692 0.49666,-1.33459 0.147897,-0.460729 0.277997,-0.93692 0.390083,-1.426072 0.112285,-0.489175 0.207124,-0.99095 0.28312,-1.504095 0.07593,-0.513021 0.132591,-1.036485 0.17196,-1.568772 0.03956,-0.532479 0.06128,-1.072962 0.06427,-1.619885 0.003,-0.546724 -0.01216,-1.099572 -0.04584,-1.655673 C 93.456138,50.37028 93.403328,49.81142 93.33364,49.250686 93.26409,48.690499 93.176905,48.130888 93.072132,47.57165 92.96741,47.012637 92.845868,46.454116 92.707009,45.901249 l 5e-5,-0.002 C 92.609012,45.507958 92.501888,45.118196 92.387252,44.732186 92.224658,44.186453 92.04652,43.647445 91.852111,43.116653 91.657832,42.58552 91.448048,42.063607 91.223637,41.552366 90.999306,41.041341 90.75964,40.541221 90.50715,40.054862 90.254481,39.568581 89.98855,39.096754 89.709875,38.639737 89.43119,38.182411 89.139701,37.740495 88.837271,37.316762 88.534981,36.893319 88.222079,36.48741 87.898486,36.101582 87.574853,35.715483 87.241405,35.350571 86.89894,35.00589 86.556584,34.661444 86.206536,34.339075 85.847919,34.039567 85.489292,33.740032 85.123182,33.46361 84.750904,33.212387 a 0.97999491,0.98465247 0.38594095 0 0 -0.002,-5.6e-5 c -0.372108,-0.250794 -0.748889,-0.476916 -1.131849,-0.676185 l -0.002,-5.6e-5 c -0.38272,-0.199434 -0.770621,-0.374467 -1.161113,-0.519263 -0.390881,-0.144592 -0.784382,-0.259862 -1.179318,-0.346638 -0.395136,-0.08711 -0.791506,-0.14519 -1.186104,-0.171771 z m -0.131277,1.964273 c 0.29413,0.01981 0.592693,0.06403 0.896219,0.130938 a 0.97999491,0.98465247 0.38594095 0 0 0.002,5.6e-5 c 0.302758,0.06652 0.609333,0.157512 0.919096,0.272011 0.31056,0.115158 0.623751,0.252981 0.938038,0.41682 a 0.97999491,0.98465247 0.38594095 0 0 0.002,0.0021 c 0.314396,0.16353 0.629261,0.351361 0.943538,0.563177 l 6e-5,-0.002 c 0.314067,0.21194 0.625843,0.44844 0.935696,0.707235 0.309843,0.258766 0.616936,0.539921 0.918509,0.843335 0.301682,0.303629 0.598512,0.629829 0.888028,0.975217 0.289456,0.345131 0.570852,0.709908 0.844535,1.093268 0.273793,0.383627 0.538957,0.785534 0.793599,1.203413 0.254632,0.417582 0.49915,0.850459 0.731622,1.297861 0.232302,0.447488 0.452967,0.907992 0.660389,1.380508 0.207492,0.472718 0.401662,0.95676 0.581892,1.449482 0.18034,0.492397 0.345106,0.99378 0.496211,1.500944 0.106496,0.3587 0.206077,0.719956 0.297218,1.083688 a 0.97999491,0.98465247 0.38594095 0 0 -5e-5,0.002 c 0.129274,0.51456 0.2442,1.032416 0.341609,1.552395 0.09735,0.519621 0.17734,1.039752 0.241858,1.559216 0.06467,0.519971 0.113231,1.038409 0.144399,1.552635 0.03109,0.513862 0.04613,1.024163 0.04364,1.526725 -0.003,0.502055 -0.02242,0.998177 -0.05859,1.483462 -0.03597,0.485762 -0.08978,0.961174 -0.158379,1.424874 -0.06865,0.463804 -0.153746,0.914372 -0.253964,1.351016 -0.10006,0.436651 -0.215434,0.859041 -0.345355,1.26381 -0.130141,0.404888 -0.2746,0.792725 -0.432491,1.161333 -0.157721,0.368461 -0.326881,0.717187 -0.509682,1.04567 -0.161926,0.290807 -0.337314,0.557447 -0.516648,0.814629 -7.266799,-6.768278 -11.001484,-16.639184 -9.836116,-26.651829 2.19e-4,-0.002 -7e-5,-0.0038 1.6e-4,-0.0058 0.04633,-0.332792 0.110581,-0.66264 0.167436,-0.99371 0.10824,8.35e-4 0.213958,-0.01167 0.323683,-0.0044 z"
       id="path4292-2-0-6" />
    <path
       style="color:#000000;font-style:normal;font-variant:normal;font-weight:normal;font-stretch:normal;font-size:medium;line-height:normal;font-family:sans-serif;text-indent:0;text-align:start;text-decoration:none;text-decoration-line:none;text-decoration-style:solid;text-decoration-color:#000000;letter-spacing:normal;word-spacing:normal;text-transform:none;direction:ltr;block-progression:tb;writing-mode:lr-tb;baseline-shift:baseline;text-anchor:start;white-space:normal;clip-rule:nonzero;display:inline;overflow:visible;visibility:visible;opacity:0.98000004;isolation:auto;mix-blend-mode:normal;color-interpolation:sRGB;color-interpolation-filters:linearRGB;solid-color:#000000;solid-opacity:1;fill:#800000;fill-opacity:1;fill-rule:evenodd;stroke:none;stroke-width:2;stroke-linecap:square;stroke-linejoin:round;stroke-miterlimit:2;stroke-dasharray:none;stroke-dashoffset:0;stroke-opacity:1;color-rendering:auto;image-rendering:auto;shape-rendering:auto;text-rendering:auto;enable-background:accumulate"
       d="m 138.84311,31.593643 c -0.38821,0.0054 -0.77983,0.04086 -1.17129,0.107686 -0.39064,0.06648 -0.7822,0.163424 -1.17126,0.288443 -0.38984,0.125609 -0.77728,0.280226 -1.16173,0.46151 -0.38464,0.180945 -0.76639,0.387617 -1.14257,0.621116 a 0.97999424,0.98465314 0 0 0 0,0.002 c -0.37589,0.233624 -0.74727,0.49206 -1.11196,0.774952 -0.36466,0.282864 -0.72282,0.588399 -1.07367,0.917251 -0.35098,0.329084 -0.69317,0.680188 -1.02773,1.051858 -0.33453,0.371399 -0.66047,0.762703 -0.97608,1.173005 -0.31575,0.41059 -0.62052,0.840864 -0.91482,1.286459 -0.29428,0.445287 -0.57741,0.906536 -0.84785,1.382607 -0.27026,0.476157 -0.52716,0.966705 -0.77128,1.469141 -0.24421,0.502653 -0.47497,1.016051 -0.6909,1.54029 -0.21605,0.52389 -0.41699,1.057389 -0.60288,1.597978 -0.1313,0.382974 -0.25584,0.770392 -0.37127,1.159544 -0.16319,0.54901 -0.30985,1.102534 -0.44018,1.659513 -0.13038,0.557201 -0.24443,1.116828 -0.34068,1.67682 -0.0965,0.560533 -0.17606,1.120601 -0.23732,1.678742 -0.0611,0.557743 -0.10478,1.113156 -0.13014,1.663359 -0.0251,0.550414 -0.0323,1.096731 -0.0211,1.634514 0.011,0.537583 0.0407,1.066345 0.088,1.586441 0.0475,0.520229 0.11324,1.030735 0.19714,1.528752 0.0837,0.497973 0.18632,0.982467 0.30621,1.453756 0.12013,0.471485 0.25741,0.928723 0.41339,1.369147 0.15579,0.440221 0.32947,0.864119 0.52058,1.269153 0.1912,0.405004 0.39991,0.790055 0.62582,1.155698 a 0.97999424,0.98465314 0 0 0 0.002,0.0038 c 0.19822,0.318106 0.41142,0.616959 0.63541,0.901868 a 0.97999424,0.98465314 0 0 0 0.0478,0.06538 0.97999424,0.98465314 0 0 0 0.42296,0.307674 0.97999424,0.98465314 0 0 0 0.95501,-0.157683 l 0,0.002 c 0.0102,-0.0083 0.0184,-0.01862 0.0288,-0.02692 0.007,-0.0057 0.014,-0.01156 0.0211,-0.01731 a 0.97999424,0.98465314 0 0 0 0.0172,-0.01731 c 8.37929,-6.817545 12.98631,-17.566232 12.3061,-28.68477 a 0.97999424,0.98465314 0 0 0 0,-0.01923 c -0.0522,-0.636054 -0.12196,-1.271838 -0.20861,-1.903729 a 0.97999424,0.98465314 0 0 0 -0.72917,-0.819271 c -0.0764,-0.01959 -0.1525,-0.03693 -0.22967,-0.05385 a 0.97999424,0.98465314 0 0 0 -0.0632,-0.01154 c -0.37899,-0.05778 -0.76392,-0.084 -1.15215,-0.07884 z m 0.0268,1.96911 c 0.0979,-0.0013 0.19075,0.01512 0.28709,0.01923 0.0387,0.340158 0.0847,0.67974 0.11292,1.02109 0.62041,10.150878 -3.51467,19.884819 -10.89753,26.309917 -0.15273,-0.257797 -0.30241,-0.521797 -0.43827,-0.809565 -0.16129,-0.341824 -0.3092,-0.703608 -0.44402,-1.084549 -0.13476,-0.380534 -0.25577,-0.780499 -0.36172,-1.19608 l 0,-0.002 c -0.10564,-0.415559 -0.19679,-0.84815 -0.27175,-1.294151 -0.0752,-0.446646 -0.13492,-0.906477 -0.178,-1.37876 -0.043,-0.472168 -0.0704,-0.955404 -0.0803,-1.447988 a 0.97999424,0.98465314 0 0 0 0,-0.002 c -0.0102,-0.492116 -0.004,-0.992763 0.0191,-1.499907 l 0,-0.002 c 0.0234,-0.50702 0.0639,-1.019962 0.12057,-1.536444 0.0568,-0.517495 0.13039,-1.038128 0.22009,-1.559519 0.0896,-0.520883 0.19621,-1.042258 0.31771,-1.561442 0.12157,-0.519539 0.25726,-1.037639 0.40955,-1.549905 0.10761,-0.362722 0.2241,-0.722024 0.34642,-1.07878 0.17315,-0.503569 0.35992,-0.999435 0.56076,-1.486446 0.20073,-0.487345 0.41494,-0.965073 0.64115,-1.430681 0.22613,-0.465406 0.46484,-0.918886 0.71387,-1.357609 l -0.002,0 c 0.24916,-0.438629 0.50979,-0.861905 0.77893,-1.269152 0.26889,-0.407101 0.54692,-0.797683 0.83254,-1.169159 l 0,-0.002 c 0.28552,-0.371135 0.57972,-0.724035 0.87846,-1.055705 0.29913,-0.332286 0.6043,-0.643279 0.91291,-0.932634 0.30849,-0.289143 0.62004,-0.556441 0.93396,-0.79995 0.31395,-0.243538 0.63023,-0.46366 0.94545,-0.659575 l 0,0.002 c 0.31543,-0.195782 0.62912,-0.368345 0.94163,-0.515353 a 0.97999424,0.98465314 0 0 0 0.002,0 c 0.31242,-0.147322 0.62062,-0.270715 0.92629,-0.369208 0.3055,-0.09816 0.60587,-0.170911 0.90144,-0.22114 a 0.97999424,0.98465314 0 0 0 0.002,0 c 0.29577,-0.0505 0.58503,-0.0768 0.86887,-0.08076 z"
       id="path4292-6-9-0-2" />
  </g>
</svg>
