<?xml version="1.0" encoding="UTF-8" standalone="no"?>
<svg
   xmlns:dc="http://purl.org/dc/elements/1.1/"
   xmlns:cc="http://creativecommons.org/ns#"
   xmlns:rdf="http://www.w3.org/1999/02/22-rdf-syntax-ns#"
   xmlns:svg="http://www.w3.org/2000/svg"
   xmlns="http://www.w3.org/2000/svg"
   xmlns:sodipodi="http://sodipodi.sourceforge.net/DTD/sodipodi-0.dtd"
   xmlns:inkscape="http://www.inkscape.org/namespaces/inkscape"
   fill="#000000"
   height="24"
   viewBox="0 0 24 24"
   width="24"
   id="svg2"
   version="1.1"
   inkscape:version="0.91 r13725"
   sodipodi:docname="timelapse_black_24px.svg">
  <metadata
     id="metadata12">
    <rdf:RDF>
      <cc:Work
         rdf:about="">
        <dc:format>image/svg+xml</dc:format>
        <dc:type
           rdf:resource="http://purl.org/dc/dcmitype/StillImage" />
        <dc:title />
      </cc:Work>
    </rdf:RDF>
  </metadata>
  <defs
     id="defs10" />
  <sodipodi:namedview
     pagecolor="#ffffff"
     bordercolor="#666666"
     borderopacity="1"
     objecttolerance="10"
     gridtolerance="10"
     guidetolerance="10"
     inkscape:pageopacity="0"
     inkscape:pageshadow="2"
     inkscape:window-width="1440"
     inkscape:window-height="849"
     id="namedview8"
     showgrid="false"
     showguides="true"
     inkscape:guide-bbox="true"
     inkscape:object-paths="true"
     inkscape:snap-intersection-paths="true"
     inkscape:object-nodes="true"
     inkscape:snap-smooth-nodes="true"
     inkscape:snap-midpoints="true"
     inkscape:zoom="11.313708"
     inkscape:cx="42.236554"
     inkscape:cy="24.897855"
     inkscape:window-x="0"
     inkscape:window-y="0"
     inkscape:window-maximized="1"
     inkscape:current-layer="svg2">
    <sodipodi:guide
       position="34.0625,29.65625"
       orientation="0,1"
       id="guide4186" />
    <sodipodi:guide
       position="44.033898,39.694915"
       orientation="1,0"
       id="guide4188" />
    <sodipodi:guide
       position="34.033898,4.944757"
       orientation="0,1"
       id="guide4192" />
    <sodipodi:guide
       position="44.033898,-19.058196"
       orientation="0,1"
       id="guide4194" />
  </sodipodi:namedview>
  <path
     d="M0 0h24v24H0z"
     fill="none"
     id="path4" />
  <path
     d="M16.24 7.76C15.07 6.59 13.54 6 12 6v6l-4.24 4.24c2.34 2.34 6.14 2.34 8.49 0 2.34-2.34 2.34-6.14-.01-8.48zM12 2C6.48 2 2 6.48 2 12s4.48 10 10 10 10-4.48 10-10S17.52 2 12 2zm0 18c-4.42 0-8-3.58-8-8s3.58-8 8-8 8 3.58 8 8-3.58 8-8 8z"
     id="path6" />
  <path
     id="path4159"
     d="m 48.273898,-9.8962494 c -1.17,-1.1700006 -2.7,-1.7600006 -4.24,-1.7600006 l 0,6 6.015417,0 c -0.0065,-1.5281461 -0.605658,-3.0752183 -1.775417,-4.2399994 z m -4.24,12.2013341 c -4.42,0 -8,-3.58 -8,-8 0,-4.4199997 3.58,-7.9999997 8,-7.9999997 4.42,0 8,3.58 8,7.9999997 0,4.42 -3.58,8 -8,8 z m 0,-17.9999997 c -5.52,0 -10,4.48 -10,9.9999993 0,5.52000002 4.48,10 10,10 5.52,0 10,-4.47999998 10,-10 0,-5.5199993 -4.48,-9.9999993 -10,-9.9999993 z" />
  <path
     inkscape:connector-curvature="0"
     d="m 20.747955,32.474364 c -1.17,-1.17 -2.7,-1.76 -4.24,-1.76 l 0,6 -4.24,4.24 c 2.34,2.34 6.14,2.34 8.49,0 2.34,-2.34 2.34,-6.14 -0.01,-8.48 z"
     id="path4159-8" />
  <path
     inkscape:connector-curvature="0"
     id="path4159-4"
     d="m 78.486212,-1.4162506 c -1.17,1.1700013 -2.7,1.7600013 -4.24,1.7600013 l 0,-6.0000007 6.015417,0 c -0.0065,1.5281461 -0.605658,3.0752183 -1.775417,4.2399994 z m -4.24,-12.2013344 c -4.42,0 -8,3.58 -8,8.0000003 0,4.4200004 3.58,8.0000004 8,8.0000004 4.42,0 8,-3.58 8,-8.0000004 0,-4.4200003 -3.58,-8.0000003 -8,-8.0000003 z m 0,18.0000007 c -5.52,0 -10,-4.48 -10,-10 0,-5.5199997 4.48,-9.9999997 10,-9.9999997 5.52,0 10,4.48 10,9.9999997 0,5.52 -4.48,10 -10,10 z" />
  <path
     inkscape:connector-curvature="0"
     id="path4159-4-9"
     d="m 100.05825,-1.4162511 c 1.17,1.1700021 2.7,1.7600021 4.24,1.7600021 l 0,-6.000001 -6.01542,0 c 0.007,1.528146 0.60566,3.0752179 1.77542,4.2399989 z m 4.24,-12.2013339 c 4.42,0 8,3.58 8,8.0000003 0,4.4200007 -3.58,8.0000007 -8,8.0000007 -4.42,0 -8,-3.5800001 -8,-8.0000007 0,-4.4200003 3.58,-8.0000003 8,-8.0000003 z m 0,18.000001 c 5.52,0 10,-4.48 10,-10.0000003 0,-5.5199997 -4.48,-9.9999997 -10,-9.9999997 -5.52,0 -10,4.48 -10,9.9999997 0,5.5200003 4.48,10.0000003 10,10.0000003 z" />
  <path
     inkscape:connector-curvature="0"
     id="path4159-5"
     d="m 126.385,-9.8962494 c 1.17,-1.1700006 2.7,-1.7600006 4.24,-1.7600006 l 0,6 -6.01542,0 c 0.007,-1.5281461 0.60566,-3.0752183 1.77542,-4.2399994 z m 4.24,12.2013344 c 4.42,0 8,-3.58 8,-8.0000003 0,-4.4199997 -3.58,-7.9999997 -8,-7.9999997 -4.42,0 -8,3.58 -8,7.9999997 0,4.4200003 3.58,8.0000003 8,8.0000003 z m 0,-18.000001 c 5.52,0 10,4.480001 10,10.0000003 0,5.5199997 -4.48,9.9999997 -10,9.9999997 -5.52,0 -10,-4.48 -10,-9.9999997 0,-5.5199993 4.48,-10.0000003 10,-10.0000003 z" />
  <path
     inkscape:connector-curvature="0"
     id="path4159-1"
     d="M 134.865,-47.739999 C 133.695,-48.91 132.165,-49.5 130.625,-49.5 l 0,6 6.01542,0 c -0.007,-1.528146 -0.60566,-3.075218 -1.77542,-4.239999 z m -4.24,12.201334 c -4.42,0 -8,-3.58 -8,-8 0,-4.42 3.58,-8 8,-8 4.42,0 8,3.58 8,8 0,4.42 -3.58,8 -8,8 z m 0,-18 c -5.52,0 -10,4.48 -10,9.999999 0,5.52 4.48,10 10,10 5.52,0 10,-4.48 10,-10 0,-5.519999 -4.48,-9.999999 -10,-9.999999 z" />
  <path
     inkscape:connector-curvature="0"
     id="path4159-4-6"
     d="m 134.865,-39.337333 c -1.17,1.170002 -2.7,1.760002 -4.24,1.760002 l 0,-6.000001 6.01542,0 c -0.007,1.528146 -0.60566,3.075218 -1.77542,4.239999 z m -4.24,-12.201334 c -4.42,0 -8,3.58 -8,8 0,4.420001 3.58,8.000001 8,8.000001 4.42,0 8,-3.58 8,-8.000001 0,-4.42 -3.58,-8 -8,-8 z m 0,18.000001 c -5.52,0 -10,-4.48 -10,-10 0,-5.52 4.48,-10 10,-10 5.52,0 10,4.48 10,10 0,5.52 -4.48,10 -10,10 z" />
  <path
     inkscape:connector-curvature="0"
     id="path4159-4-9-2"
     d="m 126.385,-39.337333 c 1.17,1.170002 2.7,1.760002 4.24,1.760002 l 0,-6.000001 -6.01542,0 c 0.007,1.528146 0.60566,3.075218 1.77542,4.239999 z m 4.24,-12.201334 c 4.42,0 8,3.58 8,8 0,4.420001 -3.58,8.000001 -8,8.000001 -4.42,0 -8,-3.58 -8,-8.000001 0,-4.42 3.58,-8 8,-8 z m 0,18.000001 c 5.52,0 10,-4.48 10,-10 0,-5.52 -4.48,-10 -10,-10 -5.52,0 -10,4.48 -10,10 0,5.52 4.48,10 10,10 z" />
  <path
     inkscape:connector-curvature="0"
     id="path4159-5-8"
     d="M 126.385,-47.739999 C 127.555,-48.91 129.085,-49.5 130.625,-49.5 l 0,6 -6.01542,0 c 0.007,-1.528146 0.60566,-3.075218 1.77542,-4.239999 z m 4.24,12.201334 c 4.42,0 8,-3.58 8,-8 0,-4.42 -3.58,-8 -8,-8 -4.42,0 -8,3.58 -8,8 0,4.42 3.58,8 8,8 z m 0,-18.000001 c 5.52,0 10,4.480001 10,10 0,5.52 -4.48,10 -10,10 -5.52,0 -10,-4.48 -10,-10 0,-5.519999 4.48,-10 10,-10 z" />
</svg>
